SplineFontDB: 3.0
FontName: StickNoBillsDraft-Bold
FullName: Stick No Bills
FamilyName: Stick No Bills
OS2StyleName: "regular"
Weight: Bold
Copyright: Copyright (c) 2013 STICK NO BILLS, Copyright (c) 2015 mooniak\n
UComments: "2015-2-15: Created with FontForge (http://fontforge.org) The  Free Font Editor"
Version: 001
ItalicAngle: 0
UnderlinePosition: -102
UnderlineWidth: 51
Ascent: 819
Descent: 205
InvalidEm: 0
UFOAscent: 819
UFODescent: -205
LayerCount: 2
Layer: 0 0 "Back" 1
Layer: 1 0 "Fore" 0
PreferredKerning: 4
FSType: 0
OS2Version: 0
OS2_WeightWidthSlopeOnly: 0
OS2_UseTypoMetrics: 0
CreationTime: 1429518268
ModificationTime: 1429790010
PfmFamily: 16
TTFWeight: 400
TTFWidth: 5
LineGap: 94
VLineGap: 0
OS2TypoAscent: 819
OS2TypoAOffset: 0
OS2TypoDescent: -205
OS2TypoDOffset: 0
OS2TypoLinegap: 94
OS2WinAscent: 918
OS2WinAOffset: 0
OS2WinDescent: 205
OS2WinDOffset: 0
HheadAscent: 918
HheadAOffset: 0
HheadDescent: -205
HheadDOffset: 0
OS2CapHeight: 0
OS2XHeight: 0
OS2Vendor: 'PfEd'
OS2UnicodeRanges: 00000002.00000000.00000000.00000000
Lookup: 258 0 0 "'kern' Horizontal Kerning lookup 0" { "'kern' Horizontal Kerning lookup 0-1" [153,15,0] } ['kern' ('DFLT' <'dflt' > 'hani' <'dflt' > 'latn' <'dflt' > ) ]
MarkAttachClasses: 1
DEI: 91125
KernClass2: 7 7 "'kern' Horizontal Kerning lookup 0-1"
 1 A
 7 T Y P F
 9 f r v w y
 1 L
 3 W V
 0 
 7 W V T Y
 12 period comma
 17 a e s o q d c g u
 1 A
 5 w v t
 15 semicolon colon
 0 {} 0 {} 0 {} 0 {} 0 {} 0 {} 0 {} 0 {} -70 {} 61 {} -23 {} 0 {} -68 {} 45 {} 0 {} 16 {} -80 {} -30 {} -100 {} -23 {} -63 {} 0 {} 0 {} -41 {} 0 {} 0 {} 0 {} 0 {} 0 {} -82 {} 0 {} 84 {} 0 {} -77 {} 62 {} 0 {} 0 {} -109 {} -55 {} -130 {} 0 {} -75 {} 0 {} 0 {} 0 {} 0 {} 0 {} 0 {} 0 {}

StartChar: A
Encoding: 65 65 0
GlifName: A_
Width: 576
VWidth: 0
GlyphClass: 2
Flags: W
HStem: 0 21G<26 199.93 384.009 557.275> 679 20G<200.975 404.301> 679 20G<200.975 404.301>
VStem: 161.649 40.2659<583.694 612>
LayerCount: 2
Back
SplineSet
155 582 m 257x90
 170 582 l 257
 230 302 l 257
 164 0 l 257
 26 0 l 257
 155 582 l 257x90
200 699 m 257xd0
 339 699 l 257
 490 0 l 257
 353 0 l 257
 333 85 l 257
 239 85 l 257
 269 223 l 257
 305 223 l 257
 200 699 l 257xd0
EndSplineSet
Fore
SplineSet
26 0 m 1x90
 161.649414062 612 l 1
 201.915278804 612 l 1
 276.627594604 316.96875 l 1
 194.764648438 0 l 1
 26 0 l 1x90
325.060535954 242.588867188 m 1
 200.974710091 699 l 1
 399.794921875 699 l 1xd0
 557.275390625 -0 l 1
 389.80859375 0 l 1
 366.173198347 81.501953125 l 1
 247.131821376 81.501953125 l 1
 290.292961643 242.588867188 l 1
 325.060535954 242.588867188 l 1
EndSplineSet
EndChar

StartChar: AE
Encoding: 198 198 1
GlifName: A_E_
Width: 817
VWidth: 0
GlyphClass: 2
Flags: HW
LayerCount: 2
Back
SplineSet
701 141 m 257
 701 0 l 257
 337 0 l 257
 337 148 l 257
 272 148 l 257
 301 268 l 257
 337 268 l 257
 337 560 l 257
 320 560 l 257
 182 0 l 257
 26 0 l 257
 206 700 l 257
 701 700 l 257
 701 560 l 257
 483 560 l 257
 478 560 l 257
 478 418 l 257
 607 418 l 257
 607 277 l 257
 478 277 l 257
 478 141 l 257
 701 141 l 257
EndSplineSet
Fore
SplineSet
557.302925556 171 m 1
 795.344726562 171 l 1
 795.344726562 0 l 1
 360.612274617 0 l 1
 360.612274617 148 l 1
 281.180721423 148 l 1
 322.876838947 298 l 1
 360.612274617 298 l 1
 371.344726562 520.42578125 l 1
 213.09765625 -0 l 1
 26 0 l 1
 224.053097549 700 l 1
 795.344726562 700 l 1
 795.344726562 530 l 1
 550.007269917 530 l 1
 550.007269917 433 l 1
 701.344726562 433 l 1
 701.344726562 262 l 1
 557.302925556 262 l 1
 557.302925556 171 l 1
EndSplineSet
EndChar

StartChar: Aring
Encoding: 197 197 6
GlifName: A_ring
Width: 576
VWidth: 0
GlyphClass: 2
Flags: HW
LayerCount: 2
Back
SplineSet
173 765 m 256xbe
 173 818 216 861 269 861 c 256
 322 861 365 818 365 765 c 256
 365 739 355 716 339 699 c 257
 490 0 l 257
 353 0 l 257
 333 85 l 257
 239 85 l 257
 269 223 l 257
 305 223 l 257
 200 698 l 257
 183 715 173 739 173 765 c 256xbe
237 765 m 256
 237 747 251 733 269 733 c 256xde
 287 733 301 747 301 765 c 256
 301 783 287 797 269 797 c 256
 251 797 237 783 237 765 c 256
155 582 m 257
 170 582 l 257
 230 302 l 257
 164 0 l 257
 26 0 l 257
 155 582 l 257
EndSplineSet
Fore
SplineSet
206.800465755 678.51953125 m 1
 186.001953125 698.817382812 176.688476562 722.849609375 176.688476562 750 c 0
 176.688476562 811.284179688 232.155428498 861 304.57921944 861 c 0
 377.003010382 861 428.688476562 811.284179688 428.688476562 750 c 0
 428.688476562 723.89453125 418.770507812 700.23828125 403.940429688 682.5078125 c 1
 557.275390625 -0 l 1
 389.80859375 0 l 1
 366.173198347 81.73046875 l 1
 247.131821376 81.73046875 l 1
 290.292961643 243.26953125 l 1
 325.050149306 243.26953125 l 1
 206.800465755 678.51953125 l 1
304.57921944 767 m 0
 292.96579249 767 284.489133348 759.822265625 284.489133348 750 c 0
 284.489133348 740.172851562 292.97156285 733 304.57921944 733 c 0
 316.19264639 733 324.669305532 740.177734375 324.669305532 750 c 0
 324.669305532 759.827148438 316.18687603 767 304.57921944 767 c 0
26 0 m 1
 161.649414062 612 l 1
 201.915278804 612 l 1
 276.627594604 316.96875 l 1
 194.764648438 0 l 1
 26 0 l 1
EndSplineSet
EndChar

StartChar: B
Encoding: 66 66 8
GlifName: B_
Width: 574
VWidth: 0
GlyphClass: 2
Flags: HW
LayerCount: 2
Back
SplineSet
221 122 m 257
 308 122 324 179 324 205 c 256
 324 227 311 289 221 289 c 257
 221 411 l 257
 281 411 322 446 322 497 c 256
 322 547 280 576 221 577 c 257
 221 700 l 257
 229 701 237 701 245 701 c 256
 397 701 454 574 454 514 c 258
 454 513 l 258
 453 421 420 378 385 352 c 257
 423 322 458 285 458 201 c 256
 458 199 458 198 458 197 c 256
 457 86 366 -2 249 -2 c 256
 240 -2 230 -1 221 0 c 257
 221 122 l 257
26 700 m 257
 167 700 l 257
 167 0 l 257
 26 0 l 257
 26 700 l 257
EndSplineSet
Fore
SplineSet
241.636942675 152 m 1
 262.369426752 152 l 2
 369.784210788 152 384 194.48046875 384 212.5546875 c 0
 384 227.81640625 372.90623134 274 262.369426752 274 c 0
 241.636942675 274 l 1
 245.128812672 426 l 1
 266 426 l 0
 334.279083252 426 381.0625 454.259765625 381.0625 493.291992188 c 0
 381.0625 530.2265625 335.037841797 554.017578125 265.74609375 554.900390625 c 0
 245.128812672 555.13671875 l 1
 245.128812672 698.2421875 l 1
 264.139648438 699.883789062 l 0
 273.362304688 701.037109375 282.005859375 701 290 701 c 0
 482.080078125 701 544 571.10546875 544 507.267578125 c 0
 544 506.23046875 l 1
 543.088867188 425.81640625 515.3828125 379.685546875 483.555664062 351.856445312 c 1
 518.608398438 322.262695312 548 281.72265625 548 207.078125 c 0
 548 203.176757812 l 1
 546.920898438 88.3505859375 448.6953125 -2 301.070063694 -2 c 0
 287.130977558 -2 272.710023139 -0.923828125 260.080214968 0.091796875 c 0
 241.636942675 1.57421875 l 1
 241.636942675 152 l 1
26 0 m 1
 26 700 l 1
 210.404895929 700 l 1
 208.464968153 0 l 1
 26 0 l 1
EndSplineSet
EndChar

StartChar: C
Encoding: 67 67 9
GlifName: C_
Width: 554
VWidth: 0
GlyphClass: 2
Flags: W
HStem: 685 20G<173.878 275.433 304.019 375.45>
VStem: 32 176.732<164.979 534.075>
LayerCount: 2
Back
SplineSet
283 564 m 257
 283 705 l 257
 375 705 468 612 468 516 c 257
 330 480 l 257
 330 495 l 258
 330 509 330 520 325 532 c 256
 315 555 283 564 283 564 c 257
283 136 m 257
 283 136 315 143 325 166 c 256
 330 178 330 189 330 203 c 258
 330 215 l 257
 468 182 l 257
 468 76 375 -5 283 -5 c 257
 283 136 l 257
229 705 m 257
 229 564 l 257
 183 563 173 523 173 518 c 257
 173 181 l 257
 173 176 183 136 229 136 c 257
 229 -5 l 257
 86 -5 32 121 32 181 c 257
 32 518 l 257
 32 578 86 705 229 705 c 257
EndSplineSet
Fore
SplineSet
316.95701259 534.58203125 m 0
 304.01910828 537.69921875 l 1
 304.01910828 705 l 1
 321.885350318 705 l 0
 429.014648438 705 528 605.608398438 528 501 c 0
 528 489.411132812 l 1
 360 445.584960938 l 1
 360 480 l 0
 360 494.186523438 359.717350468 502.568359375 355.47179165 511.125 c 1
 348.121740645 525.317382812 316.95701259 534.58203125 316.95701259 534.58203125 c 0
304.01910828 163.002929688 m 1
 317.967804538 165.634765625 l 2
 318.103895054 165.66015625 348.368332006 173.159179688 355.47179165 186.875 c 1
 359.717350468 195.431640625 360 203.813476562 360 218 c 0
 360 249.009765625 l 1
 528 208.8359375 l 1
 528 197 l 0
 528 82.10546875 428.084960938 -5 321.885350318 -5 c 0
 304.01910828 -5 l 1
 304.01910828 163.002929688 l 1
257.566878981 705 m 0
 275.433121019 705 l 1
 275.433121019 541.2421875 l 1
 257.955376692 540.935546875 l 0
 219.469676801 540.26171875 210.000335888 515.973632812 208.732484076 510.571289062 c 1
 208.732484076 188.470703125 l 1
 210.184116242 182.2890625 220.222245721 159.067382812 257.566878981 159.067382812 c 0
 275.433121019 159.067382812 l 1
 275.433121019 -5 l 1
 257.566878981 -5 l 0
 90.2734375 -5 32 124.626953125 32 187.8515625 c 0
 32 511.189453125 l 0
 32 574.34375 90.189453125 705 257.566878981 705 c 0
EndSplineSet
EndChar

StartChar: D
Encoding: 68 68 11
GlifName: D_
Width: 542
VWidth: 0
GlyphClass: 2
Flags: HW
LayerCount: 2
Back
SplineSet
227 0 m 257xb8
 227 141 l 257
 233 141 282 149 283 197 c 258
 283 503 l 257
 283 508 275 558 227 559 c 257
 227 700 l 257
 370 700 424 566 424 503 c 257
 424 197 l 257
 424 50 287 0 227 0 c 257xb8
32 0 m 257
 32 700 l 257
 173 700 l 257
 173 0 l 257
 32 0 l 257
EndSplineSet
Fore
SplineSet
272 0 m 0
 257 0 l 1
 257 163.97265625 l 1
 271.819335938 163.97265625 l 1
 284.113495617 164.48828125 341.807760099 171.758789062 343 203.4375 c 1
 343 496.416015625 l 1
 341.763790968 503.526367188 328.253429878 535.375 271.6875 536.030273438 c 0
 257 536.32421875 l 1
 257 700 l 1
 272 700 l 0
 456.461914062 700 514 562.049804688 514 496.711914062 c 0
 514 203.288085938 l 0
 514 51.1435546875 366.767578125 0 272 0 c 0
219.666666667 0 m 1
 32 0 l 1
 32 700 l 1
 219.666666667 700 l 1
 219.666666667 0 l 1
EndSplineSet
EndChar

StartChar: E
Encoding: 69 69 12
GlifName: E_
Width: 452
VWidth: 0
GlyphClass: 2
Flags: W
HStem: 0 171<203 426> 262 171<203 332> 530 170<203 426>
VStem: 32 394<0 171 530 700> 32 171<171 262 433 530>
LayerCount: 2
Back
SplineSet
396 141 m 257xf0
 396 0 l 257
 32 0 l 257
 32 700 l 257
 396 700 l 257
 396 560 l 257xf0
 173 560 l 257
 173 418 l 257
 302 418 l 257
 302 277 l 257
 173 277 l 257
 173 141 l 257xe8
 396 141 l 257xf0
EndSplineSet
Fore
SplineSet
203 171 m 1xe8
 426 171 l 1
 426 0 l 1
 32 0 l 1
 32 700 l 1
 426 700 l 1
 426 530 l 1xf0
 203 530 l 1
 203 433 l 1
 332 433 l 1
 332 262 l 1
 203 262 l 1
 203 171 l 1xe8
EndSplineSet
EndChar

StartChar: EURO
Encoding: 256 8364 13
GlifName: E_U_R_O_
Width: 567
VWidth: 0
GlyphClass: 2
Flags: W
LayerCount: 2
Back
SplineSet
278 698 m 257
 278 558 l 257
 239 543 236 532 236 488 c 258
 236 436 l 257
 408 436 l 257
 408 376 l 257
 236 376 l 257
 236 317 l 257
 408 317 l 257
 408 258 l 257
 236 258 l 257
 236 202 l 258
 236 155 254 154 278 141 c 257
 278 2 l 257
 197 8 168 45 134 90 c 256
 113 118 101 149 99 182 c 258
 99 258 l 257
 50 258 l 257
 50 317 l 257
 99 317 l 257
 99 377 l 257
 50 377 l 257
 50 436 l 257
 99 436 l 257
 99 496 l 258
 99 540 106 576 134 613 c 256
 172 666 217 696 278 698 c 257
338 698 m 257
 387 697 426 675 464 636 c 256
 501 598 517 544 517 514 c 257
 380 463 l 257
 381 501 l 258
 381 535 366 549 338 558 c 257
 338 698 l 257
338 2 m 257
 338 142 l 257
 366 151 381 165 381 199 c 258
 380 237 l 257
 517 186 l 257
 517 156 501 102 464 64 c 256
 426 25 387 3 338 2 c 257
EndSplineSet
Fore
SplineSet
323 -13.3092458223 m 1
 323 152.934401253 l 1
 333.409862294 156.280428419 l 2
 357.600084164 164.055856878 366 171.576016106 366 198.802665738 c 2
 364.836912256 243 l 1
 251 243 l 1
 251 202 l 2
 251 161.851038204 258.652796623 168.538915242 285.144247228 154.189379498 c 2
 293 149.93418008 l 1
 293 -14.1522070785 l 1
 276.891924717 -12.9590163169 l 2
 190.400272769 -6.55222728363 156.181230723 35.7599793627 122.015957397 80.9787234711 c 0
 99.4331633089 111.089115588 86.21659435 144.972064403 84.0274725505 181.092574094 c 2
 84 181.545871178 l 1
 84 243 l 1
 35 243 l 1
 35 332 l 1
 84 332 l 1
 84 362 l 1
 35 362 l 1
 35 451 l 1
 84 451 l 1
 84 496 l 2
 84 541.515821992 91.8274206664 582.129322505 121.922224777 621.897456508 c 0
 161.450692069 677.029266153 211.202047676 710.817963386 277.508460848 712.991944145 c 2
 293 713.499863462 l 1
 293 547.698013526 l 1
 283.38468619 543.999815907 l 2
 249.256984208 530.873776683 251 530.471624313 251 488 c 2
 251 451 l 1
 364.679017519 451 l 1
 366 501.197334262 l 2
 366 528.422808008 357.599193564 535.944429387 333.409862294 543.719571581 c 2
 323 547.065598747 l 1
 323 713.309245822 l 1
 338.30605872 712.996877277 l 2
 392.114337652 711.898749135 435.162737246 687.090273733 474.747067822 646.464250247 c 0
 515.036904762 605.085498794 532 548.291828647 532 514 c 2
 532 503.578304978 l 1
 390.760239568 451 l 1
 423 451 l 1
 423 361 l 1
 251 361 l 1
 251 332 l 1
 423 332 l 1
 423 243 l 1
 406.877886627 243 l 1
 532 196.421695022 l 1
 532 186 l 2
 532 151.701708027 515.041359152 94.9190772733 474.743443822 53.5320290963 c 0
 435.163628067 12.9106392424 392.119471302 -11.8986443671 338.30605872 -12.996877277 c 2
 323 -13.3092458223 l 1
EndSplineSet
EndChar

StartChar: Eth
Encoding: 208 208 18
GlifName: E_th
Width: 591
VWidth: 0
GlyphClass: 2
Flags: HW
LayerCount: 2
Back
SplineSet
278 0 m 257
 278 141 l 257
 284 141 333 149 334 197 c 258
 334 503 l 258
 334 508 326 558 278 559 c 257
 278 700 l 257
 421 700 475 566 475 503 c 258
 475 197 l 258
 475 50 338 0 278 0 c 257
224 420 m 257
 280 420 l 257
 280 292 l 257
 224 292 l 257
 224 0 l 257
 83 0 l 257
 83 292 l 257
 26 292 l 257
 26 420 l 257
 83 420 l 257
 83 700 l 257
 224 700 l 257
 224 420 l 257
EndSplineSet
Fore
SplineSet
323 0 m 0
 308 0 l 1
 308 163.97265625 l 1
 322.819335938 163.97265625 l 1
 335.113495617 164.48828125 392.807760099 171.758789062 394 203.4375 c 1
 394 496.416015625 l 1
 392.763790968 503.526367188 379.253429878 535.375 322.6875 536.030273438 c 0
 308 536.32421875 l 1
 308 700 l 1
 323 700 l 0
 507.461914062 700 565 562.049804688 565 496.711914062 c 0
 565 203.288085938 l 0
 565 51.1435546875 417.767578125 0 323 0 c 0
270.666666667 700 m 1
 270.666666667 435 l 1
 352.43902439 435 l 1
 352.43902439 277 l 1
 270.666666667 277 l 1
 270.666666667 0 l 1
 83 0 l 1
 83 277 l 1
 26 277 l 1
 26 435 l 1
 83 435 l 1
 83 700 l 1
 270.666666667 700 l 1
EndSplineSet
EndChar

StartChar: F
Encoding: 70 70 19
GlifName: F_
Width: 482
VWidth: 0
GlyphClass: 2
Flags: HW
LayerCount: 2
Back
SplineSet
302 418 m 257xb8
 302 277 l 257
 173 277 l 257
 173 1 l 257
 32 1 l 257
 32 700 l 257
 396 700 l 257
 396 560 l 257
 173 560 l 257
 173 418 l 257
 302 418 l 257xb8
EndSplineSet
Fore
SplineSet
209.916692284 433 m 1
 362 433 l 1
 362 262 l 1
 209.916692284 262 l 1
 209.916692284 1 l 1
 32 1 l 1
 32 700 l 1
 456 700 l 1
 456 530 l 1
 209.916692284 530 l 1
 209.916692284 433 l 1
EndSplineSet
EndChar

StartChar: G
Encoding: 71 71 20
GlifName: G_
Width: 553
VWidth: 0
GlyphClass: 2
Flags: HW
LayerCount: 2
Back
SplineSet
276 564 m 257xf0
 276 705 l 257xf0
 369 705 461 612 461 516 c 257xe8
 323 465 l 257
 323 495 l 258
 323 509 323 520 318 532 c 256
 308 555 276 564 276 564 c 257xf0
461 353 m 257
 461 176 l 258
 461 95 358 -4 276 -5 c 257
 276 136 l 257xf0
 282 136 319 155 319 190 c 258
 319 223 l 257xe8
 276 223 l 257
 276 353 l 257
 461 353 l 257
222 -5 m 257
 162 -5 26 48 26 192 c 257
 26 524 l 257
 34 589 90 705 222 705 c 257
 222 564 l 257
 176 563 167 513 167 508 c 257
 167 192 l 258
 168 146 217 136 222 136 c 257
 222 -5 l 257
EndSplineSet
Fore
SplineSet
316.862304688 534.58203125 m 0
 306 537.69921875 l 1
 306 705 l 1
 321 705 l 0
 423.026367188 705 521 605.5390625 521 501 c 0
 521 490.551757812 l 1
 353 428.46484375 l 1
 353 480 l 0
 353 494.186523438 352.762695312 502.568359375 349.198242188 511.125 c 1
 343.02734375 525.317382812 316.862304688 534.58203125 316.862304688 534.58203125 c 0
306 383 m 1
 521 383 l 1
 521 191 l 0
 521 100.122070312 411.98046875 -3.8916015625 321.182617188 -4.9990234375 c 0
 306 -5.18359375 l 1
 306 166 l 1
 319.4921875 166 l 1
 328.303710938 169.439453125 349 184.564453125 349 205 c 0
 349 223 l 1
 306 223 l 1
 306 383 l 1
275.394495413 -5 m 1
 256.266055046 -5 l 2
 173.252858013 -5 26 49.1552734375 26 198.405273438 c 0
 26 517.828125 l 1
 26.1123046875 518.704101562 l 0
 34.6142578125 584.985351562 94.2939453125 705 256.266055046 705 c 0
 275.394495413 705 l 1
 275.394495413 543.321289062 l 1
 256.681998997 543.01953125 l 0
 217.443789421 542.385742188 206.39138654 510.858398438 205.256880734 503.807617188 c 1
 205.256880734 204.993164062 l 1
 206.102467388 176.098632812 246.998226061 167.07421875 256.892461654 166 c 1
 275.394495413 166 l 1
 275.394495413 -5 l 1
EndSplineSet
EndChar

StartChar: H
Encoding: 72 72 21
GlifName: H_
Width: 518
VWidth: 0
GlyphClass: 2
Flags: HW
LayerCount: 2
Back
SplineSet
202 421 m 257xb0
 202 283 l 257xb0
 173 283 l 257
 173 0 l 257
 32 0 l 257xa8
 32 700 l 257xb0
 173 700 l 257
 173 421 l 257xa8
 202 421 l 257xb0
285 700 m 257xa2
 426 700 l 257
 426 0 l 257
 285 0 l 257
 285 283 l 257xa2
 256 283 l 257
 256 421 l 257xa4
 285 421 l 257
 285 700 l 257xa2
EndSplineSet
Fore
SplineSet
203.555555556 432.465820312 m 1
 248.666666667 432.465820312 l 1
 248.666666667 271.370117188 l 1
 203.555555556 271.370117188 l 1
 203.555555556 0 l 1
 32 0 l 1
 32 700 l 1
 203.555555556 700 l 1
 203.555555556 432.465820312 l 1
315 432.465820312 m 1
 315 700 l 1
 486 700 l 1
 486 0 l 1
 315 0 l 1
 315 271.370117188 l 1
 286 271.370117188 l 1
 286 432.465820312 l 1
 315 432.465820312 l 1
EndSplineSet
EndChar

StartChar: HKD
Encoding: 257 22291 22
GlifName: H_K_D_
Width: 843
VWidth: 0
GlyphClass: 2
Flags: HW
LayerCount: 2
Back
SplineSet
101 614 m 257x62
 101 573 l 257x62
 92 573 l 257x52
 92 488 l 257
 50 488 l 257x92
 50 698 l 257xa2
 92 698 l 257x92
 92 614 l 257x52
 101 614 l 257x62
283 698 m 257x82
 325 698 l 257
 299 611 l 257
 326 488 l 257
 284 488 l 257
 257 611 l 257
 283 698 l 257x82
198 698 m 257
 241 698 l 257
 241 488 l 257
 198 488 l 257
 198 698 l 257
126 698 m 257x86
 169 698 l 257
 169 488 l 257
 126 488 l 257x86
 126 573 l 257x46
 117 573 l 257
 117 614 l 257x4a
 126 614 l 257x46
 126 698 l 257x86
EndSplineSet
Refer: 105 36 N 1 0 0 1 322 0 2
Fore
SplineSet
271.827244421 713 m 1
 345.13827282 713 l 1
 314.483493386 610.424391893 l 1
 344.649823314 473 l 1
 271.93554254 473 l 1
 256 545.59524935 l 1
 256 473 l 1
 184 473 l 1
 183 473 l 1
 111 473 l 1
 111 558 l 1
 107 558 l 1
 107 473 l 1
 35 473 l 1
 35 713 l 1
 107 713 l 1
 107 629 l 1
 111 629 l 1
 111 713 l 1
 183 713 l 1
 184 713 l 1
 256 713 l 1
 256 660.039605206 l 1
 271.827244421 713 l 1
EndSplineSet
Refer: 105 36 N 1 0 0 1 322 0 2
EndChar

StartChar: I
Encoding: 73 73 23
GlifName: I_
Width: 239
VWidth: 0
GlyphClass: 2
Flags: W
HStem: 0 21G<34 205> 680 20G<34 205>
VStem: 34 171<0 700>
LayerCount: 2
Back
SplineSet
34 700 m 257
 175 700 l 257
 175 0 l 257
 34 0 l 257
 34 700 l 257
EndSplineSet
Fore
SplineSet
34 0 m 1
 34 700 l 1
 205 700 l 1
 205 0 l 1
 34 0 l 1
EndSplineSet
EndChar

StartChar: J
Encoding: 74 74 28
GlifName: J_
Width: 555
VWidth: 0
GlyphClass: 2
Flags: HW
LayerCount: 2
Back
SplineSet
213 -5 m 257
 153 -5 26 54 26 193 c 257
 26 242 l 257
 167 242 l 257
 167 193 l 258
 168 147 208 137 213 137 c 257
 213 -5 l 257
267 -5 m 257
 267 137 l 257
 272 137 322 147 323 193 c 258
 323 700 l 257
 463 700 l 257
 463 193 l 257
 463 49 327 -5 267 -5 c 257
EndSplineSet
Fore
SplineSet
257.615384615 -5 m 1
 239.730769231 -5 l 2
 161.71484375 -5 26 58.3154296875 26 208 c 0
 26 272 l 1
 202.769230769 272 l 1
 202.769230769 208.163085938 l 1
 203.599421575 176.15234375 233.796011118 168.0625 240.499248798 167 c 1
 257.615384615 167 l 1
 257.615384615 -5 l 1
304.115384615 -5 m 0
 286.230769231 -5 l 1
 286.230769231 167 l 1
 303.546011118 167 l 1
 314.317533053 168.2265625 352.224534255 177.647460938 353 205.969726562 c 1
 353 700 l 1
 523 700 l 1
 523 199.305664062 l 0
 523 50.169921875 377.216796875 -5 304.115384615 -5 c 0
EndSplineSet
EndChar

StartChar: K
Encoding: 75 75 29
GlifName: K_
Width: 535
VWidth: 0
GlyphClass: 2
Flags: HW
LayerCount: 2
Back
SplineSet
314 700 m 257xb0
 453 700 l 257
 347 341 l 257
 457 0 l 257
 319 0 l 257
 207 341 l 257
 314 700 l 257xb0
26 700 m 257
 167 700 l 257
 167 0 l 257
 26 0 l 257
 26 700 l 257
EndSplineSet
Fore
SplineSet
213.830955899 341.161132812 m 1
 347.818359375 700 l 1
 518.069335938 700 l 1
 407.698242188 341.557617188 l 1
 522.599609375 -0 l 1
 353.138671875 0 l 1
 213.830955899 341.161132812 l 1
26 0 m 1
 26 700 l 1
 202.967443246 700 l 1
 202.764106926 0 l 1
 26 0 l 1
EndSplineSet
EndChar

StartChar: L
Encoding: 76 76 30
GlifName: L_
Width: 488
VWidth: 0
GlyphClass: 2
Flags: HW
LayerCount: 2
Back
SplineSet
402 139 m 257
 402 0 l 257
 26 0 l 257
 26 700 l 257
 167 700 l 257
 167 139 l 257
 402 139 l 257
EndSplineSet
Fore
SplineSet
203.332676611 169 m 1
 462 169 l 1
 462 0 l 1
 26 0 l 1
 26 700 l 1
 203.332676611 700 l 1
 203.332676611 169 l 1
EndSplineSet
EndChar

StartChar: Lslash
Encoding: 258 321 31
GlifName: L_slash
Width: 590
VWidth: 0
GlyphClass: 2
Flags: HW
LayerCount: 2
Back
SplineSet
348 553 m 257
 420 460 l 257
 270 343 l 257
 270 139 l 257
 505 139 l 257
 505 0 l 257
 129 0 l 257
 129 233 l 257
 98 209 l 257
 26 302 l 257
 129 382 l 257
 129 700 l 257
 270 700 l 257
 270 492 l 257
 348 553 l 257
EndSplineSet
Fore
SplineSet
313.325172921 518.052734375 m 1
 392.248526898 566.63671875 l 1
 492.0390625 456.141601562 l 1
 313.325172921 340.9609375 l 1
 313.325172921 169 l 1
 571.029296875 169 l 1
 571.029296875 0 l 1
 135.029296875 0 l 1
 135.029296875 208.482421875 l 1
 116.350585938 194.616210938 l 1
 26 306.5234375 l 1
 135.029296875 387.725585938 l 1
 135.029296875 700 l 1
 313.325172921 700 l 1
 313.325172921 518.052734375 l 1
EndSplineSet
EndChar

StartChar: M
Encoding: 77 77 32
GlifName: M_
Width: 766
VWidth: 0
GlyphClass: 2
Flags: HW
LayerCount: 2
Back
SplineSet
32 0 m 257xb8
 32 444 l 257
 41 444 l 257
 173 127 l 257
 173 0 l 257
 32 0 l 257xb8
32 700 m 257
 142 700 l 257
 333 237 l 257
 439 476 l 257
 449 476 l 257
 449 151 l 257
 382 0 l 257
 285 0 l 257
 32 608 l 257
 32 700 l 257
503 700 m 257
 644 700 l 257
 644 0 l 257
 503 0 l 257
 503 700 l 257
EndSplineSet
Fore
SplineSet
210.692628732 0 m 1
 32 0 l 1
 32 474 l 1
 66.001953125 474 l 1
 210.692628732 144.998046875 l 1
 210.692628732 0 l 1
32 594.524414062 m 1
 32 700 l 1
 167.038085938 700 l 1
 378.499023438 278.200195312 l 1
 468.996423273 485.205078125 l 1
 506.856899935 485.205078125 l 1
 531.51910101 156.129882812 l 1
 436.754882812 -0 l 1
 319.995117188 0 l 1
 32 594.524414062 l 1
563 0 m 1
 533 700 l 1
 704 700 l 1
 734 0 l 1
 563 0 l 1
EndSplineSet
EndChar

StartChar: N
Encoding: 78 78 33
GlifName: N_
Width: 569
VWidth: 0
GlyphClass: 2
Flags: W
HStem: 0 21G<32 206.694 432.685 537> 680 20G<32 184.437 366 537>
VStem: 32 174.694<0 297.281> 366 171<478.719 700>
LayerCount: 2
Back
SplineSet
32 0 m 257
 32 492 l 257
 40 492 l 257
 173 278 l 257
 173 0 l 257
 32 0 l 257
477 700 m 257
 477 284 l 257
 469 284 l 257
 336 498 l 257
 336 700 l 257
 477 700 l 257
32 700 m 257
 147 700 l 257
 477 168 l 257
 477 0 l 257
 410 0 l 257
 32 608 l 257
 32 700 l 257
EndSplineSet
Fore
SplineSet
206.69362473 0 m 1
 32 0 l 1
 32 522 l 1
 63.3388671875 522 l 1
 206.69362473 297.28125 l 1
 206.69362473 0 l 1
366 700 m 1
 537 700 l 1
 537 254 l 1
 505.661132812 254 l 1
 366 478.71875 l 1
 366 700 l 1
32 593.291015625 m 1
 32 700 l 1
 170.346679688 700 l 1
 537 179.578125 l 1
 537 0 l 1
 446.663085938 0 l 1
 32 593.291015625 l 1
EndSplineSet
EndChar

StartChar: O
Encoding: 79 79 35
GlifName: O_
Width: 568
VWidth: 0
GlyphClass: 2
Flags: W
HStem: -5 172<213.178 271.361 300.88 357.282> 543.035 161.965<220.062 272.542 300.88 358.337>
VStem: 30 176.422<180.926 533.051> 367 171<180.917 532.874>
LayerCount: 2
Back
SplineSet
226 -5 m 257
 166 -5 30 51 30 195 c 258
 30 524 l 258
 30 584 95 705 227 705 c 257
 227 564 l 257
 181 563 171 513 171 508 c 258
 171 195 l 258
 171 149 221 137 226 137 c 257
 226 -5 l 257
281 -5 m 257
 281 137 l 257
 286 137 336 149 337 195 c 258
 337 508 l 258
 337 513 327 563 281 564 c 257
 281 705 l 257
 412 705 478 583 478 524 c 258
 478 195 l 258
 478 51 341 -5 281 -5 c 257
EndSplineSet
Fore
SplineSet
271.361445783 -5 m 1
 253.65060241 -5 l 2
 176.343232304 -5 30 52.236328125 30 201.284179688 c 0
 30 516.946289062 l 0
 30 581.412109375 99.86328125 705 254.831325301 705 c 0
 272.542168675 705 l 1
 272.542168675 543.336914062 l 1
 255.216443901 543.03515625 l 0
 218.671686747 542.397460938 207.518237011 510.459960938 206.421686747 503.743164062 c 1
 206.421686747 207.728515625 l 0
 206.421686747 178.947265625 244.456184111 168.447265625 254.436982304 167 c 1
 271.361445783 167 l 1
 271.361445783 -5 l 1
318.590361446 -5 m 0
 300.879518072 -5 l 1
 300.879518072 167 l 1
 317.803981551 167 l 1
 328.786779932 168.583007812 366.232068901 179.526367188 367 207.8828125 c 1
 367 503.743164062 l 1
 365.753553276 511.381835938 354.269178276 542.40625 318.205242846 543.03515625 c 0
 300.879518072 543.336914062 l 1
 300.879518072 705 l 1
 318.590361446 705 l 0
 467.180664062 705 538 580.5234375 538 516.946289062 c 0
 538 201.284179688 l 0
 538 52.1640625 391.39453125 -5 318.590361446 -5 c 0
EndSplineSet
EndChar

StartChar: OE
Encoding: 259 338 36
GlifName: O_E_
Width: 814
VWidth: 0
GlyphClass: 2
Flags: HW
LayerCount: 2
Back
SplineSet
698 141 m 257
 698 0 l 257
 277 0 l 257
 277 142 l 257
 334 142 l 257
 334 559 l 257
 277 559 l 257
 277 700 l 257
 698 700 l 257
 698 560 l 257
 475 560 l 257
 475 418 l 257
 604 418 l 257
 604 277 l 257
 475 277 l 257
 475 141 l 257
 698 141 l 257
222 0 m 257
 162 0 26 56 26 200 c 258
 26 519 l 258
 26 579 91 700 223 700 c 257
 223 559 l 257
 177 558 167 508 167 503 c 258
 167 200 l 258
 167 154 217 142 222 142 c 257
 222 0 l 257
EndSplineSet
Fore
SplineSet
565 171 m 1
 788 171 l 1
 788 0 l 1
 316.146341463 0 l 1
 316.146341463 172 l 1
 394 172 l 1
 394 529 l 1
 315.888888889 529 l 1
 315.888888889 700 l 1
 788 700 l 1
 788 530 l 1
 565 530 l 1
 565 433 l 1
 694 433 l 1
 694 262 l 1
 565 262 l 1
 565 171 l 1
282 0 m 1
 267 0 l 2
 173.46484375 0 26 57.203125 26 206.1640625 c 0
 26 512.0546875 l 0
 26 576.483398438 95.86328125 700 268 700 c 0
 283 700 l 1
 283 538.499023438 l 1
 268.326171875 538.197265625 l 0
 224.434859155 537.560546875 210.997180348 505.654296875 209.676056338 498.944335938 c 1
 209.857142857 212.688476562 l 0
 209.857142857 183.935546875 255.875558036 173.446289062 267.666015625 172 c 1
 282 172 l 1
 282 0 l 1
EndSplineSet
EndChar

StartChar: Oslash
Encoding: 216 216 41
GlifName: O_slash
Width: 722
VWidth: 0
GlyphClass: 2
Flags: HW
LayerCount: 2
Back
SplineSet
584 658 m 257
 662 570 l 257
 556 474 l 257
 556 195 l 258
 556 51 419 -5 359 -5 c 257
 359 137 l 257
 364 137 414 149 415 195 c 258
 415 347 l 257
 249 197 l 257
 249 195 l 258
 249 149 299 137 304 137 c 257
 304 -5 l 257
 261 -5 178 24 135 94 c 257
 78 43 l 257
 0 131 l 257
 108 228 l 257
 108 524 l 258
 108 584 173 705 305 705 c 257
 305 564 l 257
 259 563 249 513 249 508 c 258
 249 356 l 257
 415 505 l 257
 415 508 l 258
 415 513 405 563 359 564 c 257
 359 705 l 257
 441 705 497 658 528 607 c 257
 584 658 l 257
EndSplineSet
Fore
SplineSet
579.314446378 618.540039062 m 1
 636.25 665.975585938 l 1
 734.178710938 559.971679688 l 1
 622.109375 462.58984375 l 1
 652.109375 201.284179688 l 0
 652.109375 52.1640625 475.504882812 -5 406.526194287 -5 c 0
 389.985731463 -5 l 1
 389.985731463 167 l 1
 405.792857361 167 l 1
 416.048805794 168.670898438 450.458984375 180.224609375 451.109375 210.163085938 c 1
 451.109375 328.229492188 l 1
 302.003606849 205.528320312 l 1
 305.473227371 178.2109375 338.039417261 168.405273438 346.612244379 167 c 1
 362.418293424 167 l 1
 362.418293424 -5 l 1
 345.8778306 -5 l 0
 295.916156567 -5 209.4696244 21.162109375 156.460456239 82.68359375 c 1
 97.880859375 35.0791015625 l 1
 0 141.032226562 l 1
 114.109375 239.364257812 l 1
 114.109375 516.946289062 l 0
 114.109375 581.412109375 183.973632812 705 333.07082617 705 c 0
 349.425029437 705 l 1
 349.425029437 534.322265625 l 1
 333.426444913 534.00390625 l 0
 299.6809945 533.331054688 289.381892403 499.612304688 288.36933724 492.520507812 c 1
 288.36933724 374.620117188 l 1
 435.868066862 496.049804688 l 1
 432.119163886 509.831054688 420.345415206 533.430664062 391.591403915 534.00390625 c 0
 375.591754664 534.322265625 l 1
 375.591754664 705 l 1
 391.945957931 705 l 0
 479.43775123 705 541.916983126 664.314453125 579.314446378 618.540039062 c 1
EndSplineSet
EndChar

StartChar: P
Encoding: 80 80 43
GlifName: P_
Width: 564
VWidth: 0
GlyphClass: 2
Flags: HW
LayerCount: 2
Back
SplineSet
221 457 m 257x3c
 254 457 l 258
 261 457 305 458 305 508 c 256
 305 559 263 561 254 561 c 258
 221 561 l 257
 221 700 l 257
 402 700 448 626 448 512 c 256
 448 369 378 318 221 318 c 257
 221 457 l 257x3c
26 700 m 257
 167 700 l 257
 167 0 l 257
 26 0 l 257xbc
 26 700 l 257
EndSplineSet
Fore
SplineSet
251 303 m 1
 251 472 l 1
 313.347826087 472 l 0
 323.342263927 472 365 471.74609375 365 500.703125 c 0
 365 531.075195312 324.938179348 531 313.347826087 531 c 0
 251 531 l 1
 251 700 l 1
 266 700 l 0
 483.198242188 700 538 620.975585938 538 504.390625 c 0
 538 358.220703125 457.387695312 303 266 303 c 0
 251 303 l 1
26 0 m 1
 26 700 l 1
 213.666666667 700 l 1
 213.666666667 0 l 1
 26 0 l 1
EndSplineSet
EndChar

StartChar: Percent_sign
Encoding: 37 37 44
GlifName: P_ercent_sign
Width: 689
VWidth: 0
GlyphClass: 2
Flags: HW
LayerCount: 2
Back
SplineSet
160 -23 m 257
 335 716 l 257
 461 716 l 257
 287 -23 l 257
 160 -23 l 257
26 575 m 256
 26 635 74 683 134 683 c 256
 194 683 242 635 242 575 c 256
 242 515 194 467 134 467 c 256
 74 467 26 515 26 575 c 256
387 117 m 256
 387 177 435 225 495 225 c 256
 555 225 603 177 603 117 c 256
 603 57 555 9 495 9 c 256
 435 9 387 57 387 117 c 256
EndSplineSet
Fore
SplineSet
334.66550692 -23 m 1
 156.934412993 -23 l 1
 353.855032427 716 l 1
 523.681922964 716 l 1
 334.66550692 -23 l 1
149.009965674 452 m 0
 80.7529296875 452 26 506.75 26 575 c 0
 26 643.247070312 80.75 698 149.009965674 698 c 0
 222.924769652 698 282.224781309 643.25 282.224781309 575 c 0
 282.224781309 506.752929688 222.927942642 452 149.009965674 452 c 0
540 -6 m 0
 471.752929688 -6 417 48.75 417 117 c 0
 417 185.247070312 471.75 240 540 240 c 0
 608.247070312 240 663 185.25 663 117 c 0
 663 48.7529296875 608.25 -6 540 -6 c 0
EndSplineSet
EndChar

StartChar: Q
Encoding: 81 81 45
GlifName: Q_
Width: 560
VWidth: 0
GlyphClass: 2
Flags: HW
LayerCount: 2
Back
SplineSet
222 -5 m 257
 162 -5 26 51 26 195 c 258
 26 524 l 258
 26 584 91 705 223 705 c 257
 223 564 l 257
 177 563 167 513 167 508 c 258
 167 195 l 258
 167 149 217 137 222 137 c 257
 222 -5 l 257
405 47 m 257
 460 -32 l 257
 348 -107 l 257
 277 -5 l 257
 277 137 l 257
 282 137 332 149 333 195 c 258
 333 508 l 258
 333 513 323 563 277 564 c 257
 277 705 l 257
 408 705 474 583 474 524 c 258
 474 195 l 258
 474 127 444 79 405 47 c 257
EndSplineSet
Fore
SplineSet
267.361445783 -5 m 1
 249.65060241 -5 l 2
 172.343232304 -5 26 52.236328125 26 201.284179688 c 0
 26 516.946289062 l 0
 26 581.412109375 95.86328125 705 250.831325301 705 c 0
 268.542168675 705 l 1
 268.542168675 541.2421875 l 1
 251.216443901 540.935546875 l 0
 214.671686747 540.290039062 203.518237011 507.938476562 202.421686747 501.134765625 c 1
 202.421686747 201.284179688 l 0
 202.421686747 172.12890625 240.456184111 161.493164062 250.436982304 160.02734375 c 1
 267.361445783 160.02734375 l 1
 267.361445783 -5 l 1
534 200.833984375 m 0
 534 136.813476562 506.556640625 89.330078125 469.982421875 56.35546875 c 1
 526.037109375 -20.96484375 l 1
 389.10546875 -112.66015625 l 1
 296.879518072 5.29296875 l 1
 296.879518072 160.3515625 l 1
 313.803981551 160.3515625 l 1
 324.786779932 161.954101562 362.232068901 173.033203125 363 201.740234375 c 1
 363 501.255859375 l 1
 361.753553276 508.989257812 350.269178276 540.396484375 314.205242846 541.033203125 c 0
 296.879518072 541.33984375 l 1
 296.879518072 705 l 1
 314.590361446 705 l 0
 463.180664062 705 534 580.412109375 534 516.778320312 c 0
 534 200.833984375 l 0
EndSplineSet
EndChar

StartChar: R
Encoding: 82 82 46
GlifName: R_
Width: 585
VWidth: 0
GlyphClass: 2
Flags: HW
LayerCount: 2
Back
SplineSet
227 411 m 257xbc
 240 411 l 258
 300 411 326 447 326 488 c 256
 326 536 289 567 240 567 c 258
 227 567 l 257
 227 700 l 257
 377 700 453 616 453 496 c 256
 453 428 432 381 386 352 c 257
 422 325 448 266 452 217 c 258
 469 0 l 257
 343 0 l 257
 328 178 l 258
 321 257 298 285 227 286 c 257
 227 411 l 257xbc
32 700 m 257
 173 700 l 257
 173 0 l 257
 32 0 l 257
 32 700 l 257
EndSplineSet
Fore
SplineSet
248.176470588 276.474609375 m 1
 257 426 l 1
 289.642857143 426 l 0
 360.743094308 426 386 451.140625 386 480.619140625 c 0
 386 514.752929688 347.290945871 537 289.642857143 537 c 0
 257 537 l 1
 257 700 l 1
 272 700 l 0
 458.887695312 700 543 612.817382812 543 490 c 0
 543 429.088867188 524.514648438 381.770507812 484.930664062 350.712890625 c 1
 518.073242188 317.426757812 538.17578125 267.971679688 541.952148438 223.612304688 c 1
 560.220703125 -0 l 1
 404.2109375 0 l 1
 388.055664062 185.1875 l 1
 379.600700827 257.708984375 357.258214614 275.409179688 268.765165441 276.2734375 c 0
 248.176470588 276.474609375 l 1
32 0 m 1
 32 700 l 1
 219.666666667 700 l 1
 214.764705882 0 l 1
 32 0 l 1
EndSplineSet
EndChar

StartChar: S
Encoding: 83 83 47
GlifName: S_
Width: 587
VWidth: 0
GlyphClass: 2
Flags: W
HStem: 680.297 19.7031G<260.899 276.194 331.194 404.585>
VStem: 393.194 171<161.241 243.81>
LayerCount: 2
Back
SplineSet
216 700 m 257
 216 568 l 257
 195 562 175 537 175 513 c 256
 175 446 279 434 346 394 c 256
 407 358 474 311 474 209 c 256
 474 96 379 -3 271 -3 c 257
 271 127 l 257
 295 130 333 150 333 203 c 256
 333 278 224 294 164 323 c 256
 93 357 41 403 41 508 c 256
 41 647 165 699 216 700 c 257
271 700 m 257
 377 700 440 589 446 553 c 257
 316 510 l 257
 311 557 271 568 271 568 c 257
 271 700 l 257
216 -3 m 257
 107 -3 34 103 33 158 c 257
 160 203 l 257
 162 147 216 127 216 127 c 257
 216 -3 l 257
EndSplineSet
Fore
SplineSet
260.899414062 699.997070312 m 0
 276.194335938 700.296875 l 1
 276.194335938 548.174804688 l 1
 265.314453125 545.193359375 l 0
 246.048859363 541.334960938 221.398979462 522.393554688 221.398979462 506.276367188 c 0
 221.398979462 456.690429688 352.583984375 448.184570312 428.850585938 404.515625 c 1
 490.153320312 369.817382812 564.194335938 320.381835938 564.194335938 214.712890625 c 0
 564.194335938 98.724609375 463.2421875 -3 346.194335938 -3 c 0
 331.194335938 -3 l 1
 331.194335938 148.765625 l 1
 344.333007812 150.340820312 l 0
 363.014648438 152.580078125 393.194335938 166.768554688 393.194335938 208.955078125 c 0
 393.194335938 266.256835938 270.956054688 279.435546875 172.690429688 311.080078125 c 1
 99.1796875 344.841796875 41.1943359375 394.458007812 41.1943359375 501.471679688 c 0
 41.1943359375 645.071289062 174.053710938 698.927734375 260.899414062 699.997070312 c 0
331.194335938 700 m 1
 346.194335938 700 l 2
 462.975585938 700 529.100585938 581.80078125 535.990234375 540.465820312 c 0
 538.1015625 527.79296875 l 1
 378.24609375 474.91796875 l 1
 376.278320312 493.413085938 l 0
 372.448242188 529.41015625 343.104492188 538.264648438 342.100585938 538.569335938 c 1
 331.194335938 541.643554688 l 1
 331.194335938 700 l 1
276.194335938 -3 m 1
 261.194335938 -3 l 2
 112.788085938 -3 34.3515625 109.205078125 33.1962890625 172.727539062 c 0
 33 183.530273438 l 1
 197.21280423 238.966796875 l 1
 198.333799012 218.53515625 l 0
 200.770874682 174.129882812 265.127929688 156.557617188 266.462890625 156.043945312 c 0
 276.194335938 152.393554688 l 1
 276.194335938 -3 l 1
EndSplineSet
EndChar

StartChar: T
Encoding: 84 84 49
GlifName: T_
Width: 575
VWidth: 0
GlyphClass: 2
Flags: HW
LayerCount: 2
Back
SplineSet
459 700 m 257xb0
 459 562 l 257
 313 562 l 257
 313 0 l 257
 172 0 l 257
 172 562 l 257
 26 562 l 257
 26 700 l 257
 459 700 l 257xb0
EndSplineSet
Fore
SplineSet
26 700 m 1
 549 700 l 1
 549 532 l 1
 389.942771084 532 l 1
 389.942771084 0 l 1
 202 0 l 1
 202 532 l 1
 26 532 l 1
 26 700 l 1
EndSplineSet
EndChar

StartChar: Thorn
Encoding: 222 222 50
GlifName: T_horn
Width: 534
VWidth: 0
GlyphClass: 2
Flags: HW
LayerCount: 2
Back
SplineSet
221 347 m 257x3e
 254 347 l 258
 261 347 305 348 305 398 c 256
 305 449 263 451 254 451 c 258
 221 451 l 257
 221 590 l 257
 402 590 448 516 448 402 c 256
 448 259 378 208 221 208 c 257
 221 347 l 257x3e
26 700 m 257
 167 700 l 257
 167 0 l 257
 26 0 l 257xbe
 26 700 l 257
EndSplineSet
Fore
SplineSet
232.739130435 193 m 1
 232.739130435 362 l 1
 291.173913043 362 l 0
 299.65404212 362 335 361.681640625 335 398 c 0
 335 436.094726562 301.008152174 436 291.173913043 436 c 0
 232.739130435 436 l 1
 232.739130435 605 l 1
 251 605 l 0
 453.198242188 605 508 522.989257812 508 402 c 0
 508 250.307617188 427.387695312 193 251 193 c 0
 232.739130435 193 l 1
26 0 m 1
 26 700 l 1
 203.52173913 700 l 1
 203.52173913 0 l 1
 26 0 l 1
EndSplineSet
EndChar

StartChar: TradeMarkSign
Encoding: 261 8482 51
GlifName: T_radeM_arkS_ign
Width: 403
VWidth: 0
GlyphClass: 2
Flags: W
LayerCount: 2
Back
SplineSet
188 484 m 257
 188 628 l 257
 191 628 l 257
 236 522 l 257
 236 484 l 257
 188 484 l 257
188 700 m 257
 225 700 l 257
 281 564 l 257
 313 636 l 257
 317 636 l 257
 317 529 l 257
 298 484 l 257
 265 484 l 257
 188 669 l 257
 188 700 l 257
330 700 m 257
 377 700 l 257
 377 484 l 257
 330 484 l 257
 330 700 l 257
165 700 m 257
 165 653 l 257
 120 653 l 257
 120 484 l 257
 72 484 l 257
 72 653 l 257
 26 653 l 257
 26 700 l 257
 165 700 l 257
EndSplineSet
Fore
SplineSet
315 715 m 1
 392 715 l 1
 392 469 l 1
 315 469 l 1
 315 485.6999745 l 1
 307.948899656 469 l 1
 254.995840799 469 l 1
 251 478.600396724 l 1
 251 469 l 1
 173 469 l 1
 173 638 l 1
 135 638 l 1
 135 469 l 1
 57 469 l 1
 57 638 l 1
 11 638 l 1
 11 715 l 1
 173 715 l 1
 180 715 l 1
 235.045390863 715 l 1
 281.526385568 602.117584286 l 1
 303.251903664 651 l 1
 315 651 l 1
 315 715 l 1
180 649.184812309 m 1
 180 643 l 1
 182.574219177 643 l 1
 180 649.184812309 l 1
EndSplineSet
EndChar

StartChar: U
Encoding: 85 85 52
GlifName: U_
Width: 572
VWidth: 0
GlyphClass: 2
Flags: W
HStem: -5 172<216.408 274.542 302.88 359.467> 680 20G<32 208.422 369 539>
VStem: 32 176.422<178.939 700> 369 170<178.831 700>
LayerCount: 2
Back
SplineSet
229 -5 m 257
 169 -5 32 49 32 193 c 258
 32 700 l 257
 173 700 l 257
 173 193 l 257
 174 147 224 137 229 137 c 257
 229 -5 l 257
283 -5 m 257
 283 137 l 257
 288 137 338 147 339 193 c 257
 339 700 l 257
 479 700 l 257
 479 193 l 258
 479 48 344 -5 283 -5 c 257
EndSplineSet
Fore
SplineSet
274.542168675 -5 m 1
 256.831325301 -5 l 2
 179.902155497 -5 32 50.0908203125 32 199.305664062 c 0
 32 700 l 1
 208.421686747 700 l 1
 208.421686747 205.969726562 l 1
 209.199995294 177.267578125 247.894037086 168.092773438 257.395166604 167 c 1
 274.542168675 167 l 1
 274.542168675 -5 l 1
320.590361446 -5 m 0
 302.879518072 -5 l 1
 302.879518072 167 l 1
 320.026520143 167 l 1
 330.693382907 168.2265625 368.232068901 177.647460938 369 205.969726562 c 1
 369 700 l 1
 539 700 l 1
 539 199.305664062 l 0
 539 49.25 394.14453125 -5 320.590361446 -5 c 0
EndSplineSet
EndChar

StartChar: V
Encoding: 86 86 57
GlifName: V_
Width: 568
VWidth: 0
GlyphClass: 2
Flags: HW
LayerCount: 2
Back
SplineSet
26 700 m 257xa0
 170 700 l 257
 329 158 l 257
 276 0 l 257
 229 0 l 257
 26 700 l 257xa0
482 700 m 257
 442 569 401 430 359 290 c 257
 349 290 l 257
 283 514 l 257
 338 700 l 257
 482 700 l 257
EndSplineSet
Fore
SplineSet
245.222787644 0 m 1
 26 700 l 1
 201.200195312 700 l 1
 394.688476562 165.6015625 l 1
 328.513070626 0 l 1
 245.222787644 0 l 1
552.231445312 700 m 1
 546.314453125 680.619140625 l 2
 506.34375 549.71484375 465.348632812 410.733398438 423.334960938 270.689453125 c 0
 420.12890625 260 l 1
 387.75 260 l 1
 305.07895523 499.0078125 l 1
 376.76171875 700 l 1
 552.231445312 700 l 1
EndSplineSet
EndChar

StartChar: W
Encoding: 87 87 58
GlifName: W_
Width: 815
VWidth: 0
GlyphClass: 2
Flags: HW
LayerCount: 2
Back
SplineSet
26 700 m 257xa0
 170 700 l 257
 328 158 l 257
 276 0 l 257
 229 0 l 257
 26 700 l 257xa0
239 700 m 257
 383 700 l 257
 541 158 l 257
 489 0 l 257
 442 0 l 257
 239 700 l 257
699 700 m 257
 576 290 l 257
 566 290 l 257
 500 514 l 257
 555 700 l 257
 699 700 l 257
EndSplineSet
Fore
SplineSet
237.700195312 0 m 1
 26 700 l 1
 201.219726562 700 l 1
 375.524288786 165.631835938 l 1
 306.823242188 -0 l 1
 237.700195312 0 l 1
480.700195312 0 m 1
 269 700 l 1
 444.219726562 700 l 1
 606.670898438 165.631835938 l 1
 549.823242188 -0 l 1
 480.700195312 0 l 1
623.76171875 700 m 1
 799.12890625 700 l 1
 637.12890625 260 l 1
 604.75 260 l 1
 552.405000355 499.0078125 l 1
 623.76171875 700 l 1
EndSplineSet
EndChar

StartChar: X
Encoding: 88 88 59
GlifName: X_
Width: 524
VWidth: 0
GlyphClass: 2
Flags: HW
LayerCount: 2
Back
SplineSet
426 700 m 257xa0
 302 361 l 257
 438 0 l 257
 293 0 l 257
 232 167 l 257
 171 0 l 257
 26 0 l 257
 162 361 l 257
 38 700 l 257
 175 700 l 257
 232 548 l 257
 289 700 l 257
 426 700 l 257xa0
EndSplineSet
Fore
SplineSet
330.28515625 700 m 1
 499.138671875 700 l 1
 369.680664062 360.622070312 l 1
 511.360351562 0 l 1
 334.189453125 0 l 1
 268.679542493 138.280273438 l 1
 203.170898438 0 l 1
 26 0 l 1
 167.6796875 360.622070312 l 1
 38.2216796875 700 l 1
 207.075195312 700 l 1
 268.679530345 575.719726562 l 1
 330.28515625 700 l 1
EndSplineSet
EndChar

StartChar: Y
Encoding: 89 89 60
GlifName: Y_
Width: 539
VWidth: 0
GlyphClass: 2
Flags: W
HStem: 0 21G<162.015 368.015> 680 20G<26 211.7 339.415 523.086>
VStem: 162.015 206<0 259.035>
LayerCount: 2
Back
SplineSet
26 700 m 257
 173 700 l 257
 303 253 l 257
 303 0 l 257
 157 0 l 257
 157 252 l 257
 26 700 l 257
269 565 m 257
 308 700 l 257
 453 700 l 257
 344 331 l 257
 335 331 l 257
 269 565 l 257
EndSplineSet
Fore
SplineSet
162.014648438 253.967773438 m 1
 26 700 l 1
 204.2734375 700 l 1
 368.014648438 259.03515625 l 1
 368.014648438 0 l 1
 162.014648438 0 l 1
 162.014648438 253.967773438 l 1
373.66015625 301 m 1
 291.859203703 550.048828125 l 1
 346.734375 700 l 1
 523.0859375 700 l 1
 405.224609375 301 l 1
 373.66015625 301 l 1
EndSplineSet
EndChar

StartChar: Z
Encoding: 90 90 63
GlifName: Z_
Width: 448
VWidth: 0
GlyphClass: 2
Flags: W
HStem: 0 174<221.297 422> 530 170<26 226.703>
VStem: 26 396<0 151.001 552.845 700>
LayerCount: 2
Back
SplineSet
182 144 m 257
 392 144 l 257
 392 0 l 257
 26 0 l 257
 26 141 l 257
 236 560 l 257
 26 560 l 257
 26 700 l 257
 392 700 l 257
 392 563 l 257
 182 144 l 257
EndSplineSet
Fore
SplineSet
422 552.844726562 m 1
 221.296875 174 l 1
 422 174 l 1
 422 0 l 1
 26 0 l 1
 26 151.000976562 l 1
 226.703125 530 l 1
 26 530 l 1
 26 700 l 1
 422 700 l 1
 422 552.844726562 l 1
EndSplineSet
EndChar

StartChar: a
Encoding: 97 97 65
GlifName: a
Width: 585
VWidth: 0
GlyphClass: 2
Flags: W
HStem: 1 142<172.77 240 289 355.945 527.809 560> 389.679 129.321<286.421 356.628>
VStem: 26 214<68.1842 143 377 432.927> 358 169.684<147.813 218.155 334.063 380.993>
LayerCount: 2
Back
SplineSet
228 519 m 257
 231 519 l 258
 334 519 384 424 384 380 c 258
 384 143 l 258
 384 138 386 114 407 114 c 258
 410 114 l 257
 410 1 l 257
 407 1 l 258
 370 1 341 13 321 30 c 257
 298 12 268 1 232 1 c 258
 229 1 l 257
 229 113 l 257
 232 113 l 258
 262 114 268 146 268 149 c 258
 268 227 l 257
 230 205 153 190 139 183 c 256
 133 180 127 173 127 162 c 258
 127 149 l 258
 127 129 137 113 163 113 c 258
 180 113 l 257
 180 1 l 257
 83 1 26 64 26 121 c 258
 26 167 l 258
 26 200 33 233 75 257 c 256
 118 282 268 311 268 351 c 256
 268 355 268 359 268 363 c 256
 268 387 266 404 231 407 c 256
 228 408 l 257
 228 519 l 257
181 407 m 257
 178 407 l 258
 155 405 138 390 138 353 c 258
 138 349 l 257
 33 389 l 257
 33 391 l 258
 33 462 110 519 178 519 c 258
 181 519 l 257
 181 407 l 257
EndSplineSet
Fore
SplineSet
286.421052632 389.678710938 m 1
 286.421052632 519 l 1
 306 519 l 0
 449.158203125 519 527.684210526 423.875976562 527.684210526 376.407226562 c 0
 527.684210526 156.962890625 l 0
 527.684210526 151.331054688 532.507401316 144 542 144 c 0
 560 144 l 1
 560 1 l 1
 542 1 l 0
 479.055612664 1 447.313476562 11.388671875 425.6953125 26.318359375 c 1
 401.036132812 10.119140625 371.40234375 1 307 1 c 0
 289 1 l 1
 289 143 l 1
 306.75 143 l 1
 342.245117188 143.4921875 355.4765625 158.958984375 358 164.71875 c 1
 358 218.155273438 l 1
 281.220343339 200.850585938 185.922162224 188.171875 175.57918773 184.583984375 c 0
 173.628532858 183.907226562 170.235294118 182.096679688 170.235294118 177 c 0
 170.235294118 164 l 0
 170.235294118 149.87109375 175.739631204 143 200.5 143 c 0
 240 143 l 1
 240 1 l 1
 225 1 l 0
 91.7021484375 1 26 65.09375 26 128.609375 c 0
 26 172.090820312 l 0
 26 205.504882812 34.7880859375 243.672851562 82.5087890625 269.448242188 c 1
 141.642578125 299.482421875 358 325.919921875 358 346.018554688 c 0
 358 357.361328125 l 0
 358 378.686523438 359.35546875 382.829101562 304.71875 384.825195312 c 0
 302.9453125 384.96875 l 1
 286.421052632 389.678710938 l 1
242.578947368 519 m 1
 242.578947368 377 l 1
 223.125344669 377 l 1
 202.098805147 375.532226562 186.088235294 369.115234375 186.088235294 338 c 0
 186.088235294 312.234375 l 1
 33 363.663085938 l 1
 33 376 l 0
 33 457.974609375 118.649414062 519 222.117647059 519 c 0
 242.578947368 519 l 1
EndSplineSet
EndChar

StartChar: acute
Encoding: 180 180 68
GlifName: acute
Width: 263
VWidth: 0
GlyphClass: 2
Flags: W
LayerCount: 2
Back
SplineSet
141 605 m 257
 50 605 l 257
 87 757 l 257
 214 757 l 257
 141 605 l 257
EndSplineSet
Fore
SplineSet
150.43627071 590 m 1
 30.9106756928 590 l 1
 75.2133072717 772 l 1
 237.844165447 772 l 1
 150.43627071 590 l 1
EndSplineSet
EndChar

StartChar: ae
Encoding: 230 230 70
GlifName: ae
Width: 816
VWidth: 0
GlyphClass: 2
Flags: HW
LayerCount: 2
Back
SplineSet
482 402 m 258
 478 402 l 257
 478 516 l 257
 484 516 l 258
 554 516 639 450 639 378 c 258
 639 208 l 257
 384 208 l 257
 384 143 l 258
 384 121 400 109 425 108 c 258
 484 108 l 258
 517 108 536 134 541 157 c 257
 640 120 l 257
 624 55 555 0 484 0 c 258
 425 0 l 258
 380 0 345 9 321 30 c 257
 298 12 268 1 232 1 c 258
 229 1 l 257
 229 113 l 257
 232 113 l 258
 262 114 268 146 268 149 c 258
 268 227 l 257
 230 205 153 190 139 183 c 256
 133 180 127 173 127 162 c 258
 127 149 l 258
 127 129 137 113 163 113 c 258
 180 113 l 257
 180 1 l 257
 83 1 26 53 26 110 c 258
 26 180 l 258
 26 213 33 233 75 257 c 256
 118 282 268 311 268 351 c 258
 268 363 l 258
 268 387 266 407 231 407 c 258
 178 407 l 258
 155 407 138 390 138 353 c 258
 138 349 l 257
 33 389 l 257
 33 391 l 258
 33 462 110 519 178 519 c 258
 233 519 l 258
 273 519 305 504 329 483 c 257
 353 502 385 516 424 516 c 258
 429 516 l 257
 429 400 l 257
 426 400 l 258
 400 400 387 385 384 373 c 258
 384 324 l 257
 525 324 l 257
 525 369 l 258
 525 396 502 402 482 402 c 258
EndSplineSet
Fore
SplineSet
555 359.625 m 0
 555 369.21875 544.15735123 372 521.042553191 372 c 2
 498 372 l 1
 498 516 l 1
 523.468085106 516 l 0
 605.876953125 516 699 449.137695312 699 369.790039062 c 0
 789 193 l 1
 520.071428571 193 l 1
 520.071428571 146.60546875 l 0
 520.071428571 135.28125 529.73563058 129.032226562 560.265625 128.047851562 c 1
 619 128.047851562 l 0
 642.823242188 128.047851562 657.31640625 145.3671875 661.342773438 162.552734375 c 0
 665.022460938 178.26171875 l 1
 792.755859375 133.965820312 l 1
 789.565429688 121.9375 l 0
 771.801757812 54.978515625 697.16796875 0 619 0 c 0
 560 0 l 0
 495.60648019 0 452.450195312 7.7451171875 425.626953125 26.2734375 c 1
 401.110351562 10.16796875 371.369140625 1 307 1 c 0
 289 1 l 1
 289 143 l 1
 306.75 143 l 1
 342.245117188 143.4921875 355.4765625 158.958984375 358 164.71875 c 1
 358 218.155273438 l 1
 281.220343339 200.850585938 185.922162224 188.171875 175.57918773 184.583984375 c 0
 173.628532858 183.907226562 170.235294118 182.096679688 170.235294118 177 c 0
 170.235294118 164 l 0
 170.235294118 149.87109375 175.739631204 143 200.5 143 c 0
 240 143 l 1
 240 1 l 1
 225 1 l 0
 93.455078125 1 26 53.5 26 118.211914062 c 0
 26 184.379882812 l 0
 26 219.005859375 37.1982421875 244.973632812 82.5087890625 269.448242188 c 1
 137.16015625 299.482421875 268 325.919921875 268 346.018554688 c 0
 268 357.361328125 l 0
 268 379.60546875 269.731445312 384.7734375 246 384.7734375 c 0
 193 384.7734375 l 0
 180.080078125 384.7734375 168 378.377929688 168 347.909179688 c 0
 168 323.553710938 l 1
 33 372.166992188 l 1
 33 383.828125 l 0
 33 461.315429688 118.649414062 519 193 519 c 0
 248 519 l 0
 286.979492188 519 319.708007812 505.497070312 344.458984375 486.952148438 c 1
 370.224609375 504.440429688 405.134578624 516 450.70212766 516 c 0
 474.957446809 516 l 1
 474.957446809 370 l 1
 453.127659574 370 l 0
 431.129695811 370 423.056038065 364.061523438 420.382978723 360.41796875 c 1
 420.382978723 339 l 1
 555 339 l 1
 555 359.625 l 0
EndSplineSet
EndChar

StartChar: ampersand
Encoding: 38 38 72
GlifName: ampersand
Width: 687
VWidth: 0
GlyphClass: 2
Flags: W
LayerCount: 2
Back
SplineSet
257 578 m 257xb0
 257 578 231 569 231 536 c 256xb0
 231 501 251 495 257 489 c 257
 257 269 l 257
 233 297 l 257
 208 275 183 251 183 204 c 256
 183 160 210 135 257 135 c 257
 257 3 l 257
 107 3 26 93 26 214 c 256xd0
 26 306 81 370 151 404 c 257
 124 424 94 486 94 528 c 256
 94 621 153 681 257 702 c 257
 257 578 l 257xb0
317 700 m 257
 424 681 477 618 477 520 c 256
 477 445 417 383 363 361 c 257
 431 280 l 257
 443 299 451 320 455 345 c 257
 594 345 l 257
 584 274 559 227 520 180 c 257
 661 16 l 257
 464 16 l 257
 417 72 l 257
 393 50 352 26 317 16 c 257
 317 168 l 257
 324 173 325 174 332 180 c 257
 317 198 l 257
 317 486 l 257
 328 495 344 504 344 533 c 256
 344 557 340 570 317 582 c 257
 317 700 l 257
EndSplineSet
Fore
SplineSet
262.109838898 563.897033175 m 2
 260.433841923 563.21460985 246 557.366033881 246 536 c 0
 246 507.493585152 256.365598481 510.847604954 267.606601718 499.606601718 c 0
 272 495.213203436 l 1
 272 228.451138857 l 1
 231.646866389 275.529794737 l 1
 211.508939082 256.289119794 198 238.361206525 198 204 c 0
 198 168.240910948 216.522810408 150 257 150 c 0
 272 150 l 1
 272 -12 l 1
 257 -12 l 0
 99.8298204573 -12 11 84.8886507371 11 214 c 0
 11 304.432874847 61.179475637 369.678279006 125.881669424 407.604018817 c 1
 100.200846313 438.587606826 79 487.936817948 79 528 c 0
 79 629.12406793 145.368053369 694.761675733 254.031075041 716.703247416 c 0
 272 720.331588033 l 1
 272 567.432629915 l 1
 262.109838898 563.897033175 l 2
319.622526656 714.768965906 m 2
 432.461683958 694.732106198 492 624.94743609 492 520 c 0
 492 444.939450495 438.439350389 384.175526109 386.920281775 355.83594973 c 1
 428.289045338 306.558451956 l 1
 434.346418405 320.261906426 437.724212109 331.968742442 440.188390521 347.369857517 c 0
 442.209213319 360 l 1
 611.26072544 360 l 1
 608.853397577 342.907972172 l 0
 599.176684632 274.203310265 574.610263655 224.907434738 539.529201925 180.293684771 c 1
 693.678040661 1 l 1
 457.006382079 1 l 1
 415.180491977 50.8351030997 l 1
 388.170426059 29.7470370255 353.86593281 10.9328881829 321.120816918 1.57714078539 c 0
 302 -3.88594976274 l 1
 302 175.719268429 l 1
 308.281427094 180.206002068 l 0
 309.191753068 180.856234907 310.583528896 181.863912136 310.793935219 182.016528709 c 1
 302 192.569250972 l 1
 302 493.108186914 l 1
 307.501433146 497.609359488 l 0
 320.017609116 507.849867099 329 511.060253362 329 533 c 0
 329 554.719172002 327.997228181 559.343461248 310.0615099 568.701227308 c 0
 302 572.907232473 l 1
 302 717.898199611 l 1
 319.622526656 714.768965906 l 2
EndSplineSet
EndChar

StartChar: asciicircum
Encoding: 94 94 74
GlifName: asciicircum
Width: 374
VWidth: 0
GlyphClass: 2
Flags: W
LayerCount: 2
Back
SplineSet
27 460 m 257
 176 756 l 257
 264 756 l 257
 413 460 l 257
 290 460 l 257
 219 603 l 257
 149 460 l 257
 27 460 l 257
EndSplineSet
Fore
SplineSet
2.65609047377 445 m 1
 166.757441825 771 l 1
 273.242558175 771 l 1
 437.343909526 445 l 1
 280.700432174 445 l 1
 219.095417794 569.077705019 l 1
 158.358079673 445 l 1
 2.65609047377 445 l 1
EndSplineSet
EndChar

StartChar: asciitilde
Encoding: 126 126 75
GlifName: asciitilde
Width: 568
VWidth: 0
GlyphClass: 2
Flags: W
LayerCount: 2
Back
SplineSet
518 281 m 257x80
 462 247 418 235 381 235 c 256x80
 289 235 239 308 157 308 c 256
 127 308 92 299 50 272 c 257
 50 405 l 257
 95 431 132 440 163 440 c 256x40
 250 440 299 367 387 367 c 256
 422 367 464 379 518 412 c 257
 518 281 l 257x80
EndSplineSet
Fore
SplineSet
525.784672014 268.178187272 m 2
 468.191848264 233.21111571 421.377573073 220 381 220 c 0
 280.190465048 220 229.082262879 293 157 293 c 0
 130.133791739 293 98.1979553114 285.15227451 58.1113638697 259.382322869 c 0
 35 244.525017525 l 1
 35 413.657048614 l 1
 42.4958360319 417.987976099 l 0
 89.266263353 445.010889662 129.006965064 455 163 455 c 0
 259.430109815 455 308.319128258 382 387 382 c 0
 418.444718113 382 457.683542094 392.719128316 510.178249858 424.799227505 c 0
 533 438.745852591 l 1
 533 272.558922121 l 1
 525.784672014 268.178187272 l 2
EndSplineSet
EndChar

StartChar: asterisk
Encoding: 42 42 76
GlifName: asterisk
Width: 394
VWidth: 0
GlyphClass: 2
Flags: W
LayerCount: 2
Back
SplineSet
231 478 m 257xa0
 160 478 l 257xa0
 160 564 l 257
 92 517 l 257x60
 51 574 l 257
 138 633 l 257
 50 691 l 257
 92 748 l 257
 160 704 l 257
 160 785 l 257
 231 785 l 257
 231 702 l 257
 302 748 l 257
 344 691 l 257
 256 632 l 257
 343 572 l 257
 302 515 l 257
 231 565 l 257
 231 478 l 257xa0
EndSplineSet
Fore
SplineSet
246 463 m 1
 145 463 l 1
 145 535.398096567 l 1
 88.418898651 496.290570634 l 1
 29.8184617829 577.75947067 l 1
 111.012612573 632.822170632 l 1
 28.5483240756 687.173633505 l 1
 88.2976096766 768.261949678 l 1
 145 731.572167704 l 1
 145 800 l 1
 246 800 l 1
 246 729.591349514 l 1
 305.697491776 768.268597707 l 1
 365.377990284 687.273635446 l 1
 282.674779371 631.824891765 l 1
 364.111276765 575.661790115 l 1
 305.505317903 494.185213161 l 1
 246 536.090366614 l 1
 246 463 l 1
EndSplineSet
EndChar

StartChar: at
Encoding: 64 64 77
GlifName: at
Width: 803
VWidth: 0
GlyphClass: 2
Flags: W
LayerCount: 2
Back
SplineSet
667 103 m 257xbe
 717 12 l 257
 658 -45 538 -87 423 -87 c 256
 195 -87 16 47 16 309 c 256
 16 533 191 715 448 715 c 256
 610 715 786 612 786 412 c 256
 786 201 654 116 532 116 c 256xde
 494 116 463 137 453 161 c 257
 439 139 407 116 344 116 c 256xbe
 268 116 205 193 205 289 c 256
 205 444 327 519 409 519 c 256xde
 473 519 495 493 510 477 c 257
 518 504 l 257
 602 504 l 257
 552 308 l 258
 549 297 545 280 545 266 c 256
 545 249 549 240 563 240 c 256
 598 240 666 280 666 412 c 256
 666 530 549 602 451 602 c 256
 284 602 136 481 136 312 c 256
 136 122 260 22 414 22 c 256
 501 22 587 47 667 103 c 257xbe
EndSplineSet
Fore
SplineSet
618.258778625 507.051300886 m 1
 566.503973958 304.172466591 l 1
 563.582232763 293.459415544 560 277.393929092 560 266 c 0
 560 260.146531178 560.777166088 256.359232325 561.210526732 255.117691013 c 1
 561.922074885 255.020469457 562.223586577 255 563 255 c 0
 587.027949257 255 651 285.033489332 651 412 c 0
 651 448.830893509 638.463150446 480.704987406 618.258778625 507.051300886 c 1
608.156529902 519 m 1
 568.079557475 562.053898104 505.70561618 587 451 587 c 0
 290.750639573 587 151 471.29850222 151 312 c 0
 151 130.030615747 267.380409586 37 414 37 c 0
 498.081644421 37 580.866258574 61.0162144252 658.398064835 115.288478808 c 0
 672.095097184 124.876401452 l 1
 735.666309036 9.1767958804 l 1
 727.422180314 1.21212914873 l 0
 664.320653613 -59.7503627485 541.23752928 -102 423 -102 c 0
 188.549930379 -102 1 38.181220421 1 309 c 0
 1 541.486810528 183.377160747 730 448 730 c 0
 615.188870397 730 801 622.844160643 801 412 c 0
 801 193.231750627 661.668806094 101 532 101 c 0
 498.023967742 101 469.181708619 115.471357825 451.356739739 135.730624907 c 1
 429.828508534 115.555979421 395.876268047 101 344 101 c 0
 256.991334262 101 190 187.450116763 190 289 c 0
 190 452.933851923 319.283926892 534 409 534 c 0
 456.497475787 534 485.26300515 519.495781856 502.690990889 505.132573651 c 1
 506.799857955 519 l 1
 608.156529902 519 l 1
EndSplineSet
EndChar

StartChar: b
Encoding: 98 98 79
GlifName: b
Width: 504
VWidth: 0
GlyphClass: 2
Flags: HW
LayerCount: 2
Back
SplineSet
30 0 m 257xec
 30 699 l 257
 155 699 l 257
 155 0 l 257
 30 0 l 257xec
270 373 m 257
 270 375 264 397 237 398 c 258
 203 398 l 257
 203 516 l 257
 236 516 l 258
 338 516 387 422 388 377 c 257
 388 141 l 258
 388 97 339 0 236 0 c 258
 203 0 l 257
 203 118 l 257
 236 118 l 258
 264 118 270 142 270 143 c 257
 270 373 l 257
EndSplineSet
Fore
SplineSet
203.75 0 m 1
 30 0 l 1
 30 699 l 1
 192.826086957 699 l 1
 203.75 0 l 1
330 158.5546875 m 1
 300 357.724609375 l 1
 298.114852242 361.124023438 293.296705163 367.577148438 276.954653533 368 c 1
 215.52173913 368 l 1
 215.52173913 516 l 1
 276.043478261 516 l 0
 393.32421875 516 446.844726562 419.745117188 448 370.619140625 c 1
 478 147.428710938 l 0
 478 99.318359375 424.484375 0 281 0 c 0
 233 0 l 1
 233 148 l 1
 281 148 l 0
 317.004523026 148 326.504317434 155.46484375 330 158.5546875 c 1
EndSplineSet
EndChar

StartChar: backslash
Encoding: 92 92 80
GlifName: backslash
Width: 402
VWidth: 0
GlyphClass: 2
Flags: W
LayerCount: 2
Back
SplineSet
351 -23 m 257
 224 -23 l 257
 50 716 l 257
 176 716 l 257
 351 -23 l 257
EndSplineSet
Fore
SplineSet
369.9669408 -38 m 1
 212.121620972 -38 l 1
 31.0580215135 731 l 1
 187.862745942 731 l 1
 369.9669408 -38 l 1
EndSplineSet
EndChar

StartChar: bar
Encoding: 124 124 81
GlifName: bar
Width: 205
VWidth: 0
GlyphClass: 2
Flags: W
LayerCount: 2
Back
SplineSet
50 754 m 257
 155 754 l 257
 155 -134 l 257
 50 -134 l 257
 50 754 l 257
EndSplineSet
Fore
SplineSet
35 769 m 1
 170 769 l 1
 170 -149 l 1
 35 -149 l 1
 35 769 l 1
EndSplineSet
EndChar

StartChar: braceleft
Encoding: 123 123 82
GlifName: braceleft
Width: 407
VWidth: 0
GlyphClass: 2
Flags: W
LayerCount: 2
Back
SplineSet
307 735 m 257
 307 635 l 257
 239 635 240 591 239 469 c 257
 239 383 l 258
 239 366 219 354 195 348 c 257
 220 340 239 325 239 304 c 258
 239 207 l 258
 239 86 253 61 307 61 c 257
 307 -38 l 257
 301 -38 295 -38 289 -38 c 256
 200 -38 112 -31 112 192 c 258
 112 290 l 258
 112 322 86 329 50 348 c 257
 86 363 111 370 112 408 c 258
 112 504 l 258
 112 715 198 735 307 735 c 257
EndSplineSet
Fore
SplineSet
322 750 m 1
 322 620 l 1
 307 620 l 0
 254.425017431 620 255.04272371 596.150818296 254 468.938525623 c 1
 254 383 l 0
 254 365.753728635 241.343934436 353.222975355 230.952712969 346.60463285 c 1
 243.923476252 336.746062893 254 322.182113546 254 304 c 0
 254 207 l 0
 254 84.4756024753 265.638730634 76 307 76 c 0
 322 76 l 1
 322 -53 l 1
 289 -53 l 0
 195.838151032 -53 97 -38.3498313325 97 192 c 0
 97 290 l 0
 97 310.433337021 83.1933688327 313.520333863 42.9986207066 334.734228707 c 0
 14.8354713791 349.598113075 l 1
 44.2307692308 361.846153846 l 0
 82.8079251272 377.919968803 96.279837853 380.831172677 97 408.197334262 c 1
 97 504 l 0
 97 722.468253271 193.4598581 750 307 750 c 0
 322 750 l 1
EndSplineSet
EndChar

StartChar: braceright
Encoding: 125 125 83
GlifName: braceright
Width: 407
VWidth: 0
GlyphClass: 2
Flags: W
LayerCount: 2
Back
SplineSet
100 735 m 257
 209 735 295 715 295 504 c 258
 295 408 l 258
 296 370 321 363 357 348 c 257
 321 329 295 322 295 290 c 258
 295 192 l 258
 295 -31 207 -38 118 -38 c 256
 112 -38 106 -38 100 -38 c 257
 100 61 l 257
 154 61 168 87 168 208 c 258
 168 304 l 258
 168 325 187 340 212 348 c 257
 188 354 168 366 168 383 c 256
 168 384 168 384 168 384 c 256
 168 469 l 258
 167 591 168 635 100 635 c 257
 100 735 l 257
EndSplineSet
Fore
SplineSet
100 750 m 2
 213.535122542 750 310 722.474433197 310 504 c 0
 310 408.197334262 l 1
 310.720170754 380.830845606 324.19043422 377.920652408 362.769230769 361.846153846 c 0
 392.164528621 349.598113075 l 1
 364.001379293 334.734228707 l 0
 323.824074098 313.529539854 310 310.413588252 310 290 c 0
 310 192 l 0
 310 -38.3496524996 211.162026062 -53 118 -53 c 0
 85 -53 l 1
 85 76 l 1
 100 76 l 0
 141.201920572 76 153 85.3744087893 153 208 c 0
 153 304 l 0
 153 322.541975769 164.478154062 337.811387285 176.047287031 346.60463285 c 1
 164.126700127 354.197053746 153 366.164009961 153 383 c 0
 153 468.938525623 l 1
 151.957326634 596.144676229 152.566023228 620 100 620 c 0
 85 620 l 1
 85 750 l 1
 100 750 l 2
EndSplineSet
EndChar

StartChar: bracketleft
Encoding: 91 91 84
GlifName: bracketleft
Width: 258
VWidth: 0
GlyphClass: 2
Flags: W
LayerCount: 2
Back
SplineSet
244 739 m 257xe0
 244 629 l 257xe0
 183 629 l 257
 180 74 l 257xd0
 244 74 l 257
 244 -36 l 257
 50 -36 l 257
 50 739 l 257
 244 739 l 257xe0
EndSplineSet
Fore
SplineSet
259 754 m 1
 259 614 l 1
 197.919138055 614 l 1
 195.081300218 89 l 1
 259 89 l 1
 259 -51 l 1
 35 -51 l 1
 35 754 l 1
 259 754 l 1
EndSplineSet
EndChar

StartChar: bracketright
Encoding: 93 93 85
GlifName: bracketright
Width: 258
VWidth: 0
GlyphClass: 2
Flags: W
LayerCount: 2
Back
SplineSet
14 739 m 257xe0
 208 739 l 257
 208 -36 l 257
 14 -36 l 257
 14 74 l 257xe0
 78 74 l 257xd0
 75 629 l 257
 14 629 l 257
 14 739 l 257xe0
EndSplineSet
Fore
SplineSet
-1 754 m 1
 223 754 l 1
 223 -51 l 1
 -1 -51 l 1
 -1 89 l 1
 62.9186997825 89 l 1
 60.0808619446 614 l 1
 -1 614 l 1
 -1 754 l 1
EndSplineSet
EndChar

StartChar: breve
Encoding: 264 728 86
GlifName: breve
Width: 244
VWidth: 0
GlyphClass: 2
Flags: W
LayerCount: 2
Back
SplineSet
218 526 m 257
 218 473 175 430 122 430 c 256
 69 430 26 473 26 526 c 257
 90 526 l 257
 90 508 104 494 122 494 c 256
 140 494 154 508 154 526 c 257
 218 526 l 257
EndSplineSet
Fore
SplineSet
233 526 m 2
 233 464.71574426 183.284285621 415 122 415 c 0
 60.7157442596 415 11 464.715714379 11 526 c 0
 11 541 l 1
 105 541 l 1
 105 526 l 0
 105 516.172996937 112.177807996 509 122 509 c 0
 131.827003063 509 139 516.177807996 139 526 c 0
 139 541 l 1
 233 541 l 1
 233 526 l 2
EndSplineSet
EndChar

StartChar: brokenbar
Encoding: 166 166 87
GlifName: brokenbar
Width: 222
VWidth: 0
GlyphClass: 2
Flags: W
LayerCount: 2
Back
SplineSet
50 754 m 257
 172 754 l 257
 172 399 l 257
 50 399 l 257
 50 754 l 257
50 221 m 257
 172 221 l 257
 172 -134 l 257
 50 -134 l 257
 50 221 l 257
EndSplineSet
Fore
SplineSet
35 769 m 1
 187 769 l 1
 187 384 l 1
 35 384 l 1
 35 769 l 1
35 236 m 1
 187 236 l 1
 187 -149 l 1
 35 -149 l 1
 35 236 l 1
EndSplineSet
EndChar

StartChar: bullet
Encoding: 265 8226 88
GlifName: bullet
Width: 352
VWidth: 0
GlyphClass: 2
Flags: W
LayerCount: 2
Back
SplineSet
26 344 m 256
 26 428 92 496 176 496 c 256
 260 496 326 428 326 344 c 256
 326 260 260 194 176 194 c 256
 92 194 26 260 26 344 c 256
EndSplineSet
Fore
SplineSet
11 344 m 0
 11 436.010555627 83.5313233975 511 176 511 c 0
 268.467090916 511 341 436.011175659 341 344 c 0
 341 251.800245737 268.201011722 179 176 179 c 0
 83.8002457371 179 11 251.798988278 11 344 c 0
EndSplineSet
EndChar

StartChar: c
Encoding: 99 99 89
GlifName: c
Width: 478
VWidth: 0
GlyphClass: 2
Flags: W
HStem: -1 147<198.126 259 273 307.975> 496 20G<155.164 251 263 324.75>
VStem: 30 164<146.506 380.218>
LayerCount: 2
Back
SplineSet
266 383 m 257
 261 397 239 399 239 399 c 258
 238 399 237 399 236 399 c 258
 233 399 l 257
 233 516 l 257
 239 516 l 258
 312 516 381 448 381 376 c 258
 381 372 l 257
 270 330 l 257
 270 360 l 258
 270 370 270 375 266 383 c 257
243 -1 m 257
 243 116 l 257
 249 116 l 257
 251 116 272 119 277 132 c 257
 281 140 281 146 281 156 c 258
 281 186 l 257
 392 144 l 257
 392 140 l 258
 392 68 323 -1 250 -1 c 258
 243 -1 l 257
30 377 m 257
 31 421 80 516 185 516 c 258
 191 516 l 257
 191 400 l 257
 185 400 l 258
 154 400 149 377 149 375 c 258
 149 141 l 258
 149 139 154 115 194 115 c 256
 199 114 l 257
 199 0 l 257
 194 0 l 258
 79 0 30 97 30 141 c 258
 30 377 l 257
EndSplineSet
Fore
SplineSet
297.178710938 362.1015625 m 1
 296.874023438 362.955078125 l 2
 296.379882812 364.337890625 287.296875 368.408203125 283.10546875 369 c 1
 263 369 l 1
 263 516 l 1
 284 516 l 0
 365.5 516 441 441.876953125 441 361 c 0
 441 346.637695312 l 1
 300 293.286132812 l 1
 300 345 l 0
 300 355.456054688 300.235351562 355.989257812 297.583984375 361.291992188 c 0
 297.178710938 362.1015625 l 1
295 -1 m 0
 273 -1 l 1
 273 146 l 1
 293.422851562 146 l 1
 298.500976562 146.670898438 307.596679688 151.334960938 308 152.384765625 c 0
 308.259765625 153.060546875 l 1
 308.583984375 153.708007812 l 0
 311.029296875 158.599609375 311 160.588867188 311 171 c 0
 311 222.713867188 l 1
 452 169.362304688 l 1
 452 155 l 0
 452 74.2255859375 376.641601562 -1 295 -1 c 0
30 147.428710938 m 0
 30 370.623046875 l 2
 31.162109375 418.938476562 84.828125 516 225.5 516 c 0
 251 516 l 1
 251 380.922851562 l 1
 225.5 380.922851562 l 0
 199.063964844 380.922851562 195.303710938 372.78515625 194 370.405273438 c 1
 194 156.543945312 l 1
 195.338867188 154.423828125 200.499511719 145 239 145 c 0
 240.485351562 145 l 1
 259 141.296875 l 1
 259 0 l 1
 239 0 l 0
 84.4150390625 0 30 98.736328125 30 147.428710938 c 0
EndSplineSet
EndChar

StartChar: caron
Encoding: 266 711 90
GlifName: caron
Width: 270
VWidth: 0
GlyphClass: 2
Flags: W
LayerCount: 2
Back
SplineSet
26 666 m 257
 107 666 l 257
 134 609 l 257
 162 666 l 257
 244 666 l 257
 167 514 l 257
 101 514 l 257
 26 666 l 257
EndSplineSet
Fore
SplineSet
1.87207441011 681 m 1
 116.492470559 681 l 1
 134.245643187 643.521080008 l 1
 152.656340727 681 l 1
 268.41355863 681 l 1
 176.216190209 499 l 1
 91.6747059891 499 l 1
 1.87207441011 681 l 1
EndSplineSet
EndChar

StartChar: cedilla
Encoding: 184 184 92
GlifName: cedilla
Width: 219
VWidth: 0
GlyphClass: 2
Flags: W
LayerCount: 2
Back
SplineSet
102 123 m 257
 194 123 l 257
 194 47 153 -36 26 -36 c 257
 26 55 l 257
 62 55 102 68 102 123 c 257
EndSplineSet
Fore
SplineSet
87 138 m 1
 209 138 l 1
 209 123 l 0
 209 41.2397137644 162.129500424 -51 26 -51 c 0
 11 -51 l 1
 11 70 l 1
 26 70 l 0
 59.0475928767 70 87 79.2493394648 87 123 c 0
 87 138 l 1
EndSplineSet
EndChar

StartChar: cent
Encoding: 162 162 93
GlifName: cent
Width: 494
VWidth: 0
GlyphClass: 2
Flags: W
LayerCount: 2
Back
SplineSet
158 749 m 257x40
 229 749 l 257
 229 705 l 257
 229 595 l 257
 229 564 l 257x40
 183 563 173 523 173 518 c 258
 173 181 l 258x80
 173 176 183 136 229 136 c 257
 229 86 l 257
 229 -5 l 257
 229 -48 l 257
 158 -48 l 257
 158 7 l 257x40
 68 40 32 132 32 181 c 258
 32 518 l 258x80
 32 567 68 660 158 693 c 257
 158 749 l 257x40
283 749 m 257x20
 354 749 l 257
 354 687 l 257x20
 417 656 468 587 468 516 c 257
 330 480 l 257
 330 495 l 258x10
 330 509 330 520 325 532 c 256
 315 555 283 564 283 564 c 257
 283 595 l 257
 283 705 l 257
 283 749 l 257x20
283 136 m 257
 283 136 315 143 325 166 c 256
 330 178 330 189 330 203 c 258
 330 215 l 257
 468 182 l 257x10
 468 104 417 40 354 11 c 257
 354 -48 l 257
 283 -48 l 257
 283 -5 l 257
 283 86 l 257
 283 136 l 257
EndSplineSet
Fore
SplineSet
143 764 m 1
 244 764 l 1
 244 549.322542952 l 1
 229.326009931 549.003543168 l 0
 197.014433084 548.301117584 189.064829956 522.987064228 188 517.355585477 c 1
 188 181.645141018 l 1
 189.219205627 175.202184452 197.646572646 151 229 151 c 0
 244 151 l 1
 244 -63 l 1
 143 -63 l 1
 143 -3.18014771466 l 1
 51.9902421688 36.1576966089 17 128.467068186 17 181 c 0
 17 518 l 0
 17 571.029336458 53.3087768765 664.359554161 143 703.176562429 c 1
 143 764 l 1
268 764 m 1
 369 764 l 1
 369 696.094586295 l 1
 432.97743509 660.716573053 483 590.750118906 483 516 c 0
 483 504.411046534 l 1
 315 460.584959577 l 1
 315 495 l 0
 315 509.186680825 314.763013768 517.568766958 311.19808612 526.124593313 c 1
 305.027486528 540.316972374 278.862462769 549.581928504 278.862462769 549.581928504 c 0
 268 552.699116828 l 1
 268 764 l 1
279.710733281 150.634914569 m 2
 279.825109739 150.660621223 305.234420832 158.158976525 311.19808612 171.875406687 c 1
 314.763013768 180.431233042 315 188.813319175 315 203 c 0
 315 234.009869901 l 1
 483 193.835956857 l 1
 483 182 l 0
 483 100.58376058 432.170093802 34.6016082427 369 1.6348935664 c 1
 369 -63 l 1
 268 -63 l 1
 268 148.002871515 l 1
 279.710733281 150.634914569 l 2
EndSplineSet
EndChar

StartChar: circumflex
Encoding: 267 710 94
GlifName: circumflex
Width: 270
VWidth: 0
GlyphClass: 2
Flags: W
LayerCount: 2
Back
SplineSet
26 514 m 257
 101 666 l 257
 167 666 l 257
 244 514 l 257
 162 514 l 257
 134 571 l 257
 107 514 l 257
 26 514 l 257
EndSplineSet
Fore
SplineSet
1.87207441011 499 m 1
 91.6747059891 681 l 1
 176.216190209 681 l 1
 268.41355863 499 l 1
 152.656340727 499 l 1
 134.245643187 536.478919992 l 1
 116.492470559 499 l 1
 1.87207441011 499 l 1
EndSplineSet
EndChar

StartChar: colon
Encoding: 58 58 95
GlifName: colon
Width: 250
VWidth: 0
GlyphClass: 2
Flags: W
LayerCount: 2
Back
SplineSet
50 70 m 256
 50 112 83 146 125 146 c 256
 167 146 200 112 200 70 c 256
 200 28 167 -5 125 -5 c 256
 83 -5 50 28 50 70 c 256
50 360 m 256
 50 402 83 436 125 436 c 256
 167 436 200 402 200 360 c 256
 200 318 167 285 125 285 c 256
 83 285 50 318 50 360 c 256
EndSplineSet
Fore
SplineSet
35 70 m 0
 35 120.010561694 74.5327148601 161 125 161 c 0
 175.467102101 161 215 120.010636334 215 70 c 0
 215 19.8002339321 175.199935667 -20 125 -20 c 0
 74.8002339321 -20 35 19.8000643327 35 70 c 0
35 360 m 0
 35 410.010561694 74.5327148601 451 125 451 c 0
 175.467102101 451 215 410.010636334 215 360 c 0
 215 309.800233932 175.199935667 270 125 270 c 0
 74.8002339321 270 35 309.800064333 35 360 c 0
EndSplineSet
EndChar

StartChar: comma
Encoding: 44 44 96
GlifName: comma
Width: 265
VWidth: 0
GlyphClass: 2
Flags: W
LayerCount: 2
Back
SplineSet
178 -23 m 257
 51 -23 l 257
 88 129 l 257
 215 129 l 257
 178 -23 l 257
EndSplineSet
Fore
SplineSet
189.786692728 -38 m 1
 31.9106756928 -38 l 1
 76.2133072717 144 l 1
 234.089324307 144 l 1
 189.786692728 -38 l 1
EndSplineSet
EndChar

StartChar: copyright
Encoding: 169 169 97
GlifName: copyright
Width: 859
VWidth: 0
GlyphClass: 2
Flags: W
LayerCount: 2
Back
SplineSet
412 44 m 257
 412 -49 l 257
 240 -43 56 104 50 327 c 256
 50 331 50 335 50 339 c 256
 50 589 264 725 412 726 c 257
 412 636 l 257
 283 635 139 516 139 339 c 256
 139 337 139 334 139 332 c 256
 142 179 266 51 412 44 c 257
447 476 m 257
 447 566 l 257
 506 566 565 507 565 446 c 257
 477 413 l 257
 477 432 l 258
 477 441 477 448 474 456 c 256
 468 470 447 476 447 476 c 257
447 201 m 257
 447 201 468 207 474 222 c 256
 477 229 477 236 477 245 c 258
 477 264 l 257
 565 232 l 257
 565 171 506 112 447 112 c 257
 447 201 l 257
412 566 m 257
 412 476 l 257
 383 476 377 450 377 447 c 257
 377 231 l 257
 377 228 383 203 412 203 c 257
 412 112 l 257
 321 112 287 193 287 231 c 257
 287 447 l 257
 287 485 321 566 412 566 c 257
447 44 m 257
 593 51 717 179 720 332 c 256
 720 334 720 337 720 339 c 256
 720 516 576 635 447 636 c 257
 447 726 l 257
 595 725 809 589 809 339 c 256
 809 335 809 331 809 327 c 256
 803 104 619 -43 447 -49 c 257
 447 44 l 257
EndSplineSet
Fore
SplineSet
427 58.2980525917 m 1
 427 -64.5323795941 l 1
 411.477062264 -63.9908817661 l 0
 232.004399053 -57.730207468 41.240211043 94.8703990194 35 326.798242786 c 1
 35 339 l 0
 35 598.50476787 256.590901692 739.950280924 411.898650962 740.999657609 c 0
 427 741.101693751 l 1
 427 621.115828382 l 1
 412.116275576 621.000450674 l 0
 291.506601629 620.065491961 154 507.595662561 154 339 c 0
 154 332.147044691 l 1
 156.842283851 187.190568287 274.971227878 65.5871033099 412.718352902 58.9827890964 c 0
 427 58.2980525917 l 1
432 464.778197332 m 1
 432 581 l 1
 447 581 l 0
 514.954918259 581 580 515.635794767 580 446 c 0
 580 435.604992978 l 1
 462 391.354992978 l 1
 462 432 l 0
 462 441.042082332 461.603473644 446.019264394 460.102387594 450.335241488 c 1
 457.446830288 455.603176307 442.862155 461.581663574 442.765332056 461.610156797 c 0
 432 464.778197332 l 1
442.759589354 215.388151985 m 2
 443.020828523 215.465143204 457.628839274 221.460834239 460.140776855 227.740678191 c 1
 461.787583989 231.58322817 462 235.637934393 462 245 c 0
 462 285.415499878 l 1
 580 242.506408969 l 1
 580 232 l 0
 580 162.364010671 514.954720628 97 447 97 c 0
 432 97 l 1
 432 212.217134798 l 1
 442.759589354 215.388151985 l 2
427 581 m 1
 427 461 l 1
 412 461 l 0
 396.64033797 461 392.911931122 449.831301086 392 446.03911226 c 1
 392 232.016063732 l 1
 393.224594338 227.489232016 396.878302162 218 412 218 c 0
 427 218 l 1
 427 97 l 1
 412 97 l 0
 310.131980449 97 272 187.255493027 272 231 c 0
 272 447 l 0
 272 490.746779696 310.130566578 581 412 581 c 0
 427 581 l 1
446.281647098 58.9827890964 m 2
 584.028797516 65.5871045274 702.157707353 187.190119697 705 332.147044691 c 1
 705 339 l 0
 705 507.595765446 567.49371168 620.065489532 446.883724424 621.000450674 c 0
 432 621.115828382 l 1
 432 741.101693751 l 1
 447.101349038 740.999657609 l 0
 602.409430987 739.950278676 824 598.504942412 824 339 c 0
 824 326.798242786 l 1
 817.759779715 94.8700555202 626.995656808 -57.7302055194 447.522937736 -63.9908817661 c 0
 432 -64.5323795941 l 1
 432 58.2980525917 l 1
 446.281647098 58.9827890964 l 2
EndSplineSet
EndChar

StartChar: currency
Encoding: 164 164 98
GlifName: currency
Width: 656
VWidth: 0
GlyphClass: 2
Flags: W
LayerCount: 2
Back
SplineSet
351 477 m 257
 351 595 l 257
 357 595 l 258
 400 595 434 578 459 555 c 257
 534 622 l 257
 606 540 l 257
 510 456 l 258
 510 455 510 455 510 455 c 256
 510 275 l 256
 510 275 510 275 510 275 c 256
 605 190 l 257
 534 109 l 257
 460 174 l 257
 435 150 401 133 357 133 c 258
 351 133 l 257
 351 247 l 257
 357 247 l 258
 388 248 393 272 393 274 c 258
 393 451 l 258
 393 454 387 477 357 477 c 258
 351 477 l 257
50 540 m 257
 122 622 l 257
 198 555 l 257
 223 578 259 595 304 595 c 258
 310 595 l 257
 310 477 l 257
 304 477 l 258
 271 477 266 453 266 452 c 258
 266 276 l 258
 266 273 274 251 304 251 c 258
 310 251 l 257
 310 133 l 257
 304 133 l 258
 258 133 222 151 197 175 c 257
 122 109 l 257
 51 190 l 257
 146 275 l 256
 146 275 146 275 146 275 c 256
 146 455 l 256
 146 455 146 455 146 456 c 258
 50 540 l 257
EndSplineSet
Fore
SplineSet
336 462 m 1
 336 610 l 1
 357 610 l 0
 398.496263313 610 432.573958718 595.26882209 458.75609292 574.895786614 c 1
 535.289447815 643.265583654 l 1
 627.185699508 538.60596367 l 1
 525 449.193476601 l 1
 525 281.706655975 l 1
 626.067139241 191.27816297 l 1
 535.382337845 87.8208543352 l 1
 460.032484548 154.006536285 l 1
 432.628849391 131.867533105 399.150559672 118 357 118 c 0
 336 118 l 1
 336 262 l 1
 356.758127422 262 l 1
 374.112052271 262.559804027 377.176059869 272.515688812 378 275.272262915 c 1
 378 449.822979543 l 1
 376.915917114 453.233389085 373.673666817 462 357 462 c 0
 336 462 l 1
28.8143004924 538.60596367 m 1
 120.645127592 643.191072312 l 1
 198.215153694 574.806970354 l 1
 226.0060912 596.190639855 261.01287833 610 304 610 c 0
 325 610 l 1
 325 462 l 1
 304 462 l 0
 284.831907823 462 281.876454136 452.543350292 281 450.189780908 c 1
 281 277.829728227 l 1
 282.548180665 274.395827509 287.335859313 266 304 266 c 0
 325 266 l 1
 325 118 l 1
 304 118 l 0
 259.739860895 118 223.128105402 133.926419908 196.994338604 155.014027005 c 1
 120.626719062 87.8105218079 l 1
 29.9328607593 191.27816297 l 1
 131 281.706655975 l 1
 131 449.193476601 l 1
 28.8143004924 538.60596367 l 1
EndSplineSet
EndChar

StartChar: d
Encoding: 100 100 99
GlifName: d
Width: 504
VWidth: 0
GlyphClass: 2
Flags: HW
LayerCount: 2
Back
SplineSet
180 516 m 258
 210 516 l 257
 210 398 l 257
 180 398 l 257
 153 397 148 375 148 373 c 258
 148 143 l 257
 148 141 154 118 182 118 c 258
 210 118 l 257
 210 0 l 257
 182 0 l 258
 78 0 30 97 30 141 c 258
 30 377 l 257
 31 422 79 516 180 516 c 258
384 0 m 257
 258 0 l 257
 258 698 l 257
 384 698 l 257
 384 0 l 257
EndSplineSet
Fore
SplineSet
30 370.619140625 m 1
 31.150390625 419.54296875 83.5029296875 516 207.818181818 516 c 2
 265.090909091 516 l 1
 265.090909091 368 l 1
 208.171164773 368 l 1
 191.12109375 367.563476562 187.367542614 360.517578125 186.181818182 357.99609375 c 1
 196.367346939 158.208007812 l 1
 198.777841996 154.650390625 204.323082749 148 227 148 c 0
 270 148 l 1
 270 0 l 1
 227 0 l 0
 82.498046875 0 30 99.4208984375 30 147.428710938 c 0
 30 370.619140625 l 1
444 698 m 1
 474 0 l 1
 318 0 l 1
 288 698 l 1
 444 698 l 1
EndSplineSet
EndChar

StartChar: dagger
Encoding: 268 8224 100
GlifName: dagger
Width: 453
VWidth: 0
GlyphClass: 2
Flags: W
LayerCount: 2
Back
SplineSet
427 577 m 257
 427 450 l 257
 297 450 l 257
 297 -56 l 257
 156 -56 l 257
 156 450 l 257
 26 450 l 257
 26 577 l 257
 156 577 l 257
 156 764 l 257
 297 764 l 257
 297 577 l 257
 427 577 l 257
EndSplineSet
Fore
SplineSet
442 592 m 1
 442 435 l 1
 312 435 l 1
 312 -71 l 1
 141 -71 l 1
 141 435 l 1
 11 435 l 1
 11 592 l 1
 141 592 l 1
 141 779 l 1
 312 779 l 1
 312 592 l 1
 442 592 l 1
EndSplineSet
EndChar

StartChar: daggerdbl
Encoding: 269 8225 101
GlifName: daggerdbl
Width: 453
VWidth: 0
GlyphClass: 2
Flags: W
LayerCount: 2
Back
SplineSet
156 764 m 257
 297 764 l 257
 297 577 l 257
 427 577 l 257
 427 450 l 257
 297 450 l 257
 297 258 l 257
 427 258 l 257
 427 131 l 257
 297 131 l 257
 297 -56 l 257
 156 -56 l 257
 156 131 l 257
 26 131 l 257
 26 258 l 257
 156 258 l 257
 156 450 l 257
 26 450 l 257
 26 577 l 257
 156 577 l 257
 156 764 l 257
EndSplineSet
Fore
SplineSet
141 779 m 1
 312 779 l 1
 312 592 l 1
 442 592 l 1
 442 435 l 1
 312 435 l 1
 312 273 l 1
 442 273 l 1
 442 116 l 1
 312 116 l 1
 312 -71 l 1
 141 -71 l 1
 141 116 l 1
 11 116 l 1
 11 273 l 1
 141 273 l 1
 141 435 l 1
 11 435 l 1
 11 592 l 1
 141 592 l 1
 141 779 l 1
EndSplineSet
EndChar

StartChar: degree
Encoding: 176 176 102
GlifName: degree
Width: 282
VWidth: 0
GlyphClass: 2
Flags: W
LayerCount: 2
Back
SplineSet
102 583 m 256
 102 562 119 545 140 545 c 256
 162 545 179 562 179 583 c 256
 179 605 162 622 140 622 c 256
 119 622 102 605 102 583 c 256
25 583 m 256
 25 647 77 698 140 698 c 256
 204 698 256 647 256 583 c 256
 256 520 204 468 140 468 c 256
 77 468 25 520 25 583 c 256
EndSplineSet
Fore
SplineSet
117 583 m 0
 117 570.278374099 127.282253739 560 140 560 c 0
 154.022721265 560 164 570.469189732 164 583 c 0
 164 596.844653247 153.823146649 607 140 607 c 0
 127.456152574 607 117 597.01384916 117 583 c 0
10 583 m 0
 10 655.352496281 68.7861976993 713 140 713 c 0
 212.11319566 713 271 655.411603177 271 583 c 0
 271 511.610974266 212.228695833 453 140 453 c 0
 68.6703267229 453 10 511.670307947 10 583 c 0
EndSplineSet
EndChar

StartChar: dieresis
Encoding: 168 168 103
GlifName: dieresis
Width: 320
VWidth: 0
GlyphClass: 2
Flags: W
LayerCount: 2
Back
SplineSet
170 678 m 256
 170 720 203 754 245 754 c 256
 287 754 320 720 320 678 c 256
 320 636 287 603 245 603 c 256
 203 603 170 636 170 678 c 256
0 678 m 256
 0 720 33 754 75 754 c 256
 117 754 150 720 150 678 c 256
 150 636 117 603 75 603 c 256
 33 603 0 636 0 678 c 256
EndSplineSet
Fore
SplineSet
-15 678 m 0
 -15 728.010561694 24.5327148601 769 75 769 c 0
 114.831075926 769 147.851094757 743.467195691 159.999995427 708.118154985 c 1
 172.148862657 743.467163352 205.168790652 769 245 769 c 0
 295.467102101 769 335 728.010636334 335 678 c 0
 335 627.800233932 295.199935667 588 245 588 c 0
 205.349460143 588 172.186887165 612.830107338 159.999997317 648.002856482 c 1
 147.813127208 612.830181752 114.650648751 588 75 588 c 0
 24.8002339321 588 -15 627.800064333 -15 678 c 0
EndSplineSet
EndChar

StartChar: divide
Encoding: 247 247 104
GlifName: divide
Width: 710
VWidth: 0
GlyphClass: 2
Flags: HW
LayerCount: 2
Back
SplineSet
550 355 m 257
 550 228 l 257
 100 228 l 257
 100 355 l 257
 550 355 l 257
EndSplineSet
Refer: 175 46 N 1 0 0 1 196 415 2
Refer: 175 46 N 1 0 0 1 196 62 2
Fore
SplineSet
100 370 m 1
 610 370 l 1
 610 213 l 1
 100 213 l 1
 100 370 l 1
EndSplineSet
Refer: 175 46 N 1 0 0 1 196 415 2
Refer: 175 46 N 1 0 0 1 196 62 2
EndChar

StartChar: dollar
Encoding: 36 36 105
GlifName: dollar
Width: 561
VWidth: 0
GlyphClass: 2
Flags: HW
LayerCount: 2
Back
SplineSet
268 428 m 257x20
 294 418 320 407 343 394 c 256
 404 358 471 311 471 209 c 256x10
 471 122 414 44 339 12 c 257
 339 -47 l 257
 268 -47 l 257
 268 -3 l 256
 268 127 l 257x20
 292 130 330 150 330 203 c 256x10
 330 241 303 263 268 280 c 257
 268 428 l 257x20
213 750 m 257x40
 213 568 l 257x40
 192 562 172 537 172 513 c 256x80
 172 486 189 469 213 454 c 257
 213 302 l 257x40
 194 309 176 316 161 323 c 256
 90 357 38 403 38 508 c 256x80
 38 599 91 652 142 679 c 257
 142 750 l 257
 213 750 l 257x40
339 682 m 257x20
 402 649 438 580 443 553 c 257
 313 510 l 257
 308 557 268 568 268 568 c 257
 268 750 l 257
 339 750 l 257
 339 682 l 257x20
213 -47 m 257x40
 142 -47 l 257
 142 13 l 257
 73 45 31 116 30 158 c 257
 157 203 l 257
 159 147 213 127 213 127 c 257
 213 -47 l 257x40
EndSplineSet
Fore
SplineSet
305.594030534 442 m 2
 335.831035737 431.846679688 366.05126311 420.744140625 393.923712806 406.989257812 c 1
 457.352539062 370.638671875 531.254882812 319.20703125 531.254882812 209 c 0
 531.254882812 124.55078125 474.4609375 49.9638671875 399.254882812 15.833984375 c 1
 399.254882812 -47 l 1
 287.796699007 -47 l 1
 287.796699007 155.125976562 l 1
 303.160755685 156.768554688 l 0
 325.006630833 158.53515625 360.254882812 169.725585938 360.254882812 203 c 0
 360.254882812 232.228515625 337.329622925 250.03515625 291.921217616 266.5078125 c 0
 282.247120846 270.610351562 l 1
 282.247120846 449.840820312 l 1
 305.594030534 442 l 2
253.612957668 750 m 1
 253.612957668 542.262695312 l 1
 241.151504075 539.154296875 l 0
 225.025772413 536.561523438 206.652930055 523.83203125 206.652930055 513 c 0
 206.652930055 493.577148438 219.319073174 481.02734375 245.537228834 466.719726562 c 0
 253.612957668 462.313476562 l 1
 253.612957668 280.48828125 l 1
 230.493107945 287.924804688 l 0
 208.4906617 295.001953125 187.668256164 302.048828125 169.84375 309.438476562 c 1
 96.1591796875 344.723632812 38.2548828125 396.404296875 38.2548828125 508 c 0
 38.2548828125 594.329101562 90.63671875 646.940429688 142.254882812 674.879882812 c 1
 142.254882812 750 l 1
 253.612957668 750 l 1
397.929140085 677.9453125 m 1
 463.779296875 642.346679688 497.223632812 581.8671875 503.00390625 553 c 0
 505.385742188 542.8671875 l 1
 336.138629286 489.91796875 l 1
 333.884807458 508.413085938 l 0
 329.497964177 532.901367188 295.888615147 538.924804688 294.738774532 539.131835938 c 1
 282.247120846 542.206054688 l 1
 282.247120846 750 l 1
 397.929140085 750 l 1
 397.929140085 677.9453125 l 1
258.562281663 -47 m 1
 142.254882812 -47 l 1
 142.254882812 16.9677734375 l 1
 73.5576171875 49.8193359375 31.392578125 114.12890625 30.2587890625 157.642578125 c 0
 30 168.508789062 l 1
 192.212715955 223.966796875 l 1
 193.065767118 203.53515625 l 0
 194.920325468 169.109375 245.62148411 155.487304688 247.182556318 155.088867188 c 0
 258.562281663 151.4375 l 1
 258.562281663 -47 l 1
EndSplineSet
EndChar

StartChar: dotaccent
Encoding: 270 729 106
GlifName: dotaccent
Width: 202
VWidth: 0
GlyphClass: 2
Flags: W
LayerCount: 2
Back
SplineSet
26 678 m 256
 26 720 59 754 101 754 c 256
 143 754 176 720 176 678 c 256
 176 636 143 603 101 603 c 256
 59 603 26 636 26 678 c 256
EndSplineSet
Fore
SplineSet
11 678 m 0
 11 728.010561694 50.5327148601 769 101 769 c 0
 151.467102101 769 191 728.010636334 191 678 c 0
 191 627.800233932 151.199935667 588 101 588 c 0
 50.8002339321 588 11 627.800064333 11 678 c 0
EndSplineSet
EndChar

StartChar: dotlessi
Encoding: 271 305 107
GlifName: dotlessi
Width: 204
VWidth: 0
GlyphClass: 2
Flags: HW
LayerCount: 2
Back
SplineSet
148 0 m 257
 26 0 l 257
 26 516 l 257
 148 516 l 257
 148 0 l 257
EndSplineSet
Fore
SplineSet
178 516 m 1
 178 0 l 1
 26 0 l 1
 26 516 l 1
 178 516 l 1
EndSplineSet
EndChar

StartChar: e
Encoding: 101 101 108
GlifName: e
Width: 514
VWidth: 0
GlyphClass: 2
Flags: W
HStem: 0 21G<156.024 248 296 361.418> 193 146<196 313> 372 144<185.616 232.333 255.556 312.506>
VStem: 26 170<129.586 193>
LayerCount: 2
Back
SplineSet
240 402 m 258
 236 402 l 257
 236 516 l 257
 242 516 l 258
 312 516 397 450 397 378 c 258
 397 208 l 257
 148 208 l 257
 148 141 l 258
 148 138 155 109 183 108 c 258
 188 108 l 257
 188 0 l 257
 183 0 l 258
 79 0 26 96 26 141 c 258
 26 377 l 257
 27 422 80 516 182 516 c 258
 187 516 l 257
 187 400 l 257
 184 400 l 258
 155 400 148 380 148 369 c 258
 148 324 l 257
 283 324 l 257
 283 369 l 258
 283 396 260 402 240 402 c 258
236 0 m 257
 236 111 l 257
 242 111 l 258
 273 113 294 132 298 153 c 258
 299 157 l 257
 398 120 l 257
 397 118 l 256
 382 54 312 0 242 0 c 258
 236 0 l 257
EndSplineSet
Fore
SplineSet
313 359.625 m 0
 313 369.21875 302.07280816 372 278.777777778 372 c 2
 255.555555556 372 l 1
 255.555555556 516 l 1
 281.222222222 516 l 0
 363.876953125 516 457 449.137695312 457 369.790039062 c 0
 487 193 l 1
 196 193 l 1
 196 145.686523438 l 1
 198.4953125 139.662109375 207.8 128.896484375 228.174804688 128.047851562 c 1
 248 128.047851562 l 1
 248 0 l 1
 228 0 l 0
 84.0478515625 0 26 97.7216796875 26 147.428710938 c 0
 26 370.619140625 l 1
 27.1689453125 420.342773438 85.05078125 516 207.888888889 516 c 0
 232.333333333 516 l 1
 232.333333333 370 l 1
 210.333333333 370 l 0
 186.519097222 370 184.666666667 362.768554688 184.666666667 359.217773438 c 0
 184.666666667 339 l 1
 313 339 l 1
 313 359.625 l 0
317 0 m 0
 296 0 l 1
 296 141 l 1
 316.51171875 141 l 1
 342.2578125 143.015625 355.810546875 157.922851562 358.264648438 170.806640625 c 0
 358.344726562 171.224609375 l 1
 363.520507812 191.9296875 l 1
 493.875976562 143.2109375 l 1
 486.416015625 128.291992188 l 0
 452.872070312 61.2041015625 405.8359375 0 317 0 c 0
EndSplineSet
EndChar

StartChar: eight
Encoding: 56 56 113
GlifName: eight
Width: 606
VWidth: 0
GlyphClass: 2
Flags: HW
LayerCount: 2
Back
SplineSet
274 125 m 257xe8
 307 134 332 165 332 201 c 256xe8
 332 251 305 274 273 283 c 257
 273 413 l 257
 309 424 329 446 329 497 c 256
 329 551 290 568 272 571 c 257
 272 698 l 257
 342 698 452 619 452 499 c 256xf0
 452 415 409 352 395 349 c 257
 423 330 460 269 460 199 c 256
 460 53 316 0 276 0 c 258
 275 0 l 257
 274 125 l 257xe8
212 125 m 257
 211 0 l 257
 210 0 l 258
 170 0 26 53 26 199 c 256
 26 269 63 330 91 349 c 257
 77 352 33 415 33 499 c 256
 33 619 144 698 214 698 c 257
 214 571 l 257
 196 568 157 551 157 497 c 256
 157 446 177 424 213 413 c 257
 213 283 l 257
 181 274 154 251 154 201 c 256
 154 165 179 134 212 125 c 257
EndSplineSet
Fore
SplineSet
332.847164905 145.19140625 m 1
 345.053710938 148.10546875 l 2
 386.706316692 155.052734375 422 179.291992188 422 207.098632812 c 0
 422 248.505859375 337.918861607 264.577148438 306.213643973 271.875 c 0
 293.4 274.825195312 l 1
 293.4 421.006835938 l 1
 305.837276786 424.1171875 l 0
 341.592159598 433.05859375 359 446.922851562 359 490.901367188 c 0
 359 533.759765625 322.916796875 545.482421875 306.911467634 547.665039062 c 0
 292.228571429 549.66796875 l 1
 292.228571429 698 l 1
 309.8 698 l 0
 395.53515625 698 512 616.614257812 512 492.818359375 c 0
 512 425.12109375 483.838867188 371.532226562 463.34375 348.676757812 c 1
 492.118164062 320.125976562 520 266.705078125 580 205.181640625 c 0
 580 54.140625 426.872070312 0 351 0 c 0
 335.119140625 0 l 1
 332.847164905 145.19140625 l 1
260.946289062 148.10546875 m 0
 273.152835095 145.19140625 l 1
 270.880859375 0 l 1
 255 0 l 0
 189.745364767 0 26 54.140625 26 205.181640625 c 0
 26 267.0546875 54.95703125 321.192382812 82.5966796875 348.6171875 c 1
 61.078125 372.193359375 33 425.4140625 33 492.818359375 c 0
 33 616.70703125 150.541992188 698 241.857142857 698 c 0
 259.428571429 698 l 1
 259.428571429 549.66796875 l 1
 244.745675223 547.665039062 l 0
 228.788392857 545.48828125 192.657142857 533.677734375 192.657142857 490.901367188 c 0
 192.657142857 446.921875 210.067271205 433.05859375 245.819866071 424.1171875 c 0
 258.257142857 421.006835938 l 1
 258.257142857 274.825195312 l 1
 245.443498884 271.875 l 0
 213.735993304 264.576171875 196.676056338 248.50390625 196.676056338 207.098632812 c 0
 196.676056338 179.291015625 225.660211268 155.053710938 260.946289062 148.10546875 c 0
EndSplineSet
EndChar

StartChar: emdash
Encoding: 272 8212 114
GlifName: emdash
Width: 906
VWidth: 0
GlyphClass: 2
Flags: W
LayerCount: 2
Back
SplineSet
880 357 m 257
 880 230 l 257
 26 230 l 257
 26 357 l 257
 880 357 l 257
EndSplineSet
Fore
SplineSet
895 372 m 1
 895 215 l 1
 11 215 l 1
 11 372 l 1
 895 372 l 1
EndSplineSet
EndChar

StartChar: endash
Encoding: 273 8211 115
GlifName: endash
Width: 532
VWidth: 0
GlyphClass: 2
Flags: W
LayerCount: 2
Back
SplineSet
506 357 m 257
 506 230 l 257
 26 230 l 257
 26 357 l 257
 506 357 l 257
EndSplineSet
Fore
SplineSet
521 372 m 1
 521 215 l 1
 11 215 l 1
 11 372 l 1
 521 372 l 1
EndSplineSet
EndChar

StartChar: equal
Encoding: 61 61 116
GlifName: equal
Width: 418
VWidth: 0
GlyphClass: 2
Flags: W
LayerCount: 2
Back
SplineSet
368 258 m 257
 368 131 l 257
 50 131 l 257
 50 258 l 257
 368 258 l 257
368 452 m 257
 368 325 l 257
 50 325 l 257
 50 452 l 257
 368 452 l 257
EndSplineSet
Fore
SplineSet
383 273 m 1
 383 116 l 1
 35 116 l 1
 35 273 l 1
 383 273 l 1
383 467 m 1
 383 310 l 1
 35 310 l 1
 35 467 l 1
 383 467 l 1
EndSplineSet
EndChar

StartChar: eth
Encoding: 240 240 117
GlifName: eth
Width: 480
VWidth: 0
GlyphClass: 2
Flags: HW
LayerCount: 2
Back
SplineSet
267 558 m 257
 210 541 l 257
 192 598 l 257
 242 614 l 257
 230 627 214 637 192 647 c 257
 192 714 l 257
 250 703 297 679 330 641 c 257
 380 657 l 257
 398 599 l 257
 364 588 l 257
 383 548 392 500 392 442 c 258
 392 376 l 257
 392 364 l 257
 392 141 l 258
 392 96 343 -1 239 -1 c 258
 233 -1 l 257
 233 117 l 257
 239 117 l 258
 270 118 275 141 275 152 c 258
 275 363 l 258
 275 380 269 398 239 398 c 258
 233 398 l 257
 233 516 l 257
 239 516 l 258
 251 516 262 515 273 512 c 257
 271 530 270 545 267 558 c 257
28 376 m 258
 28 421 79 516 186 516 c 258
 192 516 l 257
 192 398 l 257
 186 398 l 258
 153 398 148 373 148 363 c 258
 148 154 l 258
 148 135 156 117 186 117 c 258
 192 117 l 257
 192 -1 l 257
 186 -1 l 258
 78 -1 28 97 28 141 c 258
 28 376 l 258
EndSplineSet
Fore
SplineSet
28 147.389648438 m 2
 28 369.500976562 l 2
 28 419.163085938 84.201171875 516 219.705882353 516 c 2
 235.166934743 516 l 1
 202.383214614 592.732421875 l 1
 253.855755974 604.90625 l 1
 243.712660846 609.650390625 232.89441636 613.819335938 219.42578125 618.344726562 c 2
 207.529411765 622.340820312 l 1
 207.529411765 717.112304688 l 1
 231.604894301 713.737304688 l 2
 296.66796875 702.951171875 344.19140625 679.8828125 379.596679688 643.219726562 c 1
 434.840820312 660.8984375 l 1
 461.71875 574.291015625 l 1
 429.340820312 563.815429688 l 1
 445.344726562 525.08984375 452 483.754882812 452 433.900390625 c 2
 452 148.08203125 l 2
 452 98.8232421875 398.446289062 -1 284 -1 c 2
 263 -1 l 1
 263 147 l 1
 283.7578125 147 l 2
 303.568359375 147.5625 305 158.084960938 305 164.609375 c 2
 305 350.390625 l 2
 305 361.67578125 304.282226562 368 284 368 c 2
 263 368 l 1
 263 512.733398438 l 1
 248.117647059 509.452148438 l 1
 248.117647059 368 l 1
 219.705882353 368 l 2
 190.201459099 368 188.588235294 356.078125 188.588235294 350.390625 c 2
 188.588235294 166.370117188 l 2
 188.588235294 154.025390625 191.855641085 147 219.705882353 147 c 2
 248.117647059 147 l 1
 248.117647059 -1 l 1
 219.705882353 -1 l 2
 82.880859375 -1 28 98.9677734375 28 147.389648438 c 2
300.041992188 523.780273438 m 2
 273.954101562 516 l 1
 284 516 l 2
 289.465820312 516 297.1484375 515.611328125 301.014648438 515.243164062 c 1
 300.498046875 520.049804688 300.374023438 521.067382812 300.041992188 523.780273438 c 2
EndSplineSet
EndChar

StartChar: exclam
Encoding: 33 33 118
GlifName: exclam
Width: 329
VWidth: 0
GlyphClass: 2
Flags: W
LayerCount: 2
Back
SplineSet
88 53 m 256
 88 95 121 129 163 129 c 256
 205 129 238 95 238 53 c 256
 238 11 205 -22 163 -22 c 256
 121 -22 88 11 88 53 c 256
100 166 m 257
 100 700 l 257
 229 700 l 257
 229 166 l 257
 100 166 l 257
EndSplineSet
Fore
SplineSet
73 53 m 0
 73 103.010561694 112.53271486 144 163 144 c 0
 213.467102101 144 253 103.010636334 253 53 c 0
 253 2.8002339321 213.199935667 -37 163 -37 c 0
 112.800233932 -37 73 2.80006433267 73 53 c 0
85 151 m 1
 85 715 l 1
 244 715 l 1
 244 151 l 1
 85 151 l 1
EndSplineSet
EndChar

StartChar: exclamdown
Encoding: 161 161 119
GlifName: exclamdown
Width: 210
VWidth: 0
GlyphClass: 2
Flags: W
LayerCount: 2
Back
SplineSet
26 647 m 256x30
 26 689 59 722 101 722 c 256
 143 722 176 689 176 647 c 256
 176 605 143 571 101 571 c 256
 59 571 26 605 26 647 c 256x30
38 534 m 257xa8
 167 534 l 257
 167 0 l 257
 38 0 l 257
 38 534 l 257xa8
EndSplineSet
Fore
SplineSet
11 647 m 0
 11 697.199766068 50.8000643327 737 101 737 c 0
 151.199766068 737 191 697.199935667 191 647 c 0
 191 596.989438306 151.46728514 556 101 556 c 0
 50.5328978989 556 11 596.989363666 11 647 c 0
23 549 m 1
 182 549 l 1
 182 -15 l 1
 23 -15 l 1
 23 549 l 1
EndSplineSet
EndChar

StartChar: f
Encoding: 102 102 120
GlifName: f
Width: 334
VWidth: 0
GlyphClass: 2
Flags: HW
LayerCount: 2
Back
SplineSet
89 552 m 258xb8
 89 597 140 695 243 696 c 258
 304 696 l 257
 277 579 l 257
 244 579 l 257
 216 578 211 555 211 552 c 258
 211 515 l 257
 277 516 l 257
 277 400 l 257
 211 400 l 257
 211 0 l 257
 89 0 l 257
 89 400 l 257
 26 400 l 257
 26 516 l 257
 89 516 l 257
 89 552 l 258xb8
EndSplineSet
Fore
SplineSet
89 516 m 1
 89 537 l 2
 89 589.069335938 144.46484375 694.8984375 257.926757812 696 c 1
 337.85546875 696 l 1
 303.932617188 549 l 1
 259.267578125 549 l 1
 244.469726562 548.471679688 241.66796875 538.8984375 241 536.125 c 1
 241 515.228515625 l 1
 307 516.228515625 l 1
 307 370 l 1
 241 370 l 1
 241 0 l 1
 89 0 l 1
 89 370 l 1
 26 370 l 1
 26 516 l 1
 89 516 l 1
EndSplineSet
EndChar

StartChar: fi
Encoding: 274 64257 121
GlifName: fi
Width: 554
VWidth: 0
GlyphClass: 2
Flags: HW
LayerCount: 2
Back
SplineSet
468 630 m 256x36
 468 591 435 558 395 558 c 256
 355 558 322 591 322 630 c 256
 322 670 355 703 395 703 c 256
 435 703 468 670 468 630 c 256x36
89 552 m 258
 89 597 140 695 243 696 c 258
 304 696 l 257
 277 579 l 257
 244 579 l 258
 216 578 211 555 211 552 c 258
 211 516 l 257
 457 516 l 257
 457 0 l 257
 335 0 l 257
 335 400 l 257
 211 400 l 257
 211 0 l 257
 89 0 l 257xad
 89 400 l 257
 26 400 l 257
 26 516 l 257
 89 516 l 257
 89 552 l 258
EndSplineSet
Fore
SplineSet
440 703 m 0
 488.328125 703 528 663.328125 528 615 c 0
 528 567.509765625 488.233398438 528 440 528 c 0
 391.766601562 528 348.85483871 567.509765625 348.85483871 615 c 0
 348.85483871 663.328125 391.671875 703 440 703 c 0
89 516 m 1
 89 537 l 2
 89 589.069335938 144.46484375 694.8984375 269.28000567 696 c 1
 367.85546875 696 l 1
 326.416314894 549 l 1
 270.945217994 549 l 1
 252.567241053 548.471679688 249.087638609 538.8984375 248.258064516 536.125 c 1
 248.258064516 516 l 1
 517 516 l 1
 517 0 l 1
 365 0 l 1
 365 370 l 1
 248.258064516 370 l 1
 248.258064516 0 l 1
 89 0 l 1
 89 370 l 1
 26 370 l 1
 26 516 l 1
 89 516 l 1
EndSplineSet
EndChar

StartChar: five
Encoding: 53 53 122
GlifName: five
Width: 582
VWidth: 0
GlyphClass: 2
Flags: HW
LayerCount: 2
Back
SplineSet
409 574 m 257
 171 573 l 257
 159 442 l 257
 172 445 187 447 204 447 c 257
 204 324 l 257
 170 321 148 301 136 286 c 257
 26 354 l 257
 55 700 l 257
 409 700 l 257
 409 574 l 257
258 447 m 257
 401 444 466 333 466 223 c 256
 466 82 363 2 258 0 c 257
 258 126 l 257
 307 135 338 174 338 224 c 256
 338 280 296 319 258 324 c 257
 258 447 l 257
131 175 m 257
 147 144 177 131 204 126 c 257
 204 0 l 257
 120 0 60 46 28 107 c 257
 131 175 l 257
EndSplineSet
Fore
SplineSet
501.584960938 700 m 1
 501.584960938 553.30859375 l 1
 202.279296875 552.362304688 l 1
 193.31640625 460.215820312 l 1
 203.9765625 461.541015625 211.293945312 462 221.584960938 462 c 0
 236.584960938 462 l 1
 236.584960938 310.265625 l 1
 222.903320312 309.057617188 l 0
 194.486328125 306.55078125 175.912109375 289.897460938 165.297851562 276.629882812 c 0
 156.998046875 266.254882812 l 1
 27.8681640625 346.081054688 l 1
 58.7890625 700 l 1
 501.584960938 700 l 1
290.584960938 477.318359375 m 1
 305.913560335 476.997070312 l 2
 488.728515625 473.790039062 558.584960938 353.521484375 558.584960938 238 c 0
 558.584960938 88.5908203125 448.334960938 2.14453125 305.870117188 0.0029296875 c 0
 290.584960938 -0.2880859375 l 1
 290.584960938 153.49609375 l 1
 302.875 155.752929688 l 0
 363.478626926 163.438476562 400.584960938 195.645507812 400.584960938 239 c 0
 400.584960938 287.380859375 347.413350996 320.146484375 303.627929688 324.127929688 c 0
 290.584960938 325.844726562 l 1
 290.584960938 477.318359375 l 1
154.255859375 211.717773438 m 1
 161.9140625 196.879882812 l 2
 174.950195312 171.62109375 199.604492188 160.325195312 224.31640625 155.749023438 c 0
 236.584960938 153.477539062 l 1
 236.584960938 0 l 1
 221.584960938 0 l 0
 131.569335938 0 66.466796875 49.904296875 32.3017578125 115.032226562 c 0
 26 127.043945312 l 1
 154.255859375 211.717773438 l 1
EndSplineSet
EndChar

StartChar: fl
Encoding: 275 64258 123
GlifName: fl
Width: 543
VWidth: 0
GlyphClass: 2
Flags: HW
LayerCount: 2
Back
SplineSet
457 0 m 257xbc
 331 0 l 257
 331 579 l 257
 244 579 l 258
 216 578 211 555 211 552 c 258
 211 515 l 257
 277 516 l 257
 277 400 l 257
 211 400 l 257
 211 0 l 257
 89 0 l 257
 89 400 l 257
 26 400 l 257
 26 516 l 257
 89 516 l 257
 89 552 l 258
 89 597 140 695 243 696 c 258
 457 696 l 257
 457 0 l 257xbc
EndSplineSet
Fore
SplineSet
517 696 m 1
 517 0 l 1
 361 0 l 1
 361 549 l 1
 271.334472656 549 l 1
 252.837158203 548.471679688 249.334960938 538.8984375 248.5 536.125 c 1
 248.5 515.228515625 l 1
 331 516.228515625 l 1
 331 370 l 1
 248.5 370 l 1
 248.5 0 l 1
 89 0 l 1
 89 370 l 1
 26 370 l 1
 26 516 l 1
 89 516 l 1
 89 537 l 0
 89 589.069335938 144.46484375 694.8984375 269.658447266 696 c 1
 517 696 l 1
EndSplineSet
EndChar

StartChar: florin
Encoding: 276 402 124
GlifName: florin
Width: 442
VWidth: 0
GlyphClass: 2
Flags: HW
LayerCount: 2
Back
SplineSet
141 552 m 258
 141 597 192 695 295 696 c 258
 356 696 l 257
 329 579 l 257
 296 579 l 258
 268 578 263 555 263 552 c 258
 263 515 l 257
 329 516 l 257
 329 400 l 257
 263 400 l 257
 263 7 l 257
 263 0 l 257
 263 -30 l 258
 263 -92 221 -168 109 -168 c 258
 26 -168 l 257
 53 -63 l 257
 108 -63 l 258
 136 -62 141 -39 141 -36 c 258
 141 0 l 257
 141 7 l 257
 141 400 l 257
 78 400 l 257
 78 516 l 257
 141 516 l 257
 141 552 l 258
EndSplineSet
Fore
SplineSet
145.344726562 516 m 1
 145.344726562 537 l 2
 145.344726562 589.069335938 200.809570312 694.8984375 344.272460938 696 c 1
 424.201171875 696 l 1
 390.27734375 549 l 1
 345.61328125 549 l 1
 330.814453125 548.471679688 328.012695312 538.8984375 327.344726562 536.125 c 1
 327.344726562 515.228515625 l 1
 393.344726562 516.228515625 l 1
 393.344726562 370 l 1
 327.344726562 370 l 1
 327.344726562 -15 l 0
 327.344726562 -83.822265625 249.055664062 -168 128.344726562 -168 c 0
 26 -168 l 1
 60.7138671875 -33 l 1
 127.077148438 -33 l 1
 141.875976562 -32.4716796875 144.677734375 -22.8984375 145.344726562 -20.125 c 1
 145.344726562 370 l 1
 82.3447265625 370 l 1
 82.3447265625 516 l 1
 145.344726562 516 l 1
EndSplineSet
EndChar

StartChar: four
Encoding: 52 52 125
GlifName: four
Width: 543
VWidth: 0
GlyphClass: 2
Flags: HW
LayerCount: 2
Back
SplineSet
216 272 m 257x38
 216 145 l 257
 26 145 l 257
 26 272 l 257
 216 598 l 257
 216 351 l 257
 170 272 l 257
 216 272 l 257x38
457 272 m 257xbc
 457 145 l 257xbc
 403 145 l 257
 403 0 l 257
 273 0 l 257xba
 273 701 l 257xbc
 403 701 l 257
 403 272 l 257xba
 457 272 l 257xbc
EndSplineSet
Fore
SplineSet
211.091796875 287 m 1
 261.789473684 287 l 1
 261.789473684 130 l 1
 26 130 l 1
 26 276.051757812 l 1
 261.789473684 653.525390625 l 1
 261.789473684 346.951171875 l 1
 211.091796875 287 l 1
463 287 m 1
 517 287 l 1
 517 130 l 1
 463 130 l 1
 463 0 l 1
 303 0 l 1
 303 701 l 1
 463 701 l 1
 463 287 l 1
EndSplineSet
EndChar

StartChar: fraction
Encoding: 277 8260 126
GlifName: fraction
Width: 560
VWidth: 0
GlyphClass: 2
Flags: W
LayerCount: 2
Back
SplineSet
26 -2 m 257
 458 702 l 257
 534 702 l 257
 109 -2 l 257
 26 -2 l 257
EndSplineSet
Fore
SplineSet
-0.803512953373 -17 m 1
 449.605577956 717 l 1
 560.576819702 717 l 1
 117.466024247 -17 l 1
 -0.803512953373 -17 l 1
EndSplineSet
EndChar

StartChar: g
Encoding: 103 103 127
GlifName: g
Width: 475
VWidth: 0
GlyphClass: 2
Flags: HW
LayerCount: 2
Back
SplineSet
236 -181 m 257xf4
 26 -181 l 257
 54 -69 l 257
 234 -69 l 257
 265 -68 272 -43 272 -40 c 258
 272 3 l 257xf4
 260 0 248 -1 234 -1 c 258
 231 -1 l 257
 231 109 l 257xf8
 234 109 l 258
 265 110 272 136 272 139 c 258
 272 374 l 258xf4
 272 377 265 403 234 403 c 258
 231 403 l 257
 231 516 l 257xf8
 234 516 l 258
 247 516 261 514 272 511 c 257
 272 516 l 257xf4
 389 516 l 257xf8
 389 -40 l 258
 389 -83 339 -180 236 -181 c 257xf4
189 516 m 258
 192 516 l 257
 192 403 l 257
 189 403 l 258
 157 403 150 378 150 375 c 258
 150 140 l 258
 150 137 158 112 189 112 c 258
 192 112 l 257
 192 -1 l 257
 189 -1 l 258
 84 -1 35 96 35 139 c 258
 35 378 l 257
 36 422 85 516 189 516 c 258
EndSplineSet
Fore
SplineSet
453.211914062 -25 m 0
 453.211914062 -75.18359375 398.543945312 -179.900390625 285.284179688 -181 c 2
 26 -181 l 1
 61.5 -39 l 1
 282.969726562 -39 l 1
 300.430664062 -38.4365234375 305.0859375 -27.2294921875 306.211914062 -23.7138671875 c 1
 306.211914062 0.1337890625 l 1
 297.432617188 -0.8046875 291.387695312 -1 283.211914062 -1 c 0
 265.211914062 -1 l 1
 265.211914062 128.603515625 l 1
 282.969726562 128.603515625 l 1
 300.12890625 129.116210938 304.951171875 139.8125 306.211914062 143.611328125 c 1
 306.211914062 358.9140625 l 1
 304.74609375 363.317382812 300.233398438 373 283.211914062 373 c 0
 265.211914062 373 l 1
 265.211914062 516 l 1
 283.211914062 516 l 0
 290.622070312 516 300.671875 515.100585938 306.211914062 514.318359375 c 1
 306.211914062 516 l 1
 453.211914062 516 l 1
 453.211914062 -25 l 0
39.2119140625 371.552734375 m 1
 40.375 419.918945312 94.0791015625 516 229.771882234 516 c 2
 254.4385489 516 l 1
 254.4385489 373 l 1
 229.771882234 373 l 0
 203.950303819 373 198.252025463 363.091796875 196.882993345 360.336914062 c 1
 196.882993345 154.864257812 l 1
 199.129918981 150.943359375 206.174479167 142 229.771882234 142 c 0
 254.4385489 142 l 1
 254.4385489 -1 l 1
 229.771882234 -1 l 0
 92.9228515625 -1 39.2119140625 98.146484375 39.2119140625 145.499023438 c 0
 39.2119140625 371.552734375 l 1
EndSplineSet
EndChar

StartChar: germandbls
Encoding: 223 223 128
GlifName: germandbls
Width: 612
VWidth: 0
GlyphClass: 2
Flags: HW
LayerCount: 2
Back
SplineSet
155 0 m 257xe8
 26 0 l 257
 26 457 l 258
 27 531 16 705 226 705 c 256
 396 705 406 575 406 518 c 258
 406 405 l 257xe8
 342 406 l 257
 308 400 305 368 305 361 c 256
 305 349 310 326 391 299 c 256
 441 282 496 243 496 160 c 256
 496 57 420 0 327 0 c 258
 199 0 l 257
 199 109 l 257
 327 109 l 258
 342 110 379 120 379 153 c 256
 379 198 331 200 276 228 c 256
 228 252 191 287 191 371 c 256xf4
 191 446 244 489 294 507 c 257
 294 519 l 258
 294 572 259 586 225 586 c 256
 174 586 155 554 155 498 c 258
 155 0 l 257xe8
EndSplineSet
Fore
SplineSet
210 486.737304688 m 0
 205.454545455 0 l 1
 26 0 l 1
 26 452.83203125 l 1
 26.9609375 521.0703125 16.5 705 271 705 c 0
 453.517578125 705 466 560.864257812 466 503 c 0
 466 381.981445312 l 1
 388.276367188 383.127929688 l 1
 366.6015625 378.422851562 365 359.8984375 365 354.836914062 c 0
 365 352.22265625 360.762695312 334.915039062 440.786132812 309.7421875 c 1
 494.033203125 292.657226562 586 251.298828125 586 165.150390625 c 0
 586 59.234375 501.333984375 0 372 0 c 0
 229 0 l 1
 229 139 l 1
 371.466796875 139 l 1
 398.743058488 140.264648438 439 148.672851562 439 165.788085938 c 0
 439 194.309570312 381.091189823 193.174804688 314.243164062 222.6953125 c 1
 263.126953125 246.303710938 221 284.3046875 221 367.157226562 c 0
 221 439.557617188 273.831054688 482.584960938 324 502.248046875 c 1
 324 504 l 0
 324 546.958007812 299.7578125 556 270 556 c 0
 229.28125 556 210 536.5859375 210 486.737304688 c 0
EndSplineSet
EndChar

StartChar: grave
Encoding: 96 96 129
GlifName: grave
Width: 263
VWidth: 0
GlyphClass: 2
Flags: W
LayerCount: 2
Back
SplineSet
122 605 m 257
 49 757 l 257
 176 757 l 257
 213 605 l 257
 122 605 l 257
EndSplineSet
Fore
SplineSet
112.56372929 590 m 1
 25.1558345535 772 l 1
 187.786692728 772 l 1
 232.089324307 590 l 1
 112.56372929 590 l 1
EndSplineSet
EndChar

StartChar: greater
Encoding: 62 62 130
GlifName: greater
Width: 414
VWidth: 0
GlyphClass: 2
Flags: W
LayerCount: 2
Back
SplineSet
30 500 m 257
 384 322 l 257
 384 258 l 257
 30 79 l 257
 30 206 l 257
 206 292 l 257
 30 370 l 257
 30 500 l 257
EndSplineSet
Fore
SplineSet
15 524.331875217 m 1
 399 331.247129454 l 1
 399 248.776165564 l 1
 15 54.6066740389 l 1
 15 215.365430933 l 1
 170.475841803 291.336580904 l 1
 15 360.240647158 l 1
 15 524.331875217 l 1
EndSplineSet
EndChar

StartChar: guillemotleft
Encoding: 171 171 131
GlifName: guillemotleft
Width: 475
VWidth: 0
GlyphClass: 2
Flags: W
LayerCount: 2
Back
SplineSet
238 477 m 257
 238 352 l 257
 149 292 l 257
 238 224 l 257
 238 102 l 257
 27 259 l 257
 27 321 l 257
 238 477 l 257
449 477 m 257
 449 352 l 257
 360 292 l 257
 449 224 l 257
 449 102 l 257
 238 259 l 257
 238 321 l 257
 449 477 l 257
EndSplineSet
Fore
SplineSet
464 506.744514719 m 1
 464 344.022035737 l 1
 385.703951425 291.238182765 l 1
 464 231.41648273 l 1
 464 72.1420449431 l 1
 253 229.142044943 l 1
 253 72.1420449431 l 1
 12 251.464319825 l 1
 12 328.564419932 l 1
 253 506.744514719 l 1
 253 350.744514719 l 1
 464 506.744514719 l 1
223 254.337831044 m 1
 223 323.797316636 l 1
 174.703951425 291.238182765 l 1
 223 254.337831044 l 1
EndSplineSet
EndChar

StartChar: guillemotright
Encoding: 187 187 132
GlifName: guillemotright
Width: 414
VWidth: 0
GlyphClass: 2
Flags: W
LayerCount: 2
Back
SplineSet
26 477 m 257
 237 321 l 257
 237 259 l 257
 26 102 l 257
 26 224 l 257
 115 292 l 257
 26 352 l 257
 26 477 l 257
237 477 m 257
 448 321 l 257
 448 259 l 257
 237 102 l 257
 237 224 l 257
 326 292 l 257
 237 352 l 257
 237 477 l 257
EndSplineSet
Fore
SplineSet
222 506.744514719 m 1
 463 328.564419932 l 1
 463 251.464319825 l 1
 222 72.1420449431 l 1
 222 229.142044943 l 1
 11 72.1420449431 l 1
 11 231.41648273 l 1
 89.2960485753 291.238182765 l 1
 11 344.022035737 l 1
 11 506.744514719 l 1
 222 350.744514719 l 1
 222 506.744514719 l 1
252 254.337831044 m 1
 300.296048575 291.238182765 l 1
 252 323.797316636 l 1
 252 254.337831044 l 1
EndSplineSet
EndChar

StartChar: guilsinglleft
Encoding: 278 8249 133
GlifName: guilsinglleft
Width: 338
VWidth: 0
GlyphClass: 2
Flags: W
LayerCount: 2
Back
SplineSet
157 500 m 257
 312 500 l 257
 181 292 l 257
 312 79 l 257
 157 79 l 257
 26 292 l 257
 157 500 l 257
EndSplineSet
Fore
SplineSet
148.720074202 515 m 1
 339.174156567 515 l 1
 198.667754057 291.905864717 l 1
 338.835210761 64 l 1
 148.615493465 64 l 1
 8.33224594297 292.094135283 l 1
 148.720074202 515 l 1
EndSplineSet
EndChar

StartChar: guilsinglright
Encoding: 279 8250 134
GlifName: guilsinglright
Width: 338
VWidth: 0
GlyphClass: 2
Flags: W
LayerCount: 2
Back
SplineSet
181 500 m 257
 312 292 l 257
 181 79 l 257
 26 79 l 257
 157 292 l 257
 26 500 l 257
 181 500 l 257
EndSplineSet
Fore
SplineSet
189.279925798 515 m 1
 329.667754057 292.094135283 l 1
 189.384506535 64 l 1
 -0.835210760685 64 l 1
 139.332245943 291.905864717 l 1
 -1.17415656723 515 l 1
 189.279925798 515 l 1
EndSplineSet
EndChar

StartChar: h
Encoding: 104 104 135
GlifName: h
Width: 481
VWidth: 0
GlyphClass: 2
Flags: HW
LayerCount: 2
Back
SplineSet
145 1 m 257xb6
 30 1 l 257xb6
 30 698 l 257
 144 698 l 257
 144 505 l 257
 147 506 l 258
 159 509 176 511 190 511 c 258
 193 511 l 257
 193 399 l 257xba
 190 399 l 258
 158 396 145 370 145 365 c 258
 145 1 l 257xb6
238 511 m 257
 241 511 l 256
 338 507 395 444 395 374 c 258
 395 1 l 257
 281 1 l 257
 281 365 l 258
 281 369 275 396 241 399 c 258
 238 399 l 257
 238 511 l 257
EndSplineSet
Fore
SplineSet
175 349.934570312 m 1
 175 1 l 1
 30 1 l 1
 30 698 l 1
 174 698 l 1
 174 508.595703125 l 1
 185.961914062 510.328125 195.330877131 511 209.090909091 511 c 0
 233.227272727 511 l 1
 233.227272727 369 l 1
 210.070401278 369 l 1
 185.967773438 366.849609375 177.209960938 354.530273438 175 349.934570312 c 1
253.340909091 369 m 1
 253.340909091 511 l 1
 277.892378374 511 l 1
 390.409179688 506.9453125 455 442.065429688 455 367.444335938 c 0
 455 1 l 1
 311 1 l 1
 311 350.862304688 l 1
 309.71932706 355.130859375 303.639404297 366.88671875 276.580277876 369 c 1
 253.340909091 369 l 1
EndSplineSet
EndChar

StartChar: hungarumlaut
Encoding: 280 733 136
GlifName: hungarumlaut
Width: 336
VWidth: 0
GlyphClass: 2
Flags: W
LayerCount: 2
Back
SplineSet
109 605 m 257
 26 605 l 257
 55 757 l 257
 167 757 l 257
 109 605 l 257
252 605 m 257
 169 605 l 257
 198 757 l 257
 310 757 l 257
 252 605 l 257
EndSplineSet
Fore
SplineSet
262.331239051 590 m 1
 150.867593392 590 l 1
 182.403947733 755.293995165 l 1
 119.331239051 590 l 1
 7.86759339189 590 l 1
 42.5912776024 772 l 1
 185.591277602 772 l 1
 188.778607472 772 l 1
 331.778607472 772 l 1
 262.331239051 590 l 1
EndSplineSet
EndChar

StartChar: hyphen
Encoding: 45 45 137
GlifName: hyphen
Width: 416
VWidth: 0
GlyphClass: 2
Flags: W
LayerCount: 2
Back
SplineSet
366 357 m 257
 366 230 l 257
 50 230 l 257
 50 357 l 257
 366 357 l 257
EndSplineSet
Fore
SplineSet
381 372 m 1
 381 215 l 1
 35 215 l 1
 35 372 l 1
 381 372 l 1
EndSplineSet
EndChar

StartChar: i
Encoding: 105 105 138
GlifName: i
Width: 229
VWidth: 0
GlyphClass: 2
Flags: HW
LayerCount: 2
Back
SplineSet
172 630 m 256x38
 172 591 139 558 99 558 c 256
 59 558 26 591 26 630 c 256
 26 670 59 703 99 703 c 256
 139 703 172 670 172 630 c 256x38
161 0 m 257xb4
 39 0 l 257
 39 516 l 257
 161 516 l 257
 161 0 l 257xb4
EndSplineSet
Fore
SplineSet
114 703 m 0
 162.328125 703 202 663.328125 202 615 c 0
 202 567.509765625 162.233398438 528 114 528 c 0
 65.7666015625 528 26 567.509765625 26 615 c 0
 26 663.328125 65.671875 703 114 703 c 0
191 516 m 1
 191 0 l 1
 39 0 l 1
 39 516 l 1
 191 516 l 1
EndSplineSet
EndChar

StartChar: iacute
Encoding: 237 237 139
GlifName: iacute
Width: 229
VWidth: 0
GlyphClass: 2
Flags: HW
LayerCount: 2
Back
SplineSet
161 0 m 257xb0
 39 0 l 257
 39 516 l 257
 161 516 l 257
 161 0 l 257xb0
144 577 m 257
 54 577 l 257
 90 729 l 257
 218 729 l 257
 144 577 l 257
EndSplineSet
Fore
SplineSet
191 516 m 1
 191 0 l 1
 39 0 l 1
 39 516 l 1
 191 516 l 1
256.985351562 729 m 1
 168.380859375 547 l 1
 50.0322265625 547 l 1
 93.1376953125 729 l 1
 256.985351562 729 l 1
EndSplineSet
EndChar

StartChar: idieresis
Encoding: 239 239 141
GlifName: idieresis
Width: 259
VWidth: 0
GlyphClass: 2
Flags: HW
LayerCount: 2
Back
SplineSet
161 0 m 257xb4
 39 0 l 257
 39 516 l 257
 161 516 l 257
 161 0 l 257xb4
109 651 m 256x32
 109 693 142 727 184 727 c 256
 226 727 259 693 259 651 c 256
 259 609 226 576 184 576 c 256
 142 576 109 609 109 651 c 256x32
-61 651 m 256x38
 -61 693 -28 727 14 727 c 256
 56 727 89 693 89 651 c 256
 89 609 56 576 14 576 c 256
 -28 576 -61 609 -61 651 c 256x38
EndSplineSet
Fore
SplineSet
29 546 m 0
 -21.2001953125 546 -61 585.799804688 -61 636 c 0
 -61 686.010742188 -21.466796875 727 29 727 c 0
 68.8310546875 727 101.8515625 701.466796875 114 666.118164062 c 1
 126.1484375 701.466796875 159.168945312 727 229 727 c 0
 279.466796875 727 319 686.010742188 319 636 c 0
 319 585.799804688 279.200195312 546 229 546 c 0
 159.349609375 546 126.186523438 570.830078125 114 606.002929688 c 1
 101.813476562 570.830078125 68.650390625 546 29 546 c 0
221 516 m 1
 221 0 l 1
 39 0 l 1
 39 516 l 1
 221 516 l 1
EndSplineSet
EndChar

StartChar: igrave
Encoding: 236 236 142
GlifName: igrave
Width: 229
VWidth: 0
GlyphClass: 2
Flags: HW
LayerCount: 2
Back
SplineSet
161 0 m 257xb0
 39 0 l 257
 39 516 l 257
 161 516 l 257
 161 0 l 257xb0
54 577 m 257
 -20 729 l 257
 108 729 l 257
 144 577 l 257
 54 577 l 257
EndSplineSet
Fore
SplineSet
199.985351562 516 m 1
 199.985351562 0 l 1
 47.9853515625 0 l 1
 47.9853515625 516 l 1
 199.985351562 516 l 1
186.953125 547 m 1
 68.60546875 547 l 1
 -20 729 l 1
 143.84765625 729 l 1
 186.953125 547 l 1
EndSplineSet
EndChar

StartChar: j
Encoding: 106 106 143
GlifName: j
Width: 224
VWidth: 0
GlyphClass: 2
Flags: HW
LayerCount: 2
Back
SplineSet
159 -38 m 258xe8
 159 -85 109 -181 7 -181 c 258
 -50 -181 l 257
 -23 -64 l 257
 4 -64 l 257
 32 -63 37 -40 37 -38 c 258
 37 516 l 257
 159 516 l 257
 159 -38 l 258xe8
170 628 m 256xf0
 170 588 137 556 97 556 c 256
 57 556 24 588 24 628 c 256
 24 668 57 702 97 702 c 256
 137 702 170 668 170 628 c 256xf0
EndSplineSet
Fore
SplineSet
192.85546875 516 m 1
 192.85546875 -23 l 2
 192.85546875 -76.8525390625 138.328125 -181 25.85546875 -181 c 0
 -50 -181 l 1
 -16.0771484375 -34 l 1
 22.587890625 -34 l 1
 36.8349609375 -33.4912109375 39.884765625 -24.84375 40.85546875 -21.7041015625 c 1
 40.85546875 516 l 1
 192.85546875 516 l 1
115.85546875 702 m 0
 164.45703125 702 203.85546875 661.133789062 203.85546875 613 c 0
 203.85546875 564.474609375 163.905273438 526 115.85546875 526 c 0
 67.8056640625 526 27.85546875 564.474609375 27.85546875 613 c 0
 27.85546875 661.133789062 67.25390625 702 115.85546875 702 c 0
EndSplineSet
EndChar

StartChar: k
Encoding: 107 107 144
GlifName: k
Width: 512
VWidth: 0
GlyphClass: 2
Flags: HW
LayerCount: 2
Back
SplineSet
155 0 m 257xb8
 30 0 l 257
 30 698 l 257
 155 698 l 257
 155 0 l 257xb8
296 0 m 257
 183 257 l 257
 295 514 l 257
 428 514 l 257
 313 257 l 257
 428 0 l 257
 296 0 l 257
EndSplineSet
Fore
SplineSet
191.19942284 264.298828125 m 1
 191.19942284 0 l 1
 30 0 l 1
 30 698 l 1
 191.19942284 698 l 1
 191.19942284 249.715820312 l 1
 330.174804688 514 l 1
 496.145507812 514 l 1
 374.43359375 257 l 1
 496.145507812 -0 l 1
 331.208984375 0 l 1
 191.19942284 264.298828125 l 1
EndSplineSet
EndChar

StartChar: l
Encoding: 108 108 145
GlifName: l
Width: 214
VWidth: 0
GlyphClass: 2
Flags: W
HStem: 0 21G<30 191> 678 20G<30 191>
VStem: 30 161<0 698>
LayerCount: 2
Back
SplineSet
161 0 m 257
 30 0 l 257
 30 698 l 257
 161 698 l 257
 161 0 l 257
EndSplineSet
Fore
SplineSet
191 698 m 1
 191 0 l 1
 30 0 l 1
 30 698 l 1
 191 698 l 1
EndSplineSet
EndChar

StartChar: less
Encoding: 60 60 146
GlifName: less
Width: 414
VWidth: 0
GlyphClass: 2
Flags: W
LayerCount: 2
Back
SplineSet
384 500 m 257
 384 370 l 257
 208 292 l 257
 384 206 l 257
 384 79 l 257
 30 258 l 257
 30 322 l 257
 384 500 l 257
EndSplineSet
Fore
SplineSet
399 524.331875217 m 1
 399 360.240647158 l 1
 243.524158197 291.336580904 l 1
 399 215.365430933 l 1
 399 54.6066740389 l 1
 15 248.776165564 l 1
 15 331.247129454 l 1
 399 524.331875217 l 1
EndSplineSet
EndChar

StartChar: logicalnot
Encoding: 172 172 147
GlifName: logicalnot
Width: 502
VWidth: 0
GlyphClass: 2
Flags: W
LayerCount: 2
Back
SplineSet
476 208 m 257
 358 208 l 257
 358 327 l 257
 26 327 l 257
 26 442 l 257
 476 442 l 257
 476 208 l 257
EndSplineSet
Fore
SplineSet
491 193 m 1
 343 193 l 1
 343 312 l 1
 11 312 l 1
 11 457 l 1
 491 457 l 1
 491 193 l 1
EndSplineSet
EndChar

StartChar: lslash
Encoding: 281 322 148
GlifName: lslash
Width: 484
VWidth: 0
GlyphClass: 2
Flags: HW
LayerCount: 2
Back
SplineSet
326 536 m 257
 398 443 l 257
 98 209 l 257
 26 302 l 257
 326 536 l 257
EndSplineSet
Refer: 145 108 N 1 0 0 1 117 0 2
Fore
SplineSet
26 289.635742188 m 1
 379.655273438 542.086914062 l 1
 470.020507812 425.364257812 l 1
 116.365234375 172.913085938 l 1
 26 289.635742188 l 1
EndSplineSet
Refer: 145 108 N 1 0 0 1 117 0 2
EndChar

StartChar: m
Encoding: 109 109 149
GlifName: m
Width: 774
VWidth: 0
GlyphClass: 2
Flags: HW
LayerCount: 2
Back
SplineSet
154 372 m 257xbc
 154 0 l 257
 30 0 l 257
 30 377 l 258
 30 425 84 519 189 519 c 258
 195 519 l 257
 195 398 l 257
 189 398 l 258
 159 398 154 374 154 372 c 257xbc
530 372 m 257
 530 375 524 398 494 398 c 258
 488 398 l 257
 488 519 l 257
 494 519 l 258
 600 519 654 422 654 377 c 258
 654 0 l 257
 530 0 l 257
 530 372 l 257
280 0 m 257
 280 372 l 258
 280 375 273 398 243 398 c 258
 237 398 l 257
 237 519 l 257
 243 519 l 258
 285 519 317 505 342 486 c 257
 367 506 399 519 441 519 c 258
 447 519 l 257
 447 398 l 257
 441 398 l 258
 410 398 404 374 404 372 c 257
 404 0 l 257
 280 0 l 257
EndSplineSet
Fore
SplineSet
215.904761905 368 m 0
 195.549944196 368 192.278180804 359.494140625 191.142857143 356.666992188 c 2
 191.142857143 0 l 1
 30 0 l 1
 30 370.579101562 l 0
 30 423.270507812 89.3251953125 519 215.904761905 519 c 0
 241.904761905 519 l 1
 241.904761905 368 l 1
 215.904761905 368 l 0
590 0 m 1
 590 356.741210938 l 1
 588.657924107 359.89453125 584.643787202 368 564 368 c 0
 538 368 l 1
 538 519 l 1
 564 519 l 0
 684.822265625 519 744 420.452148438 744 370.579101562 c 0
 744 0 l 1
 590 0 l 1
471.142857143 0 m 1
 310 0 l 1
 310 356.493164062 l 1
 308.235956101 360.001953125 303.198939732 368 282.761904762 368 c 0
 256.761904762 368 l 1
 256.761904762 519 l 1
 282.761904762 519 l 0
 328.529296875 519 360.921875 506.696289062 386.811523438 489.560546875 c 1
 413.255859375 507.854492188 448.522228423 519 498.380952381 519 c 0
 524.380952381 519 l 1
 524.380952381 368 l 1
 498.380952381 368 l 0
 476.716703869 368 472.424479167 359.092773438 471.142857143 356.37890625 c 1
 471.142857143 0 l 1
EndSplineSet
EndChar

StartChar: mu
Encoding: 181 181 152
GlifName: mu
Width: 468
VWidth: 0
GlyphClass: 2
Flags: W
LayerCount: 2
Back
SplineSet
26 698 m 257xb5
 150 698 l 257
 150 356 l 257
 150 326 l 258xb3
 150 323 156 300 187 300 c 258
 192 300 l 257
 192 179 l 257xb5
 187 179 l 258
 174 179 162 180 150 183 c 257
 150 0 l 257
 26 0 l 257xb3
 26 321 l 257
 26 356 l 257
 26 698 l 257xb5
276 700 m 257x29
 400 700 l 257x29
 400 698 l 257
 400 328 l 258
 400 325 406 302 437 302 c 258
 442 302 l 257
 442 181 l 257
 437 181 l 258
 397 181 364 194 339 213 c 257
 313 193 280 179 239 179 c 258
 234 179 l 257
 234 300 l 257
 239 300 l 258
 270 300 276 324 276 326 c 258
 276 698 l 257x31
 276 700 l 257x29
EndSplineSet
Fore
SplineSet
11 713 m 1
 165 713 l 1
 165 327.196535882 l 1
 165.964293674 324.15901081 169.178791805 315 187 315 c 0
 207 315 l 1
 207 164 l 1
 187 164 l 0
 179.575862775 164 172.214485085 164.359571955 165 165.120555428 c 1
 165 -15 l 1
 11 -15 l 1
 11 713 l 1
261 715 m 1
 415 715 l 1
 415 329.196535882 l 1
 415.964293674 326.15901081 419.178791805 317 437 317 c 0
 457 317 l 1
 457 166 l 1
 437 166 l 0
 398.229194128 166 364.605723855 177.82428462 339.093152878 194.557951842 c 1
 311.431903471 175.879818195 278.869682768 164 239 164 c 0
 219 164 l 1
 219 315 l 1
 239 315 l 0
 256.497742369 315 259.964825101 324.632914939 261 327.568094399 c 1
 261 715 l 1
EndSplineSet
EndChar

StartChar: multiply
Encoding: 215 215 153
GlifName: multiply
Width: 757
VWidth: 0
GlyphClass: 2
Flags: HW
LayerCount: 2
Back
SplineSet
260 417 m 257
 100 578 l 257
 189 667 l 257
 349 507 l 257
 508 666 l 257
 597 577 l 257
 438 418 l 257
 597 259 l 257
 507 170 l 257
 349 328 l 257
 190 168 l 257
 101 257 l 257
 260 417 l 257
EndSplineSet
Fore
SplineSet
263.828307603 417 m 1
 100 567.426757812 l 1
 210.180664062 677.606445312 l 1
 385.227049373 528.212890625 l 1
 559.180664062 676.606445312 l 1
 669.393554688 566.393554688 l 1
 506.697904306 418 l 1
 669.453125 269.606445312 l 1
 558.12109375 159.51171875 l 1
 385.263644112 306.75390625 l 1
 211.213867188 157.360351562 l 1
 101 267.573242188 l 1
 263.828307603 417 l 1
EndSplineSet
EndChar

StartChar: n
Encoding: 110 110 154
GlifName: n
Width: 494
VWidth: 0
GlyphClass: 2
Flags: W
HStem: 0 21G<30 191.143 310 464> 368 151<195.022 243.143 258 304.9>
VStem: 30 161.143<0 367.844> 310 154<0 367.799>
LayerCount: 2
Back
SplineSet
280 372 m 257
 280 375 273 398 243 398 c 258
 238 398 l 257
 238 519 l 257
 243 519 l 258
 350 519 404 422 404 377 c 258
 404 0 l 257
 280 0 l 257
 280 372 l 257
154 372 m 257
 154 0 l 257
 30 0 l 257
 30 377 l 258
 30 425 84 519 191 519 c 258
 196 519 l 257
 196 398 l 257
 191 398 l 258
 160 398 154 374 154 372 c 257
EndSplineSet
Fore
SplineSet
310 0 m 1
 310 356.493164062 l 1
 308.235956101 360.001953125 303.198939732 368 282.761904762 368 c 0
 258 368 l 1
 258 519 l 1
 282.761904762 519 l 0
 404.748046875 519 464 420.499023438 464 370.579101562 c 0
 464 0 l 1
 310 0 l 1
218.380952381 368 m 0
 196.716703869 368 192.424479167 359.092773438 191.142857143 356.37890625 c 1
 191.142857143 0 l 1
 30 0 l 1
 30 370.579101562 l 0
 30 423.364257812 89.4736328125 519 218.380952381 519 c 0
 243.142857143 519 l 1
 243.142857143 368 l 1
 218.380952381 368 l 0
EndSplineSet
EndChar

StartChar: nine
Encoding: 57 57 155
GlifName: nine
Width: 564
VWidth: 0
GlyphClass: 2
Flags: HW
LayerCount: 2
Back
SplineSet
218 274 m 257
 94 274 26 359 26 485 c 256
 26 610 117 699 218 700 c 257
 218 576 l 257
 183 572 145 540 145 491 c 256
 145 409 198 395 217 390 c 257
 218 274 l 257
142 178 m 257
 164 150 175 132 218 127 c 257
 218 1 l 257
 140 1 76 51 43 115 c 257
 142 178 l 257
272 2 m 257
 272 127 l 257
 344 142 349 248 349 300 c 257
 330 285 302 274 272 274 c 257
 272 392 l 257
 273 392 l 256
 293 397 340 413 340 490 c 256
 340 529 310 571 272 575 c 257
 272 700 l 257
 447 700 478 513 478 341 c 256
 478 224 444 6 272 2 c 257
EndSplineSet
Fore
SplineSet
263.29604205 259 m 1
 245.941176471 259 l 2
 99.9130859375 259 26 349.92578125 26 477.565429688 c 0
 26 605.568359375 122.822265625 698.9453125 245.770909926 699.999023438 c 0
 263.147058824 700.149414062 l 1
 263.147058824 552.6328125 l 1
 247.894761029 551.163085938 l 0
 215.774873621 548.068359375 179.411764706 522.69140625 179.411764706 483.37109375 c 0
 179.411764706 413.045898438 228.935805377 404.2109375 249.172880285 399.721679688 c 0
 261.885742188 396.900390625 l 1
 263.29604205 259 l 1
160.404296875 212.946289062 m 1
 168.794921875 202.267578125 l 2
 191.5 173.370117188 196.994140625 161.288085938 234.732421875 156.899414062 c 0
 248 155.356445312 l 1
 248 1 l 1
 233 1 l 0
 148.225585938 1 79.6787109375 55.2255859375 44.66796875 123.125976562 c 0
 38.390625 135.30078125 l 1
 160.404296875 212.946289062 l 1
299.036345529 2.00390625 m 0
 279.128712871 1.6474609375 l 1
 279.128712871 145.794921875 l 1
 294.615804842 148.145507812 l 0
 356.293113784 157.565429688 374.754254332 219.734375 378.326775046 272.907226562 c 1
 356.203326057 263.885742188 333.58700023 259 307.882352941 259 c 0
 290.676470588 259 l 1
 290.676470588 407 l 1
 306.852912454 407 l 1
 327.639993107 411.606445312 368.676470588 422.90234375 368.676470588 485.958007812 c 0
 368.676470588 517.174804688 338.323098575 549.8125 306.081112132 552.626953125 c 0
 290.676470588 553.971679688 l 1
 290.676470588 700 l 1
 307.882352941 700 l 0
 507.860351562 700 538 504.143554688 538 341.412109375 c 0
 538 230.971679688 505.583007812 6.201171875 299.036345529 2.00390625 c 0
EndSplineSet
EndChar

StartChar: numbersign
Encoding: 35 35 157
GlifName: numbersign
Width: 888
VWidth: 0
GlyphClass: 2
Flags: W
LayerCount: 2
Back
SplineSet
335 22 m 257
 214 22 l 257
 241 176 l 257
 101 176 l 257
 126 297 l 257
 263 297 l 257
 281 404 l 257
 135 404 l 257
 157 525 l 257
 303 525 l 257
 330 682 l 257
 451 682 l 257
 423 524 l 257
 529 524 l 257
 556 682 l 257
 677 682 l 257
 649 524 l 257
 787 524 l 257
 768 403 l 257
 628 404 l 257
 609 296 l 257
 752 296 l 257
 734 175 l 257
 588 176 l 257
 561 22 l 257
 441 22 l 257
 467 176 l 257
 362 176 l 257
 335 22 l 257
507 404 m 257
 402 404 l 257
 383 297 l 257
 489 296 l 257
 507 404 l 257
EndSplineSet
Fore
SplineSet
347.598925519 7 m 1
 196.141334222 7 l 1
 223.141334222 161 l 1
 82.5840096518 161 l 1
 113.782356759 312 l 1
 250.312599603 312 l 1
 263.265870631 389 l 1
 117.026809244 389 l 1
 144.481354699 540 l 1
 290.359419801 540 l 1
 317.359419801 697 l 1
 468.891946215 697 l 1
 440.891946215 539 l 1
 516.345851753 539 l 1
 543.345851753 697 l 1
 694.891946215 697 l 1
 666.891946215 539 l 1
 804.539171715 539 l 1
 780.813995578 387.908088812 l 1
 640.575596819 388.90979166 l 1
 626.869244583 311 l 1
 769.396469023 311 l 1
 746.920442045 159.911151977 l 1
 600.583752583 160.91345807 l 1
 573.598925519 7 l 1
 423.255254801 7 l 1
 449.255254801 161 l 1
 374.598925519 161 l 1
 347.598925519 7 l 1
489.293093674 389 m 1
 414.571096808 389 l 1
 400.868385204 311.832097811 l 1
 476.313152794 311.12035472 l 1
 489.293093674 389 l 1
EndSplineSet
EndChar

StartChar: o
Encoding: 111 111 158
GlifName: o
Width: 480
VWidth: 0
GlyphClass: 2
Flags: W
HStem: -1 148<189.908 239.48 253.079 300.659> 368 148<190.125 239.48 253.079 300.454>
VStem: 28 211.48<82.2456 147 368 431.589> 28 157.087<147.184 367.701> 253.079 198.921<81.9768 147 368 434.483> 305 147<147.219 367.926>
LayerCount: 2
Back
SplineSet
28 376 m 258
 28 421 79 516 186 516 c 258
 192 516 l 257
 192 398 l 257
 186 398 l 258
 153 398 148 373 148 363 c 257
 148 154 l 257
 148 135 156 117 186 117 c 258
 192 117 l 257
 192 -1 l 257
 186 -1 l 258
 78 -1 28 97 28 141 c 258
 28 376 l 258
233 398 m 257
 233 516 l 257
 239 516 l 258
 342 516 392 421 392 376 c 258
 392 141 l 258
 392 96 343 -1 239 -1 c 258
 233 -1 l 257
 233 117 l 257
 239 117 l 258
 270 118 275 141 275 152 c 257
 275 363 l 257
 275 380 269 398 239 398 c 258
 233 398 l 257
EndSplineSet
Fore
SplineSet
28 147.389648438 m 0xd0
 28 369.500976562 l 2
 28 419.163085938 84.201171875 516 213.519685039 516 c 0
 239.480314961 516 l 1
 239.480314961 368 l 1xe0
 213.519685039 368 l 0
 186.560662217 368 185.086614173 356.078125 185.086614173 350.390625 c 0
 185.086614173 166.370117188 l 0xd0
 185.086614173 154.025390625 188.072134904 147 213.519685039 147 c 0
 239.480314961 147 l 1
 239.480314961 -1 l 1xe0
 213.519685039 -1 l 0
 82.880859375 -1 28 98.9677734375 28 147.389648438 c 0xd0
279.039370079 368 m 0
 253.078740157 368 l 1
 253.078740157 516 l 1
 279.039370079 516 l 0
 397.19921875 516 452 418.81640625 452 369.500976562 c 0xc8
 452 147.389648438 l 0xc4
 452 98.3603515625 398.446289062 -1 279.039370079 -1 c 0
 253.078740157 -1 l 1
 253.078740157 147 l 1xc8
 278.739972933 147 l 1
 303.23017655 147.5625 305 158.084960938 305 164.609375 c 0
 305 350.390625 l 0xc4
 305 361.67578125 304.112673782 368 279.039370079 368 c 0
EndSplineSet
EndChar

StartChar: oe
Encoding: 283 339 162
GlifName: oe
Width: 761
VWidth: 0
GlyphClass: 2
Flags: HW
LayerCount: 2
Back
SplineSet
487 402 m 258
 483 402 l 257
 483 516 l 257
 489 516 l 258
 559 516 644 450 644 378 c 258
 644 208 l 257
 395 208 l 257
 395 141 l 258
 395 138 402 109 430 108 c 258
 489 108 l 258
 519 108 541 132 545 153 c 258
 546 157 l 257
 645 120 l 257
 644 118 l 257
 629 54 559 0 489 0 c 258
 430 0 l 258
 390 0 359 14 334 34 c 257
 310 14 277 -1 237 -1 c 258
 231 -1 l 257
 231 113 l 257
 237 113 l 258
 268 114 273 138 273 140 c 258
 273 372 l 258
 273 375 267 398 237 398 c 258
 231 398 l 257
 231 516 l 257
 237 516 l 258
 277 516 309 502 333 482 c 257
 358 502 390 516 429 516 c 258
 434 516 l 257
 434 400 l 257
 431 400 l 258
 402 400 395 380 395 369 c 258
 395 324 l 257
 530 324 l 257
 530 369 l 258
 530 396 507 402 487 402 c 258
26 376 m 258
 26 421 77 516 184 516 c 258
 190 516 l 257
 190 398 l 257
 184 398 l 258
 151 398 146 374 146 373 c 258
 146 142 l 258
 146 139 154 113 184 113 c 258
 190 113 l 257
 190 -1 l 257
 184 -1 l 258
 76 -1 26 97 26 141 c 258
 26 376 l 258
EndSplineSet
Fore
SplineSet
590 366.65625 m 0
 590 379.520507812 579.07280816 383.25 555.777777778 383.25 c 2
 532.555555556 383.25 l 1
 532.555555556 516 l 1
 558.222222222 516 l 0
 640.876953125 516 734 449.137695312 734 369.790039062 c 0
 734 193 l 1
 473 193 l 1
 473 145.686523438 l 1
 475.4953125 139.662109375 484.8 128.896484375 505.174804688 128.047851562 c 1
 564 128.047851562 l 0
 585.823242188 128.047851562 602.533203125 145.18359375 605.264648438 158.489257812 c 0
 605.344726562 158.876953125 l 1
 610.520507812 178.088867188 l 1
 740.875976562 132.883789062 l 1
 733.416015625 119.040039062 l 0
 699.872070312 56.7900390625 652.8359375 0 564 0 c 0
 505 0 l 0
 442.9453125 0 404.58203125 12.4609375 379.140625 30.146484375 c 1
 352.903320312 11.423828125 320.778320312 -1 277.039370079 -1 c 0
 251.078740157 -1 l 1
 251.078740157 143 l 1
 276.739972933 143 l 1
 298.193951464 143.494140625 301.981083907 152.278320312 303 154.7109375 c 1
 303 357.255859375 l 1
 301.659956324 360.264648438 297.651897761 368 277.039370079 368 c 0
 251.078740157 368 l 1
 251.078740157 516 l 1
 277.039370079 516 l 0
 320.71484375 516 353.201171875 503.5546875 378.15234375 485.834960938 c 1
 403.962890625 503.833984375 438.611545139 516 484.888888889 516 c 0
 509.333333333 516 l 1
 509.333333333 370 l 1
 487.333333333 370 l 0
 463.519097222 370 461.666666667 362.768554688 461.666666667 359.217773438 c 0
 461.666666667 339 l 1
 590 339 l 1
 590 366.65625 l 0
26 147.389648438 m 0
 26 369.500976562 l 2
 26 419.163085938 82.201171875 516 211.519685039 516 c 0
 237.480314961 516 l 1
 237.480314961 368 l 1
 211.519685039 368 l 0
 187.823849656 368 184.169514333 359.65625 183.086614173 357.579101562 c 1
 183.086614173 156.62109375 l 1
 185.124446358 152.325195312 191.700318344 143 211.519685039 143 c 0
 237.480314961 143 l 1
 237.480314961 -1 l 1
 211.519685039 -1 l 0
 80.880859375 -1 26 98.9677734375 26 147.389648438 c 0
EndSplineSet
EndChar

StartChar: one
Encoding: 49 49 164
GlifName: one
Width: 296
VWidth: 0
GlyphClass: 2
Flags: HW
LayerCount: 2
Back
SplineSet
106 499 m 257xa4
 30 439 l 257
 30 640 l 257xa8
 106 699 l 257
 236 699 l 257
 236 0 l 257
 106 0 l 257
 106 499 l 257xa4
EndSplineSet
Fore
SplineSet
106 0 m 1
 106 463.16796875 l 1
 30 405.637695312 l 1
 30 635.087890625 l 1
 115.861328125 699 l 1
 266 699 l 1
 266 0 l 1
 106 0 l 1
EndSplineSet
EndChar

StartChar: onehalf
Encoding: 189 189 165
GlifName: onehalf
Width: 581
VWidth: 0
GlyphClass: 2
Flags: W
LayerCount: 2
Back
SplineSet
422 288 m 258xe4
 420 287 400 278 400 250 c 258
 400 248 l 257
 337 261 l 257
 338 263 l 257
 343 306 374 347 422 353 c 257
 424 354 l 257
 424 290 l 257
 424 288 l 257
 422 288 l 258xe4
26 -2 m 257
 458 702 l 257
 534 702 l 257
 109 -2 l 257
 26 -2 l 257
551 65 m 257
 551 -1 l 257
 346 -1 l 257
 346 65 l 257
 551 65 l 257
448 288 m 257
 448 354 l 257
 453 354 l 258
 531 354 553 290 554 251 c 256
 554 197 529 180 499 159 c 256
 464 134 445 119 428 93 c 257
 427 92 l 257
 348 92 l 257
 349 94 l 258
 379 156 429 184 444 196 c 256
 467 215 490 220 490 251 c 256
 490 275 476 287 449 288 c 258
 448 288 l 257
114 597 m 257xec
 76 567 l 257
 76 671 l 257xf4
 114 702 l 257
 182 702 l 257
 182 349 l 257
 114 349 l 257
 114 597 l 257xec
EndSplineSet
Fore
SplineSet
99 566.046760363 m 1
 61 536.046760363 l 1
 61 678.121368161 l 1
 108.657677738 717 l 1
 197 717 l 1
 197 334 l 1
 99 334 l 1
 99 566.046760363 l 1
566 80 m 1
 566 -16 l 1
 331 -16 l 1
 331 77 l 1
 323.729490169 77 l 1
 335.540034206 100.621088074 l 2
 367.336143712 166.333047721 421.845188265 197.485523324 434.537592796 207.639446949 c 0
 462.50447813 230.742526138 475 229.953592659 475 251 c 0
 475 266.521116162 469.979898337 271.967124754 448.766050895 273 c 2
 439 273 l 1
 433 273 l 1
 425.892046899 273 l 2
 421.86767491 270.297492666 415 264.735726387 415 250 c 2
 415 229.588740918 l 1
 314.856161432 250.253342527 l 1
 323.443698417 267.428416496 l 1
 330.168200851 315.057534602 364.373111573 359.196460112 417.51104816 367.526033911 c 1
 439 378.270509831 l 1
 439 369 l 1
 453 369 l 2
 542.326173053 369 567.897703156 294.181853004 569 251.192276094 c 0
 569 190.458514292 537.541123024 167.668952693 507.660450404 146.752481859 c 0
 472.766672522 121.828354801 455.990317647 108.398913048 440.55454421 84.7912595553 c 2
 439.704697623 83.4914941872 l 1
 436.213203436 80 l 1
 566 80 l 1
-0.803512953373 -17 m 1
 449.605577956 717 l 1
 560.576819702 717 l 1
 117.466024247 -17 l 1
 -0.803512953373 -17 l 1
EndSplineSet
EndChar

StartChar: onequarter
Encoding: 188 188 166
GlifName: onequarter
Width: 560
VWidth: 0
GlyphClass: 2
Flags: W
LayerCount: 2
Back
SplineSet
113 597 m 257x36
 75 567 l 257
 75 671 l 257x3a
 114 702 l 257
 181 702 l 257
 181 349 l 257
 113 349 l 257
 113 597 l 257x36
488 137 m 257xb3
 488 71 l 257xb3
 461 71 l 257
 461 -1 l 257
 393 -1 l 257xb280
 393 352 l 257xb3
 461 352 l 257
 461 137 l 257xb280
 488 137 l 257xb3
368 137 m 257
 368 71 l 257
 270 71 l 257
 270 137 l 257
 368 305 l 257
 368 175 l 257
 346 137 l 257
 368 137 l 257
26 -2 m 257
 458 702 l 257
 534 702 l 257
 109 -2 l 257
 26 -2 l 257
EndSplineSet
Fore
SplineSet
-0.803512953373 -17 m 1
 449.605577956 717 l 1
 560.576819702 717 l 1
 117.466024247 -17 l 1
 -0.803512953373 -17 l 1
503 152 m 1
 503 56 l 1
 476 56 l 1
 476 -16 l 1
 378 -16 l 1
 378 56 l 1
 255 56 l 1
 255 141.05523712 l 1
 378 351.912379977 l 1
 378 367 l 1
 476 367 l 1
 476 152 l 1
 503 152 l 1
98 566.046760363 m 1
 60 536.046760363 l 1
 60 678.238336472 l 1
 108.76467347 717 l 1
 196 717 l 1
 196 334 l 1
 98 334 l 1
 98 566.046760363 l 1
378 162.334774909 m 1
 372.016709263 152 l 1
 378 152 l 1
 378 162.334774909 l 1
EndSplineSet
EndChar

StartChar: ordfeminine
Encoding: 170 170 167
GlifName: ordfeminine
Width: 227
VWidth: 0
GlyphClass: 2
Flags: W
LayerCount: 2
Back
SplineSet
26 430 m 257
 201 430 l 257
 201 362 l 257
 26 362 l 257
 26 430 l 257
96 649 m 258
 87 648 80 643 80 627 c 258
 80 623 l 257
 31 642 l 257
 31 644 l 258
 31 676 65 701 96 701 c 258
 99 701 l 257
 99 649 l 257
 96 649 l 258
116 701 m 257
 119 701 l 258
 165 701 188 659 188 639 c 258
 188 535 l 258
 188 533 189 523 197 523 c 258
 200 523 l 257
 200 471 l 257
 197 471 l 258
 181 471 168 476 159 483 c 257
 148 475 136 471 120 471 c 258
 117 471 l 257
 117 523 l 257
 120 523 l 258
 132 523 134 536 134 537 c 258
 134 569 l 257
 115 559 85 554 79 551 c 256
 77 550 75 547 75 543 c 258
 75 537 l 258
 75 529 78 523 89 523 c 258
 99 523 l 257
 99 471 l 257
 97 471 l 258
 54 471 28 494 28 520 c 258
 28 551 l 258
 28 566 31 575 50 586 c 256
 70 598 134 610 134 626 c 258
 134 631 l 258
 134 641 133 648 119 649 c 258
 116 650 l 257
 116 701 l 257
EndSplineSet
Fore
SplineSet
120 456 m 2
 97 456 l 2
 49.5306586105 456 13 482.481130789 13 520 c 2
 13 551 l 2
 13 569.467751314 20.171271133 586.063234656 42.3830449883 598.922682678 c 0
 49.4969160094 603.19100529 59.3847989066 607.168446596 69.7718418762 610.877836811 c 1
 16 631.728142845 l 1
 16 644 l 2
 16 686.969186744 58.7869939177 716 96 716 c 2
 101 716 l 1
 114 716 l 1
 119 716 l 2
 174.93725592 716 203 666.399556454 203 639 c 2
 203 538 l 1
 215 538 l 1
 215 456 l 1
 197 456 l 2
 182.322525751 456 168.184412928 460.234842682 158.911524811 465.211885203 c 1
 145.547292275 458.217520511 134.62714573 456 120 456 c 2
99 538 m 2
 119 538 l 1
 119 546.83839038 l 1
 107.248187573 543.078133973 95.4878682826 539.893605817 90.0824763981 538.435164436 c 1
 92.8964639733 538.435164436 96.0502281109 538 99 538 c 2
96.9901958724 634 m 2
 96.4649312954 633.911207023 96.1368674608 633.808870988 95.9692865872 633.755992146 c 0
 95.6033537627 632.949805257 95 631.075115722 95 627 c 2
 95 619.448812213 l 1
 105.660354412 623.066891439 114.672129175 626.382710241 119 629.426730869 c 1
 119 631 l 2
 119 632.295897848 118.943992026 633.946274407 118.943992026 633.946274407 c 2
 117.949351522 634.049668156 118.92875295 633.966872453 117.93129425 634.038119503 c 2
 116.047889955 634.172648381 l 1
 114 634.855278366 l 1
 114 634 l 1
 96.9901958724 634 l 2
11 445 m 1
 216 445 l 1
 216 347 l 1
 11 347 l 1
 11 445 l 1
EndSplineSet
EndChar

StartChar: ordmasculine
Encoding: 186 186 168
GlifName: ordmasculine
Width: 230
VWidth: 0
GlyphClass: 2
Flags: W
LayerCount: 2
Back
SplineSet
26 432 m 257
 204 432 l 257
 204 361 l 257
 26 361 l 257
 26 432 l 257
123 645 m 257
 123 700 l 257
 127 700 l 258
 173 700 196 658 196 637 c 258
 196 533 l 258
 196 513 174 470 127 470 c 258
 123 470 l 257
 123 523 l 257
 127 523 l 258
 139 523 141 532 141 533 c 258
 141 635 l 258
 141 636 139 645 127 645 c 258
 123 645 l 257
32 637 m 258
 32 658 55 700 103 700 c 258
 108 700 l 257
 108 645 l 257
 103 645 l 258
 90 645 88 636 88 635 c 258
 88 534 l 258
 88 533 91 525 103 525 c 258
 108 525 l 257
 108 470 l 257
 103 470 l 258
 54 470 32 513 32 533 c 258
 32 637 l 258
EndSplineSet
Fore
SplineSet
17 637 m 2
 17 665.562498524 45.2766960304 715 103 715 c 2
 108 715 l 1
 123 715 l 1
 127 715 l 2
 183.030585636 715 211 665.175352084 211 637 c 2
 211 533 l 2
 211 505.92771767 184.269283204 455 127 455 c 2
 123 455 l 1
 108 455 l 1
 103 455 l 2
 44.0984194853 455 17 505.884545691 17 533 c 2
 17 637 l 2
11 447 m 1
 219 447 l 1
 219 346 l 1
 11 346 l 1
 11 447 l 1
123 630 m 1
 108 630 l 1
 103 630 l 1
 103 540 l 1
 123 540 l 1
 123 538 l 1
 126 538 l 1
 126 630 l 1
 123 630 l 1
EndSplineSet
EndChar

StartChar: oslash
Encoding: 248 248 169
GlifName: oslash
Width: 558
VWidth: 0
GlyphClass: 2
Flags: HW
LayerCount: 2
Back
SplineSet
445 490 m 257
 498 430 l 257
 431 369 l 257
 431 141 l 258
 431 96 382 -1 278 -1 c 258
 272 -1 l 257
 272 117 l 257
 278 117 l 258
 309 118 314 141 314 152 c 258
 314 261 l 257
 188 145 l 257
 190 130 200 117 225 117 c 258
 231 117 l 257
 231 -1 l 257
 225 -1 l 258
 165 -1 123 29 98 63 c 257
 53 22 l 257
 0 82 l 257
 67 143 l 257
 67 376 l 258
 67 421 118 516 225 516 c 258
 231 516 l 257
 231 398 l 257
 225 398 l 258
 192 398 187 373 187 363 c 258
 187 253 l 257
 314 370 l 257
 312 384 304 398 278 398 c 258
 272 398 l 257
 272 516 l 257
 278 516 l 258
 336 516 378 486 402 451 c 257
 445 490 l 257
EndSplineSet
Fore
SplineSet
455.029296875 461.24609375 m 1
 497.205078125 497.400390625 l 1
 570.048828125 419.458007812 l 1
 497.024414062 356.619140625 l 1
 497.024414062 147.389648438 l 0
 497.024414062 98.3603515625 443.470703125 -1 325.486874077 -1 c 0
 299.526244156 -1 l 1
 299.526244156 147 l 1
 325.187476932 147 l 1
 348.592773438 147.638671875 350.024414062 159.588867188 350.024414062 167 c 0
 350.024414062 241.801757812 l 1
 235.160686823 155.201171875 l 1
 237.926488681 151.176757812 242.652858944 147 259.967189038 147 c 0
 285.927818959 147 l 1
 285.927818959 -1 l 1
 259.967189038 -1 l 0
 188.463182825 -1 145.033203125 23.8046875 117.375976562 53.068359375 c 1
 72.8671875 14.7392578125 l 1
 0 92.7060546875 l 1
 73.0244140625 155.544921875 l 1
 73.0244140625 369.500976562 l 0
 73.0244140625 419.163085938 129.225585938 516 259.967189038 516 c 0
 285.927818959 516 l 1
 285.927818959 368 l 1
 259.967189038 368 l 0
 233.008166216 368 231.534118172 354.459960938 231.534118172 348 c 0
 231.534118172 272.213867188 l 1
 348.1875 359.883789062 l 1
 346.079101562 364.004882812 343.193559301 368 325.486874077 368 c 0
 299.526244156 368 l 1
 299.526244156 516 l 1
 325.486874077 516 l 0
 385.124023438 516 428.126953125 491.125 455.029296875 461.24609375 c 1
EndSplineSet
EndChar

StartChar: p
Encoding: 112 112 171
GlifName: p
Width: 512
VWidth: 0
GlyphClass: 2
Flags: HW
LayerCount: 2
Back
SplineSet
232 0 m 258
 203 0 l 257
 203 118 l 257
 234 118 l 257
 271 119 276 134 276 143 c 258
 276 372 l 257
 276 385 258 398 228 398 c 258
 196 398 l 257
 196 516 l 257
 228 516 l 258
 335 516 396 431 396 375 c 258
 396 139 l 257
 396 86 345 0 232 0 c 258
30 516 m 257
 155 516 l 257
 155 -182 l 257
 30 -182 l 257
 30 516 l 257
EndSplineSet
Fore
SplineSet
486 145.538085938 m 0
 486 87.8662109375 428.63671875 0 277 0 c 2
 233 0 l 1
 233 148 l 1
 280.655711207 148 l 1
 340.712890625 148.758789062 336 156.778320312 336 156.799804688 c 0
 306 358.250976562 l 1
 305.483277376 359.341796875 294.696692601 368 264.818181818 368 c 0
 206.165289256 368 l 1
 206.165289256 516 l 1
 264.818181818 516 l 0
 388.153320312 516 456 430.012695312 456 368.571289062 c 0
 486 145.538085938 l 0
30 -182 m 1
 30 516 l 1
 192.438016529 516 l 1
 203.75 -182 l 1
 30 -182 l 1
EndSplineSet
EndChar

StartChar: paragraph
Encoding: 182 182 172
GlifName: paragraph
Width: 444
VWidth: 0
GlyphClass: 2
Flags: W
LayerCount: 2
Back
SplineSet
278 705 m 257
 278 -5 l 257
 195 -5 l 257
 195 329 l 257
 91 329 26 403 26 517 c 256
 26 617 93 705 195 705 c 256
 223 705 250 705 278 705 c 257
418 705 m 257
 418 -5 l 257
 335 -5 l 257
 335 705 l 257
 418 705 l 257
EndSplineSet
Fore
SplineSet
293 720 m 1
 293 -20 l 1
 180 -20 l 1
 180 314.491629394 l 1
 74.4025043333 321.903650098 11 402.667966443 11 517 c 0
 11 623.174226124 82.9789428502 720 195 720 c 0
 293 720 l 1
433 720 m 1
 433 -20 l 1
 320 -20 l 1
 320 720 l 1
 433 720 l 1
EndSplineSet
EndChar

StartChar: parenleft
Encoding: 40 40 173
GlifName: parenleft
Width: 262
VWidth: 0
GlyphClass: 2
Flags: W
LayerCount: 2
Back
SplineSet
212 735 m 257
 213 648 l 257
 174 625 154 593 153 521 c 258
 153 208 l 258
 153 206 153 204 153 202 c 256
 153 104 178 73 213 51 c 257
 213 -37 l 257
 71 22 50 93 50 189 c 257
 50 510 l 257
 50 652 113 696 212 735 c 257
EndSplineSet
Fore
SplineSet
226.748897468 756.932124322 m 1
 228.098804404 639.490220921 l 1
 220.619775299 635.079511449 l 0
 186.277894754 614.826607538 168.955677602 589.704625704 168 520.895838356 c 1
 168 202 l 0
 168 106.657765206 190.404832547 82.9198423491 220.982573178 63.6995482382 c 0
 228 59.2885942359 l 1
 228 -59.4756310983 l 1
 207.244625192 -50.8519190301 l 0
 60.3276894638 10.1910331386 35 89.3016897538 35 189 c 0
 35 510 l 0
 35 658.713820323 105.261937505 709.073624942 206.502132224 748.956125892 c 0
 226.748897468 756.932124322 l 1
EndSplineSet
EndChar

StartChar: parenright
Encoding: 41 41 174
GlifName: parenright
Width: 330
VWidth: 0
GlyphClass: 2
Flags: W
LayerCount: 2
Back
SplineSet
101 746 m 257
 209 706 280 650 280 510 c 257
 280 189 l 257
 280 93 243 9 101 -47 c 257
 101 51 l 257
 136 73 161 104 161 202 c 256
 161 204 161 206 161 208 c 258
 161 521 l 258
 160 593 139 626 100 649 c 257
 101 746 l 257
EndSplineSet
Fore
SplineSet
106.209715337 760.066231411 m 2
 216.884007407 719.075752867 295 657.230871118 295 510 c 0
 295 189 l 0
 295 87.9177537667 253.446904033 -3.00439438413 106.503022969 -60.9540939583 c 0
 86 -69.0397931575 l 1
 86 59.2885942359 l 1
 93.0174268217 63.6995482382 l 0
 123.595669241 82.920157759 146 106.657562434 146 202 c 0
 146 520.895838356 l 1
 145.046493671 589.548294024 126.744228714 615.813560364 92.3802247008 636.079511449 c 0
 84.9114111221 640.48419638 l 1
 86.2205393032 767.469629942 l 1
 106.209715337 760.066231411 l 2
EndSplineSet
EndChar

StartChar: period
Encoding: 46 46 175
GlifName: period
Width: 250
VWidth: 0
GlyphClass: 2
Flags: W
LayerCount: 2
Back
SplineSet
50 53 m 256
 50 95 83 129 125 129 c 256
 167 129 200 95 200 53 c 256
 200 11 167 -22 125 -22 c 256
 83 -22 50 11 50 53 c 256
EndSplineSet
Fore
SplineSet
35 53 m 0
 35 103.010561694 74.5327148601 144 125 144 c 0
 175.467102101 144 215 103.010636334 215 53 c 0
 215 2.8002339321 175.199935667 -37 125 -37 c 0
 74.8002339321 -37 35 2.80006433267 35 53 c 0
EndSplineSet
EndChar

StartChar: perthousand
Encoding: 284 8240 177
GlifName: perthousand
Width: 897
VWidth: 0
GlyphClass: 2
Flags: W
LayerCount: 2
Back
SplineSet
67 0 m 257
 497 700 l 257
 570 700 l 257
 147 0 l 257
 67 0 l 257
151 702 m 257
 197 699 246 657 246 528 c 256
 246 378 186 353 152 351 c 257
 150 350 l 257
 150 415 l 257
 151 415 l 257
 177 421 178 476 178 522 c 258
 178 551 l 258
 178 583 176 631 151 637 c 257
 150 637 l 257
 150 703 l 257
 151 702 l 257
122 703 m 257
 122 637 l 257
 121 637 l 257
 96 631 94 583 94 551 c 258
 94 522 l 258
 94 476 95 421 121 415 c 257
 122 415 l 257
 122 350 l 257
 120 351 l 257
 86 353 26 378 26 528 c 256
 26 656 75 699 121 702 c 257
 122 703 l 257
518 352 m 258
 564 349 614 307 614 178 c 256
 614 28 553 2 519 0 c 258
 517 0 l 257
 517 65 l 257
 518 65 l 257
 544 71 546 125 546 171 c 258
 546 201 l 258
 546 233 543 281 518 287 c 257
 516 287 l 257
 516 352 l 257
 518 352 l 258
490 352 m 257
 490 287 l 257
 488 287 l 257
 463 281 461 233 461 201 c 258
 461 171 l 258
 461 125 462 71 488 65 c 257
 489 65 l 257
 489 0 l 257
 487 0 l 258
 453 2 393 28 393 178 c 256
 393 306 442 349 488 352 c 258
 490 352 l 257
776 352 m 258
 822 349 872 307 872 178 c 256
 872 28 811 2 777 0 c 258
 775 0 l 257
 775 65 l 257
 776 65 l 257
 802 71 804 125 804 171 c 258
 804 201 l 258
 804 233 801 281 776 287 c 257
 774 287 l 257
 774 352 l 257
 776 352 l 258
748 352 m 257
 748 287 l 257
 746 287 l 257
 721 281 719 233 719 201 c 258
 719 171 l 258
 719 125 720 71 746 65 c 257
 747 65 l 257
 747 0 l 257
 745 0 l 258
 711 2 651 28 651 178 c 256
 651 306 700 349 746 352 c 258
 748 352 l 257
EndSplineSet
Fore
SplineSet
776.97618706 366.968201589 m 2
 833.890257576 363.256414382 887 310.263471294 887 178 c 0
 887 23.5386793104 821.18008361 -12.4271006987 777.880830329 -14.9741155976 c 2
 777.440795489 -15 l 1
 762 -15 l 1
 760 -15 l 1
 744.559204511 -15 l 1
 744.119169671 -14.9741155976 l 2
 700.694238726 -12.419707895 636 23.6905129709 636 178 c 0
 636 309.068073145 687.878201473 363.241313885 745.02381294 366.968201589 c 2
 745.511388568 367 l 1
 759 367 l 1
 763 367 l 1
 776.488611432 367 l 1
 776.97618706 366.968201589 l 2
518.97618706 366.968201589 m 2
 575.890257576 363.256414382 629 310.263471294 629 178 c 0
 629 23.5386793104 563.18008361 -12.4271006987 519.880830329 -14.9741155976 c 2
 519.440795489 -15 l 1
 504 -15 l 1
 502 -15 l 1
 486.559204511 -15 l 1
 486.119169671 -14.9741155976 l 2
 442.694238726 -12.419707895 378 23.6905129709 378 178 c 0
 378 309.068073145 429.878201473 363.241313885 487.02381294 366.968201589 c 2
 487.511388568 367 l 1
 501 367 l 1
 505 367 l 1
 518.488611432 367 l 1
 518.97618706 366.968201589 l 2
157.802316083 716.410887353 m 1
 213.099877178 709.348669573 261 655.219146796 261 528 c 0
 261 377.284001298 199.194990403 340.364324884 156.074945039 336.266962688 c 1
 137 326.729490169 l 1
 137 325.729490169 l 1
 136 326.229490169 l 1
 135 325.729490169 l 1
 135 326.729490169 l 1
 115.925054961 336.266962688 l 1
 71.8361715627 340.456386019 11 378.080663452 11 528 c 0
 11 655.065717121 59.7181420317 709.368503601 114.193527032 716.406730467 c 1
 135 737.213203436 l 1
 135 739.213203436 l 1
 136 738.213203436 l 1
 137 739.213203436 l 1
 137 737.213203436 l 1
 157.802316083 716.410887353 l 1
40.1816505155 -15 m 1
 488.610221944 715 l 1
 596.590302818 715 l 1
 155.461731389 -15 l 1
 40.1816505155 -15 l 1
759 272 m 1
 748.325888597 272 l 2
 740.137655702 268.088517962 734 234.156045557 734 201 c 2
 734 171 l 2
 734 123.437425939 739.871178581 84.4056558747 748.296890034 80 c 1
 760 80 l 1
 762 80 l 1
 773.71459905 80 l 1
 782.642636105 84.6438074898 789 124.388414656 789 171 c 2
 789 201 l 2
 789 234.532649886 781.686452595 268.195826777 773.68383694 272 c 2
 763 272 l 1
 759 272 l 1
501 272 m 1
 490.325888597 272 l 2
 482.137655702 268.088517962 476 234.156045557 476 201 c 2
 476 171 l 2
 476 123.437425939 481.871178581 84.4056558747 490.296890034 80 c 1
 502 80 l 1
 504 80 l 1
 515.71459905 80 l 1
 524.642636105 84.6438074898 531 124.388414656 531 171 c 2
 531 201 l 2
 531 234.532649886 523.686452595 268.195826777 515.68383694 272 c 2
 505 272 l 1
 501 272 l 1
135 622 m 1
 123.325888597 622 l 2
 115.137655702 618.088517962 109 584.156045557 109 551 c 2
 109 522 l 2
 109 474.400121889 114.904060444 434.422681112 123.319239206 430 c 1
 135 430 l 1
 137 430 l 1
 148.680760794 430 l 1
 157.261834474 434.50986884 163 475.022041486 163 522 c 2
 163 551 l 2
 163 584.92199831 156.387742609 618.315233055 148.674111403 622 c 2
 137 622 l 1
 135 622 l 1
EndSplineSet
EndChar

StartChar: plus
Encoding: 43 43 178
GlifName: plus
Width: 475
VWidth: 0
GlyphClass: 2
Flags: W
LayerCount: 2
Back
SplineSet
425 357 m 257
 425 230 l 257
 300 230 l 257
 300 87 l 257
 173 87 l 257
 173 230 l 257
 50 230 l 257
 50 357 l 257
 173 357 l 257
 173 498 l 257
 300 498 l 257
 300 357 l 257
 425 357 l 257
EndSplineSet
Fore
SplineSet
440 372 m 1
 440 215 l 1
 315 215 l 1
 315 72 l 1
 158 72 l 1
 158 215 l 1
 35 215 l 1
 35 372 l 1
 158 372 l 1
 158 513 l 1
 315 513 l 1
 315 372 l 1
 440 372 l 1
EndSplineSet
EndChar

StartChar: plusminus
Encoding: 177 177 179
GlifName: plusminus
Width: 575
VWidth: 0
GlyphClass: 2
Flags: W
LayerCount: 2
Back
SplineSet
476 167 m 257
 476 40 l 257
 100 40 l 257
 100 167 l 257
 476 167 l 257
EndSplineSet
Refer: 178 43 N 1 0 0 1 0 161 2
Fore
SplineSet
491 182 m 1
 491 25 l 1
 85 25 l 1
 85 182 l 1
 491 182 l 1
EndSplineSet
Refer: 178 43 N 1 0 0 1 0 161 2
EndChar

StartChar: q
Encoding: 113 113 180
GlifName: q
Width: 506
VWidth: 0
GlyphClass: 2
Flags: HW
LayerCount: 2
Back
SplineSet
146 143 m 258
 146 141 150 119 188 118 c 258
 219 118 l 257
 219 0 l 257
 190 0 l 258
 77 0 27 93 26 139 c 257
 26 375 l 258
 26 420 76 516 183 516 c 258
 214 516 l 257
 214 398 l 257
 183 398 l 258
 151 398 146 375 146 373 c 257
 146 143 l 258
385 516 m 257
 386 -182 l 257
 262 -182 l 257
 261 516 l 257
 385 516 l 257
EndSplineSet
Fore
SplineSet
183.75862069 357.973632812 m 1
 191.254237288 157.967773438 l 2
 192.260378046 156.465820312 196.631124206 148.546875 232.280621028 148 c 1
 279 148 l 1
 279 0 l 1
 235 0 l 0
 82.6640625 0 27.16796875 94.625 26 145.384765625 c 1
 26 368.571289062 l 0
 26 417.987304688 80.9921875 516 211.448275862 516 c 0
 269.344827586 516 l 1
 269.344827586 368 l 1
 211.448275862 368 l 0
 187.839304957 368 184.69766972 359.916992188 183.75862069 357.973632812 c 1
290.714338631 516 m 1
 444.978515625 516 l 1
 476.021484375 -182 l 1
 322.021484375 -182 l 1
 290.714338631 516 l 1
EndSplineSet
EndChar

StartChar: question
Encoding: 63 63 181
GlifName: question
Width: 460
VWidth: 0
GlyphClass: 2
Flags: W
LayerCount: 2
Back
SplineSet
122 53 m 256xf4
 122 95 155 129 197 129 c 256
 239 129 273 95 273 53 c 256
 273 11 239 -22 197 -22 c 256
 155 -22 122 11 122 53 c 256xf4
112 526 m 257
 30 611 l 257
 60 649 110 703 218 703 c 256
 346 703 426 620 430 491 c 256
 430 488 430 484 430 481 c 256
 430 289 263 276 263 276 c 257
 263 166 l 257
 134 166 l 257
 134 386 l 257xec
 251 388 302 400 302 493 c 256
 302 545 257 575 210 575 c 256
 167 575 133 554 112 526 c 257
EndSplineSet
Fore
SplineSet
107 53 m 0
 107 103.010561694 146.53271486 144 197 144 c 0
 247.278405894 144 288 103.278586835 288 53 c 0
 288 2.53289789887 247.010636334 -37 197 -37 c 0
 146.800233932 -37 107 2.80006433267 107 53 c 0
113.432650409 502.910200546 m 1
 10.1097877121 610.013167976 l 1
 18.226758517 620.294664329 l 0
 49.217240638 659.549275015 104.130319951 718 218 718 c 0
 353.973346319 718 440.770481158 627.634484906 445 491.232502266 c 1
 445 481 l 0
 445 310.706321629 319.051927829 271.048711014 278 263.082193015 c 1
 278 151 l 1
 119 151 l 1
 119 400.745781124 l 1
 133.743627198 400.99780894 l 0
 251.54383187 403.011487652 287 412.065242047 287 493 c 0
 287 534.5367882 251.446048573 560 210 560 c 0
 172.127083876 560 142.530702053 541.707602737 124 517 c 0
 113.432650409 502.910200546 l 1
EndSplineSet
EndChar

StartChar: questiondown
Encoding: 191 191 182
GlifName: questiondown
Width: 460
VWidth: 0
GlyphClass: 2
Flags: W
LayerCount: 2
Back
SplineSet
112 163 m 257xec
 133 135 167 114 210 114 c 256
 257 114 302 144 302 196 c 256
 302 289 251 301 134 303 c 257
 134 523 l 257
 263 523 l 257
 263 413 l 257
 263 413 430 400 430 208 c 256
 430 72 349 -14 218 -14 c 256
 110 -14 60 40 30 78 c 257
 112 163 l 257xec
122 636 m 256xf4
 122 678 155 711 197 711 c 256
 239 711 273 678 273 636 c 256
 273 594 239 560 197 560 c 256
 155 560 122 594 122 636 c 256xf4
EndSplineSet
Fore
SplineSet
124 172 m 2
 142.525019583 147.299973889 172.148342032 129 210 129 c 0
 251.418981276 129 287 154.526638257 287 196 c 0
 287 276.934606813 251.543791033 285.988513046 133.743627198 288.00219106 c 0
 119 288.254218876 l 1
 119 538 l 1
 278 538 l 1
 278 425.917806985 l 1
 320.347548739 417.699861395 445 377.644140551 445 208 c 0
 445 64.998090619 357.215108541 -29 218 -29 c 0
 104.133506682 -29 49.2173067701 29.4506412174 18.226758517 68.7053356713 c 0
 10.1097877121 78.9868320242 l 1
 113.432650409 186.089799454 l 1
 124 172 l 2
107 636 m 0
 107 686.199766068 146.800064333 726 197 726 c 0
 247.010561694 726 288 686.46728514 288 636 c 0
 288 585.721594106 247.278586835 545 197 545 c 0
 146.532897899 545 107 585.989363666 107 636 c 0
EndSplineSet
EndChar

StartChar: quotedbl
Encoding: 34 34 183
GlifName: quotedbl
Width: 407
VWidth: 0
GlyphClass: 2
Flags: W
LayerCount: 2
Back
SplineSet
177 465 m 257
 50 465 l 257
 50 736 l 257
 177 736 l 257
 177 465 l 257
357 465 m 257
 230 465 l 257
 230 736 l 257
 357 736 l 257
 357 465 l 257
EndSplineSet
Fore
SplineSet
192 450 m 1
 35 450 l 1
 35 751 l 1
 192 751 l 1
 192 450 l 1
372 450 m 1
 215 450 l 1
 215 751 l 1
 372 751 l 1
 372 450 l 1
EndSplineSet
EndChar

StartChar: quotedbl.alt
Encoding: 285 -1 184
GlifName: quotedbl.alt
Width: 359
VWidth: 0
GlyphClass: 2
Flags: W
LayerCount: 2
Back
SplineSet
153 476 m 257
 26 476 l 257
 26 700 l 257
 153 700 l 257
 153 476 l 257
333 476 m 257
 206 476 l 257
 206 700 l 257
 333 700 l 257
 333 476 l 257
EndSplineSet
Fore
SplineSet
168 461 m 1
 11 461 l 1
 11 715 l 1
 168 715 l 1
 168 461 l 1
348 461 m 1
 191 461 l 1
 191 715 l 1
 348 715 l 1
 348 461 l 1
EndSplineSet
EndChar

StartChar: quotesingle
Encoding: 39 39 191
GlifName: quotesingle
Width: 227
VWidth: 0
GlyphClass: 2
Flags: W
LayerCount: 2
Back
SplineSet
177 465 m 257
 50 465 l 257
 50 736 l 257
 177 736 l 257
 177 465 l 257
EndSplineSet
Fore
SplineSet
192 450 m 1
 35 450 l 1
 35 751 l 1
 192 751 l 1
 192 450 l 1
EndSplineSet
EndChar

StartChar: r
Encoding: 114 114 192
GlifName: r
Width: 346
VWidth: 0
GlyphClass: 2
Flags: HW
LayerCount: 2
Back
SplineSet
36 516 m 257xb0
 160 516 l 257
 160 454 l 257
 181 481 229 516 284 516 c 258
 317 516 l 257
 289 395 l 257
 222 394 160 331 160 271 c 258
 160 0 l 257
 36 0 l 257
 36 516 l 257xb0
EndSplineSet
Fore
SplineSet
36 0 m 1
 36 516 l 1
 190 516 l 1
 190 474.993164062 l 1
 216.8671875 496.565429688 255.2890625 516 299 516 c 0
 350.8671875 516 l 1
 315.965820312 373.463867188 l 1
 304.223632812 373.297851562 l 0
 245.430664062 372.46875 190 318.268554688 190 270.286132812 c 0
 190 0 l 1
 36 0 l 1
EndSplineSet
EndChar

StartChar: registered
Encoding: 174 174 193
GlifName: registered
Width: 404
VWidth: 0
GlyphClass: 2
Flags: W
LayerCount: 2
Back
SplineSet
191 396 m 257
 192 354 l 257
 111 355 30 432 30 523 c 256
 30 524 30 524 30 525 c 256
 30 649 133 703 193 703 c 256
 194 703 194 703 195 703 c 257
 195 662 l 257
 136 662 70 609 70 526 c 256
 71 457 126 399 191 396 c 257
211 396 m 257
 276 399 332 456 334 525 c 256
 334 526 334 526 334 527 c 256
 334 608 270 662 211 662 c 257
 211 703 l 257
 277 702 374 641 374 528 c 256
 374 526 374 525 374 523 c 256
 374 423 288 357 211 354 c 257
 211 396 l 257
206 547 m 257
 210 547 l 258
 227 547 234 557 234 568 c 256
 234 582 224 591 210 591 c 258
 206 591 l 257
 206 628 l 257
 248 628 270 604 270 570 c 256
 270 551 264 538 251 530 c 257
 261 522 269 506 270 492 c 258
 270 431 l 257
 235 431 l 257
 235 481 l 258
 235 504 226 511 206 511 c 257
 206 547 l 257
151 627 m 257
 190 627 l 257
 190 430 l 257
 151 430 l 257
 151 627 l 257
EndSplineSet
Fore
SplineSet
205 496 m 1
 205 415 l 1
 167.938415122 415 l 2
 175.626636453 412.735103259 183.584904439 411.358203012 191.691571499 410.984049148 c 2
 201 410.554429371 l 1
 210.308428501 410.984049148 l 2
 219.630435153 411.414295609 228.775238757 413.142268384 237.557318975 416 c 2
 220 416 l 1
 220 481 l 2
 220 497.291565936 219.888792045 496 206 496 c 2
 205 496 l 1
191 642 m 1
 191 643 l 1
 206 643 l 2
 254.933259123 643 285 612.212648003 285 570 c 0
 285 554.136225536 281.015297288 539.925414308 272.167304383 528.719825412 c 1
 279.955880702 516.983614521 284.043538706 505.925490837 284.961880497 493.06870575 c 2
 285 492.535032714 l 1
 285 445.961219001 l 1
 305.012307263 466.605955024 318.113266718 494.625047438 319 525.217345663 c 2
 319 527 l 2
 319 599.856949623 261.353758333 647 211 647 c 2
 210 647 l 1
 196 647 l 1
 195 647 l 2
 185.286590385 647 175.251569449 645.289768679 165.375843826 642 c 2
 191 642 l 1
205 576 m 1
 205 562 l 1
 210 562 l 2
 219.559846234 562 219 564.582351193 219 568 c 0
 219 573.457485879 216.923977561 576 210 576 c 2
 205 576 l 1
136 430.499447461 m 1
 136 627.026444118 l 1
 107.186322151 606.653934155 85 571.605217916 85 526.108689945 c 0
 85.5714524335 486.678472037 106.246678823 451.341891812 136 430.499447461 c 1
196 718 m 1
 196 718.228994392 l 1
 211.227246644 717.998278533 l 2
 284.381890708 716.889874835 389 650.563211053 389 528 c 2
 389 523 l 2
 389 413.711799243 295.643991772 342.286437459 211.583972528 339.011371774 c 2
 207.365036868 338.846997658 l 2
 207.365036868 338.834383101 207.365937908 338.821768545 207.365937908 338.809153988 c 1
 207.11984424 338.809153988 206.873750573 338.818268568 206.627656905 338.818268568 c 2
 196 338.404204014 l 1
 196 338.949474209 l 1
 191.814828926 339.001142988 l 2
 102.221196868 340.107237211 15 423.501443016 15 523 c 2
 15 525 l 2
 15 658.779216705 126.1318208 718 193 718 c 2
 196 718 l 1
EndSplineSet
EndChar

StartChar: ring
Encoding: 292 730 194
GlifName: ring
Width: 244
VWidth: 0
GlyphClass: 2
Flags: W
LayerCount: 2
Back
SplineSet
90 526 m 256
 90 508 104 494 122 494 c 256
 140 494 154 508 154 526 c 256
 154 544 140 558 122 558 c 256
 104 558 90 544 90 526 c 256
26 526 m 256
 26 579 69 622 122 622 c 256
 175 622 218 579 218 526 c 256
 218 473 175 430 122 430 c 256
 69 430 26 473 26 526 c 256
EndSplineSet
Fore
SplineSet
105 526 m 0
 105 516.172996937 112.177807996 509 122 509 c 0
 131.827003063 509 139 516.177807996 139 526 c 0
 139 535.827003063 131.822192004 543 122 543 c 0
 112.172996937 543 105 535.822192004 105 526 c 0
11 526 m 0
 11 587.28425574 60.715714379 637 122 637 c 0
 183.28425574 637 233 587.284285621 233 526 c 0
 233 464.71574426 183.284285621 415 122 415 c 0
 60.7157442596 415 11 464.715714379 11 526 c 0
EndSplineSet
EndChar

StartChar: s
Encoding: 115 115 195
GlifName: s
Width: 478
VWidth: 0
GlyphClass: 2
Flags: W
HStem: -5 136.174<224.776 238.375 251.799 312.541> 374 143<184.686 233.375 247.605 304.092>
LayerCount: 2
Back
SplineSet
22 134 m 256
 21 136 l 257
 133 157 l 257
 133 154 l 258
 135 135 157 113 181 111 c 256
 184 110 l 257
 184 -5 l 257
 181 -5 l 258
 87 -5 25 70 22 134 c 256
388 376 m 258
 388 374 l 257
 276 355 l 257
 276 358 l 256
 272 399 234 404 226 404 c 258
 223 404 l 257
 224 517 l 257
 227 517 l 258
 321 517 388 440 388 376 c 258
182 406 m 257
 180 406 l 256
 140 402 138 377 138 362 c 256
 138 344 153 323 294 296 c 256
 346 286 397 243 397 160 c 256
 397 57 321 -5 228 -5 c 258
 225 -5 l 257
 225 109 l 257
 228 109 l 258
 243 110 280 120 280 153 c 256
 280 198 168 206 111 232 c 256
 62 256 26 287 26 371 c 256
 26 473 125 517 179 517 c 258
 182 517 l 257
 182 406 l 257
EndSplineSet
Fore
SplineSet
216.407477375 -5 m 0
 101.859375 -5 34.7470703125 74.9697265625 29.5234375 145.03125 c 1
 21 162.078125 l 1
 176.134482959 190.07421875 l 1
 176.134482959 169.931640625 l 1
 178.265404893 158.986328125 197.937103693 142.313476562 217.928202425 140.948242188 c 0
 220.115138527 140.798828125 l 1
 238.374565239 135.811523438 l 1
 238.374565239 -5 l 1
 216.407477375 -5 l 0
268.563997936 517 m 0
 381.1953125 517 455.309570312 434.350585938 455.309570312 361 c 2
 455.309570312 346.330078125 l 1
 308.445347917 322.241210938 l 1
 308.445347917 342.240234375 l 1
 304.430408473 370.86328125 274.002780384 374 267.391017054 374 c 0
 246.121574659 374 l 1
 247.604983098 517 l 1
 268.563997936 517 l 0
233.374571483 517 m 1
 233.374571483 376 l 1
 214.329669002 376 l 1
 179.552618639 372.819335938 181.763412684 360.850585938 181.763412684 349.1171875 c 0
 181.763412684 346.276367188 181.040609035 327.23046875 349.142578125 301.588867188 c 0
 407.4296875 291.198242188 464.309570312 245.493164062 464.309570312 161.861328125 c 0
 464.309570312 58.21875 380.30078125 -5 273.765984575 -5 c 0
 251.798896711 -5 l 1
 251.798896711 131.173828125 l 1
 273.115266803 131.173828125 l 1
 291.78943671 132.467773438 317.309570312 141.077148438 317.309570312 158.59765625 c 0
 317.309570312 183.630859375 207.644239687 190.616210938 126.896484375 220.479492188 c 1
 74.7587890625 244.62890625 33.3095703125 279.784179688 33.3095703125 364.75 c 0
 33.3095703125 472.197265625 143.001205596 517 212.26091561 517 c 0
 233.374571483 517 l 1
EndSplineSet
EndChar

StartChar: section
Encoding: 167 167 197
GlifName: section
Width: 547
VWidth: 0
GlyphClass: 2
Flags: W
LayerCount: 2
Back
SplineSet
363 223 m 257xc8
 373 231 380 243 380 266 c 256
 380 310 343 333 300 351 c 257
 300 498 l 257
 331 485 365 473 393 457 c 256
 454 421 521 374 521 272 c 256xc4
 521 210 493 158 449 124 c 257
 456 104 459 80 459 52 c 256
 459 -87 350 -136 282 -136 c 258
 170 -136 l 257
 170 -4 l 257
 274 -4 l 258
 307 -4 328 17 328 47 c 256
 328 68 317 84 300 97 c 257
 300 252 l 257
 313 247 325 242 336 237 c 256
 345 232 354 228 363 223 c 257xc8
265 759 m 258
 377 759 l 257
 377 627 l 257
 273 627 l 258
 240 627 219 606 219 576 c 256xd0
 219 555 230 540 246 527 c 257
 246 372 l 257
 233 377 221 381 211 386 c 256
 202 391 193 395 184 400 c 257
 174 392 167 380 167 357 c 256
 167 314 204 290 246 272 c 257
 246 125 l 257
 215 138 181 150 154 166 c 256
 93 202 26 249 26 351 c 256xe0
 26 413 54 465 98 499 c 257
 91 519 88 543 88 571 c 256xd0
 88 710 197 759 265 759 c 258
EndSplineSet
Fore
SplineSet
359.813918946 241.609564136 m 1
 362.885244618 246.79156618 365 253.435648568 365 266 c 0
 365 299.550233986 337.273706378 319.135850324 294.207928678 337.163385175 c 0
 285 341.017866948 l 1
 285 520.555873852 l 1
 305.800900144 511.832915727 l 0
 336.320967397 499.034177847 370.637563897 487.05480152 400.533313554 469.971516001 c 1
 462.070487129 433.654495531 536 382.200915782 536 272 c 0
 536 208.982597894 508.497129506 155.107741195 466.329088789 118.770691873 c 1
 471.829193121 98.7212147785 474 76.7508476526 474 52 c 0
 474 -97.0733975249 355.845068292 -151 282 -151 c 0
 155 -151 l 1
 155 11 l 1
 274 11 l 0
 299.741105894 11 313 25.2938126969 313 47 c 0
 313 62.1214917292 305.738502374 73.7285559265 290.888248386 85.0846325053 c 0
 285 89.5874106832 l 1
 285 273.840448012 l 1
 305.38468619 266.000184093 l 0
 318.625339368 260.907625178 330.895422813 255.797143231 342.207044165 250.655497162 c 0
 342.756776683 250.405618745 l 1
 343.284643968 250.112359142 l 0
 348.488393454 247.221387205 354.059169487 244.499727198 359.813918946 241.609564136 c 1
265 774 m 2
 392 774 l 1
 392 612 l 1
 273 612 l 0
 247.258894106 612 234 597.706187303 234 576 c 0
 234 560.969868577 241.097207565 550.310576473 255.458889376 538.641710002 c 0
 261 534.13955762 l 1
 261 350.159551988 l 1
 240.61531381 357.999815907 l 0
 227.799081539 362.929136011 216.091332358 366.68382399 204.000272733 372.729353802 c 1
 198.137467015 375.98646809 193.130446405 378.405043487 187.186081054 381.390435864 c 1
 184.114755382 376.20843382 182 369.564351432 182 357 c 0
 182 324.425037066 209.983139436 303.755311183 251.908789479 285.78717545 c 0
 261 281.89094237 l 1
 261 102.444126148 l 1
 240.199099856 111.167084273 l 0
 209.751272359 123.935528062 175.178019272 136.014141073 146.376196232 153.08188806 c 0
 85.0109174509 189.297462422 11 240.817318977 11 351 c 0
 11 414.017402106 38.5028704939 467.892258805 80.6709112109 504.229308127 c 1
 75.1708068789 524.278785222 73 546.249152347 73 571 c 0
 73 720.073397525 191.154931708 774 265 774 c 2
EndSplineSet
EndChar

StartChar: semicolon
Encoding: 59 59 198
GlifName: semicolon
Width: 291
VWidth: 0
GlyphClass: 2
Flags: W
LayerCount: 2
Back
SplineSet
91 360 m 256
 91 402 124 436 166 436 c 256
 208 436 241 402 241 360 c 256
 241 318 208 285 166 285 c 256
 124 285 91 318 91 360 c 256
177 -23 m 257
 50 -23 l 257
 87 129 l 257
 214 129 l 257
 177 -23 l 257
EndSplineSet
Fore
SplineSet
76 360 m 0
 76 410.010561694 115.53271486 451 166 451 c 0
 216.467102101 451 256 410.010636334 256 360 c 0
 256 309.800233932 216.199935667 270 166 270 c 0
 115.800233932 270 76 309.800064333 76 360 c 0
188.786692728 -38 m 1
 30.9106756928 -38 l 1
 75.2133072717 144 l 1
 233.089324307 144 l 1
 188.786692728 -38 l 1
EndSplineSet
EndChar

StartChar: seven
Encoding: 55 55 199
GlifName: seven
Width: 495
VWidth: 0
GlyphClass: 2
Flags: HW
LayerCount: 2
Back
SplineSet
20 698 m 257x10
 409 698 l 257x10
 409 573 l 257
 397 562 378 529 371 510 c 257
 236 510 l 257x20
 260 572 l 257
 20 572 l 257
 20 698 l 257x10
223 450 m 257
 356 450 l 257
 317 300 289 154 273 0 c 257
 136 0 l 257x80
 153 158 181 295 223 450 c 257
EndSplineSet
Fore
SplineSet
20 542 m 1
 20 698 l 1
 469 698 l 1
 469 551.401367188 l 1
 464.135742188 546.942382812 l 0
 455.861328125 539.357421875 436.178710938 506.380859375 430.075195312 489.814453125 c 0
 426.458984375 480 l 1
 244.041730403 480 l 1
 272.197814448 542 l 1
 20 542 l 1
237.487329491 468.922851562 m 0
 241.00798567 480 l 1
 420.3984375 480 l 1
 415.517578125 461.225585938 l 0
 376.673828125 311.825195312 348.833984375 166.626953125 305.791901045 13.4501953125 c 0
 301.522460938 -0 l 1
 134.299804688 0 l 1
 136.0859375 16.6044921875 l 0
 153.17578125 175.4375 188.049205356 313.404296875 237.487329491 468.922851562 c 0
EndSplineSet
EndChar

StartChar: six
Encoding: 54 54 200
GlifName: six
Width: 557
VWidth: 0
GlyphClass: 2
Flags: HW
LayerCount: 2
Back
SplineSet
282 425 m 257
 406 425 471 327 471 209 c 256
 471 84 383 0 282 -1 c 257
 282 123 l 257
 317 127 356 159 356 208 c 256
 356 290 302 304 283 309 c 257
 282 425 l 257
355 537 m 257
 339 559 321 573 293 573 c 256
 289 573 286 573 282 573 c 257
 282 698 l 257
 360 698 415 659 450 600 c 257
 355 537 l 257
228 697 m 257
 228 572 l 257
 165 565 150 448 150 399 c 257
 169 414 198 425 228 425 c 257
 228 307 l 257
 227 307 l 256
 207 302 160 286 160 209 c 256
 160 170 190 128 228 124 c 257
 228 -1 l 257
 53 -1 26 186 26 358 c 256
 26 475 55 675 228 697 c 257
EndSplineSet
Fore
SplineSet
301.074503186 440 m 1
 318.40776699 440 l 2
 461.270507812 440 531 335.723632812 531 216.598632812 c 0
 531 88.55859375 436.897460938 0.0517578125 318.577821602 -0.9990234375 c 0
 301.223300971 -1.1494140625 l 1
 301.223300971 146.3671875 l 1
 316.456614078 147.836914062 l 0
 348.754683708 150.953125 386 176.541992188 386 215.62890625 c 0
 386 285.791015625 335.597826911 294.743164062 315.18008571 299.278320312 c 0
 302.483047633 302.099609375 l 1
 301.074503186 440 l 1
396.318359375 501.559570312 m 1
 387.869140625 513.177734375 l 2
 371.390966323 533.28125 356.002142749 543 331.009708738 543 c 0
 301.223300971 543 l 1
 301.223300971 698 l 1
 318.40776699 698 l 0
 410.625976562 698 470.760742188 655.260742188 507.900390625 592.653320312 c 0
 515.1796875 580.383789062 l 1
 396.318359375 501.559570312 l 1
254.375493022 696.879882812 m 0
 273.72815534 699.028320312 l 1
 273.72815534 552.083984375 l 1
 258.441140777 550.682617188 l 0
 215.672405947 546.737304688 191.606322057 480.784179688 185.835653064 426.290039062 c 1
 206.706500303 434.713867188 231.137306584 440 256.54368932 440 c 0
 273.72815534 440 l 1
 273.72815534 292 l 1
 257.571848453 292 l 1
 236.810641687 287.393554688 195.825242718 276.09765625 195.825242718 213.041992188 c 0
 195.825242718 181.825195312 226.140833586 149.1875 258.342688107 146.373046875 c 0
 273.72815534 145.028320312 l 1
 273.72815534 -1 l 1
 256.54368932 -1 l 0
 51.9599609375 -1 26 195.215820312 26 357.584960938 c 0
 26 468.932617188 53.990234375 674.065429688 254.375493022 696.879882812 c 0
EndSplineSet
EndChar

StartChar: slash
Encoding: 47 47 201
GlifName: slash
Width: 401
VWidth: 0
GlyphClass: 2
Flags: W
LayerCount: 2
Back
SplineSet
50 -23 m 257
 225 716 l 257
 351 716 l 257
 177 -23 l 257
 50 -23 l 257
EndSplineSet
Fore
SplineSet
31.0330592003 -38 m 1
 213.137254058 731 l 1
 369.941978487 731 l 1
 188.878379028 -38 l 1
 31.0330592003 -38 l 1
EndSplineSet
EndChar

StartChar: sterling
Encoding: 163 163 203
GlifName: sterling
Width: 520
VWidth: 0
GlyphClass: 2
Flags: W
LayerCount: 2
Back
SplineSet
371 520 m 257
 361 551 341 584 297 584 c 256
 265 584 239 568 239 517 c 258
 239 396 l 257
 378 396 l 257
 378 289 l 257
 238 289 l 257
 238 108 l 257
 462 108 l 257
 462 0 l 257
 106 0 l 257
 106 288 l 257
 50 288 l 257
 50 395 l 257
 106 395 l 257
 106 514 l 258
 106 617 161 705 291 705 c 256
 292 705 292 705 293 705 c 256
 321 705 345 700 366 691 c 256
 424 668 459 618 470 570 c 257
 371 520 l 257
EndSplineSet
Fore
SplineSet
356.724370734 515.394958301 m 2
 347.313680054 544.568099409 331.273160745 569 297 569 c 0
 271.932530734 569 254 560.565580436 254 517 c 0
 254 411 l 1
 393 411 l 1
 393 274 l 1
 253 274 l 1
 253 123 l 1
 477 123 l 1
 477 -15 l 1
 91 -15 l 1
 91 273 l 1
 35 273 l 1
 35 410 l 1
 91 410 l 1
 91 514 l 0
 91 622.728400879 151.735193811 720 291 720 c 0
 293 720 l 0
 322.739842036 720 349.069374244 714.575496265 371.720158183 704.868017434 c 1
 434.50314822 679.971314488 472.644903763 625.609904954 484.620984778 573.350642345 c 0
 487.24403966 561.904584679 l 1
 362.108317035 498.704724767 l 1
 356.724370734 515.394958301 l 2
EndSplineSet
EndChar

StartChar: t
Encoding: 116 116 204
GlifName: t
Width: 384
VWidth: 0
GlyphClass: 2
Flags: HW
LayerCount: 2
Back
SplineSet
244 125 m 258
 271 125 l 257
 298 0 l 257
 243 0 l 258
 121 1 89 66 89 168 c 258
 89 398 l 257
 26 398 l 257
 26 516 l 257
 89 516 l 257
 89 700 l 257
 211 700 l 257
 211 516 l 257
 271 516 l 257
 271 398 l 257
 211 398 l 257
 211 159 l 258
 211 145 216 126 244 125 c 258
EndSplineSet
Fore
SplineSet
260.174035161 171.654296875 m 0
 260.174035161 162.192382812 261.965237809 155.859375 289.178710938 155 c 2
 328.10546875 155 l 1
 361.5859375 0 l 1
 287.938476562 0 l 1
 126.771484375 0.994140625 89 71.09375 89 169.206054688 c 0
 89 368 l 1
 26 368 l 1
 26 516 l 1
 89 516 l 1
 89 700 l 1
 260.174035161 700 l 1
 260.174035161 516 l 1
 331 516 l 1
 331 368 l 1
 260.174035161 368 l 1
 260.174035161 171.654296875 l 0
EndSplineSet
EndChar

StartChar: thorn
Encoding: 254 254 205
GlifName: thorn
Width: 512
VWidth: 0
GlyphClass: 2
Flags: HW
LayerCount: 2
Back
SplineSet
232 0 m 258
 203 0 l 257
 203 118 l 257
 234 118 l 258
 271 119 276 134 276 143 c 258
 276 372 l 258
 276 385 258 398 228 398 c 258
 196 398 l 257
 196 516 l 257
 228 516 l 258
 335 516 396 431 396 375 c 258
 396 139 l 258
 396 86 345 0 232 0 c 258
30 700 m 257
 155 700 l 257
 155 -182 l 257
 30 -182 l 257
 30 700 l 257
EndSplineSet
Fore
SplineSet
486 145.538085938 m 0
 486 87.8662109375 428.63671875 0 277 0 c 2
 233 0 l 1
 233 148 l 1
 280.655711207 148 l 1
 340.712890625 148.758789062 336 156.778320312 336 156.799804688 c 0
 306 358.250976562 l 1
 305.483277376 359.341796875 294.696692601 368 264.818181818 368 c 0
 206.165289256 368 l 1
 206.165289256 516 l 1
 264.818181818 516 l 0
 388.153320312 516 456 430.012695312 456 368.571289062 c 0
 486 145.538085938 l 0
30 -182 m 1
 30 700 l 1
 192.438016529 700 l 1
 203.75 -182 l 1
 30 -182 l 1
EndSplineSet
EndChar

StartChar: three
Encoding: 51 51 206
GlifName: three
Width: 544
VWidth: 0
GlyphClass: 2
Flags: HW
LayerCount: 2
Back
SplineSet
132 537 m 257
 26 600 l 257
 59 656 117 698 195 698 c 257
 195 572 l 257
 166 570 146 558 132 537 c 257
254 122 m 257
 297 122 327 161 327 201 c 256
 327 261 306 286 188 286 c 257
 188 410 l 257
 308 410 327 439 327 499 c 256
 327 553 286 574 256 574 c 256
 255 574 253 574 252 574 c 257
 252 698 l 257
 386 695 453 582 453 508 c 256
 453 411 422 366 391 350 c 257
 419 331 458 284 458 199 c 256
 458 75 337 0 257 0 c 256
 256 0 256 0 255 0 c 257
 254 122 l 257
132 160 m 257
 146 139 166 127 195 125 c 257
 195 -1 l 257
 117 -1 60 30 26 97 c 257
 132 160 l 257
EndSplineSet
Fore
SplineSet
164.991210938 513.6796875 m 0
 157.08984375 501.828125 l 1
 26 579.740234375 l 1
 33.5869140625 592.615234375 l 0
 68.818359375 652.40234375 131.671875 698 215.509765625 698 c 0
 230.509765625 698 l 1
 230.509765625 542.999023438 l 1
 216.541992188 542.03515625 l 0
 191.538085938 540.311523438 176.477539062 530.909179688 164.991210938 513.6796875 c 0
259.38671875 152 m 1
 274.509765625 152 l 2
 325.729679299 152 362.509765625 179.2109375 362.509765625 208.8359375 c 0
 362.509765625 253.686523438 352.860635216 271 208.509765625 271 c 0
 193.509765625 271 l 1
 193.509765625 425 l 1
 208.509765625 425 l 0
 354.625237483 425 362.509765625 445.182617188 362.509765625 490.716796875 c 0
 362.509765625 530.094726562 314.150751358 544 276.509765625 544 c 0
 257.509765625 544 l 1
 257.509765625 698.33984375 l 1
 272.845703125 697.99609375 l 0
 446.168945312 694.919921875 518.509765625 579.346679688 518.509765625 501.447265625 c 0
 518.509765625 421.200195312 496.129882812 374 466.501953125 349.01953125 c 1
 495.381835938 322.624023438 523.509765625 276.701171875 523.509765625 205.181640625 c 0
 523.509765625 76.228515625 394.28125 0 277.509765625 0 c 0
 260.6328125 0 l 1
 259.38671875 152 l 1
157.08984375 195.171875 m 1
 164.991210938 183.3203125 l 2
 176.52734375 166.015625 191.600585938 156.684570312 216.541992188 154.96484375 c 0
 230.509765625 154.000976562 l 1
 230.509765625 -1 l 1
 215.509765625 -1 l 0
 133.122070312 -1 69.7470703125 33.0625 33.1337890625 105.211914062 c 0
 26.7841796875 117.725585938 l 1
 157.08984375 195.171875 l 1
EndSplineSet
EndChar

StartChar: threequarters
Encoding: 190 190 207
GlifName: threequarters
Width: 584
VWidth: 0
GlyphClass: 2
Flags: W
LayerCount: 2
Back
SplineSet
83 431 m 258x3f
 90 421 99 415 113 414 c 258
 114 414 l 257
 114 348 l 257
 113 348 l 258
 74 348 44 364 27 398 c 257
 26 399 l 257
 82 432 l 257
 83 431 l 258x3f
142 412 m 258
 163 412 177 431 177 450 c 256
 177 479 167 492 108 492 c 257
 108 557 l 257
 109 557 l 258
 169 557 177 571 177 600 c 256
 177 626 157 636 143 636 c 258
 140 636 l 257
 140 701 l 257
 141 700 l 257
 209 698 243 642 243 604 c 256
 243 557 229 534 214 525 c 257
 229 514 245 491 245 450 c 256
 245 387 185 348 144 348 c 258
 141 348 l 257
 141 412 l 257
 142 412 l 258
82 616 m 257
 26 649 l 257
 27 651 l 258
 44 679 74 700 114 700 c 257
 114 635 l 257
 113 635 l 258
 99 634 90 628 83 618 c 258
 82 616 l 257
512 137 m 257xbf80
 512 71 l 257xbf80
 485 71 l 257
 485 -1 l 257
 417 -1 l 257xbf40
 417 352 l 257xbf80
 485 352 l 257
 485 137 l 257xbf40
 512 137 l 257xbf80
392 137 m 257
 392 71 l 257
 294 71 l 257
 294 137 l 257
 392 305 l 257
 392 175 l 257
 370 137 l 257
 392 137 l 257
50 -2 m 257
 482 702 l 257
 558 702 l 257
 133 -2 l 257
 50 -2 l 257
EndSplineSet
Fore
SplineSet
23.1964870466 -17 m 1
 473.605577956 717 l 1
 584.576819702 717 l 1
 141.466024247 -17 l 1
 23.1964870466 -17 l 1
527 152 m 1
 527 56 l 1
 500 56 l 1
 500 -16 l 1
 402 -16 l 1
 402 56 l 1
 279 56 l 1
 279 141.05523712 l 1
 402 351.912379977 l 1
 402 367 l 1
 500 367 l 1
 500 152 l 1
 527 152 l 1
88.22963518 594.918250698 m 1
 6.32208895793 643.185197578 l 1
 13.8588077271 658.258635117 l 1
 14.1781872717 658.784672014 l 2
 33.5165109803 690.63602871 68.3503567436 715 114 715 c 2
 125 715 l 1
 125 737.213203436 l 1
 147.531668458 714.681534977 l 1
 221.069087471 709.085348296 258 648.134952084 258 604 c 0
 258 566.034597564 249.180344416 540.472244767 236.158158128 524.6553427 c 1
 250.529108353 507.360432906 260 484.009486766 260 450 c 0
 260 376.86304919 192.135736952 333 144 333 c 2
 129 333 l 1
 126 333 l 1
 113 333 l 2
 70.109612658 333 34.8433868456 351.44872974 14.7211159551 389.065680609 c 1
 1.69731019783 402.089486367 l 1
 84.3925774426 450.820625993 l 1
 94.5353033956 440.67790004 l 1
 95.2884788078 439.601935165 l 2
 100.243362902 432.523529317 104.795036427 429.810612107 113.562986369 429 c 2
 129 429 l 1
 129 427 l 1
 142 427 l 2
 152.875417392 427 162 437.421294187 162 450 c 0
 162 469.607307245 164.727919374 477 108 477 c 2
 93 477 l 1
 93 572 l 1
 109 572 l 2
 166.031028868 572 162 579.70327325 162 600 c 0
 162 616.243050108 150.850932846 621 143 621 c 2
 129 621 l 1
 129 620 l 1
 114 620 l 2
 104.853516119 620 100.169399177 615.90309798 95.8884053191 610.235790976 c 2
 88.22963518 594.918250698 l 1
402 162.334774909 m 1
 396.016709263 152 l 1
 402 152 l 1
 402 162.334774909 l 1
EndSplineSet
EndChar

StartChar: tilde
Encoding: 294 732 208
GlifName: tilde
Width: 333
VWidth: 0
GlyphClass: 2
Flags: W
LayerCount: 2
Back
SplineSet
307 114 m 257xa0
 273 93 246 86 223 86 c 256xa0
 170 86 140 126 92 126 c 256
 74 126 52 120 26 104 c 257
 26 206 l 257
 54 222 77 228 96 228 c 256x60
 147 228 176 187 227 187 c 256
 249 187 274 195 307 215 c 257
 307 114 l 257xa0
EndSplineSet
Fore
SplineSet
314.882393211 101.23803004 m 2
 279.155284546 79.1712864527 249.194084544 71 223 71 c 0
 161.613636894 71 130.694776549 111 92 111 c 0
 77.3858091518 111 58.1057777954 106.144704579 33.861461385 91.2251252494 c 0
 11 77.1565336279 l 1
 11 214.704838032 l 1
 18.5579159246 219.023647132 l 0
 48.1957101608 235.959529553 73.7680728956 243 96 243 c 0
 156.048142946 243 185.062749727 202 227 202 c 0
 245.196518242 202 267.469552199 208.581954104 299.225474259 227.827967473 c 0
 322 241.630710347 l 1
 322 105.634198939 l 1
 314.882393211 101.23803004 l 2
EndSplineSet
EndChar

StartChar: two
Encoding: 50 50 209
GlifName: two
Width: 540
VWidth: 0
GlyphClass: 2
Flags: HW
LayerCount: 2
Back
SplineSet
447 127 m 257
 447 0 l 257
 43 0 l 257
 43 127 l 257
 447 127 l 257
190 699 m 257
 190 573 l 258
 189 573 142 557 142 495 c 257
 24 520 l 257
 33 604 95 687 190 699 c 257
245 574 m 257
 245 700 l 257
 247 700 250 700 252 700 c 256
 406 700 452 574 453 497 c 256
 453 496 453 495 453 494 c 256
 453 390 403 358 342 315 c 256
 271 265 231 232 197 179 c 257
 45 179 l 257
 105 302 205 359 235 384 c 256
 278 421 329 433 330 495 c 256
 330 496 330 496 330 497 c 256
 330 547 300 572 245 574 c 257
EndSplineSet
Fore
SplineSet
44.357421875 157 m 1
 508.357421875 157 l 1
 508.357421875 0 l 1
 44.357421875 0 l 1
 44.357421875 157 l 1
213.913571019 698.881835938 m 0
 233.558834371 701.013671875 l 1
 233.558834371 543 l 1
 219.120105668 543 l 1
 209.142334944 539.212890625 177.695138434 524.43359375 177.695138434 480 c 0
 177.695138434 461.489257812 l 1
 24 493.1328125 l 1
 25.4423828125 506.59765625 l 0
 35.0390625 596.166015625 101.18359375 685.833984375 213.913571019 698.881835938 c 0
279.477719528 544.009765625 m 0
 262.654509338 544.53515625 l 1
 262.654509338 700 l 1
 288.258703309 700 l 0
 463.477539062 700 513.30078125 563.462890625 514.357421875 482.09765625 c 1
 514.357421875 479 l 0
 514.357421875 368.293945312 457.575195312 330.440429688 396.994140625 287.736328125 c 0
 317.03570003 237.856445312 274.059578414 206.52734375 237.040675211 155.900390625 c 0
 231.995071499 149 l 1
 37.3505859375 149 l 1
 47.8759765625 170.576171875 l 0
 109.73828125 297.395507812 225.117678981 357.481445312 257.191114433 380.447265625 c 1
 313.391229112 421.998046875 360.525390625 428.546875 361.357421875 480.12109375 c 1
 361.357421875 482 l 0
 361.357421875 523.219726562 337.484948394 542.197265625 279.477719528 544.009765625 c 0
EndSplineSet
EndChar

StartChar: u
Encoding: 117 117 210
GlifName: u
Width: 494
VWidth: 0
GlyphClass: 2
Flags: W
HStem: -5 151<195.022 243.143 258 304.9> 494 20G<30 191.143 310 464>
VStem: 30 161.143<146.148 514> 310 154<146.156 514>
LayerCount: 2
Back
SplineSet
238 116 m 257
 243 116 l 258
 274 116 280 140 280 142 c 257
 280 514 l 257
 404 514 l 257
 404 137 l 258
 404 92 350 -5 243 -5 c 258
 238 -5 l 257
 238 116 l 257
30 514 m 257
 154 514 l 257
 154 142 l 257
 154 139 160 116 191 116 c 258
 196 116 l 257
 196 -5 l 257
 191 -5 l 258
 84 -5 30 89 30 137 c 258
 30 514 l 257
EndSplineSet
Fore
SplineSet
258 -5 m 1
 258 146 l 1
 282.761904762 146 l 0
 304.426153274 146 308.718377976 154.907226562 310 157.62109375 c 1
 310 514 l 1
 464 514 l 1
 464 143.420898438 l 0
 464 93.4990234375 404.748046875 -5 282.761904762 -5 c 0
 258 -5 l 1
30 143.420898438 m 0
 30 514 l 1
 191.142857143 514 l 1
 191.142857143 157.27734375 l 1
 192.336216518 154.46875 196.316499256 146 218.380952381 146 c 0
 243.142857143 146 l 1
 243.142857143 -5 l 1
 218.380952381 -5 l 0
 89.4736328125 -5 30 90.638671875 30 143.420898438 c 0
EndSplineSet
EndChar

StartChar: underscore
Encoding: 95 95 215
GlifName: underscore
Width: 510
VWidth: 0
GlyphClass: 2
Flags: W
LayerCount: 2
Back
SplineSet
480 -205 m 257
 30 -205 l 257
 30 -98 l 257
 480 -98 l 257
 480 -205 l 257
EndSplineSet
Fore
SplineSet
495 -220 m 1
 15 -220 l 1
 15 -83 l 1
 495 -83 l 1
 495 -220 l 1
EndSplineSet
EndChar

StartChar: uni00B2
Encoding: 178 178 218
GlifName: uni00B_2
Width: 245
VWidth: 0
GlyphClass: 2
Flags: W
LayerCount: 2
Back
SplineSet
102 638 m 258
 98 636 85 629 85 608 c 258
 85 604 l 257
 26 616 l 257
 26 619 l 257
 30 657 58 695 101 700 c 257
 105 700 l 257
 105 645 l 257
 105 638 l 257
 102 638 l 258
216 451 m 257
 216 389 l 257
 34 389 l 257
 34 451 l 257
 216 451 l 257
122 639 m 257
 122 700 l 257
 129 700 l 258
 198 700 219 643 219 609 c 256
 219 560 196 546 170 527 c 256
 139 505 123 493 109 471 c 258
 108 469 l 257
 34 469 l 257
 37 475 l 258
 63 529 107 553 119 563 c 256
 139 580 159 584 159 608 c 256
 159 629 148 638 125 639 c 258
 122 639 l 257
EndSplineSet
Fore
SplineSet
231 466 m 1
 231 374 l 1
 19 374 l 1
 19 454 l 1
 9.72949016875 454 l 1
 23.5335336993 481.608087061 l 2
 51.306608547 539.290627129 100.074667698 566.754513938 109.341024029 574.476477548 c 0
 134.869386324 596.175585498 144 594.754429014 144 608 c 0
 144 620.736661924 142.306124359 623.019955737 124.704812888 624 c 2
 120 624 l 1
 120 623 l 1
 106.077105266 623 l 2
 103.570541907 621.10590721 100 618.154591076 100 608 c 2
 100 585.64204079 l 1
 11 603.743735705 l 1
 11 619.787298809 l 1
 11.0824182062 620.570271768 l 2
 15.658997633 664.047776322 47.7336662217 708.907305948 99.2674871274 714.899610705 c 2
 100.130835069 715 l 1
 107 715 l 1
 120 715 l 1
 129 715 l 2
 209.118786228 715 234 647.475730168 234 609 c 0
 234 553.467729976 204.319140273 533.501015367 178.766149654 514.827676068 c 0
 149.055854816 493.7429507 134.973925604 482.597556983 123.665042453 466 c 1
 231 466 l 1
EndSplineSet
EndChar

StartChar: uni00B3
Encoding: 179 179 219
GlifName: uni00B_3
Width: 247
VWidth: 0
GlyphClass: 2
Flags: W
LayerCount: 2
Back
SplineSet
80 467 m 258
 85 459 92 455 104 454 c 258
 107 453 l 257
 107 392 l 257
 104 392 l 258
 69 392 43 406 28 436 c 257
 26 439 l 257
 78 470 l 257
 80 467 l 258
129 452 m 258
 145 452 157 467 157 483 c 256
 157 507 151 516 101 516 c 258
 97 516 l 257
 97 577 l 257
 101 577 l 258
 152 577 157 588 157 612 c 256
 157 633 141 640 130 640 c 258
 125 640 l 257
 125 701 l 257
 128 701 l 258
 188 700 219 650 219 616 c 256
 219 578 208 557 195 547 c 257
 207 537 221 516 221 482 c 256
 221 426 167 392 131 392 c 258
 126 392 l 257
 126 452 l 257
 129 452 l 258
78 623 m 257
 26 654 l 257
 28 657 l 258
 43 682 69 701 104 701 c 258
 107 701 l 257
 107 640 l 257
 104 640 l 258
 92 639 85 634 80 626 c 258
 78 623 l 257
EndSplineSet
Fore
SplineSet
82.5695077557 602.812627068 m 1
 4.76831514229 649.194107279 l 1
 15.3017396824 664.99424409 l 2
 33.2783400518 694.367680086 63.4028415907 716 104 716 c 2
 110 716 l 1
 122 716 l 1
 128.124991321 716 l 2
 197.522952323 714.843367317 234 657.429245196 234 616 c 0
 234 584.528180147 226.576913662 561.693386689 215.714818831 546.944934669 c 1
 227.581709307 531.3999136 236 510.795340988 236 482 c 0
 236 415.656008064 173.837330935 377 131 377 c 2
 122 377 l 1
 111 377 l 1
 104 377 l 2
 64.4725915054 377 32.2844074245 394.760429503 15.0188050443 428.430157868 c 1
 4.76831514229 443.805892721 l 1
 82.5695077557 490.187372932 l 1
 92.6030883019 475.137002113 l 2
 95.2042033903 470.975217972 96.2404218959 469.698624732 105.245682198 468.948186374 c 2
 107.037580309 468.798861531 l 1
 112.434164903 467 l 1
 129 467 l 2
 134.896117506 467 142 473.607383819 142 483 c 0
 142 497.9823324 149.226148331 501 101 501 c 2
 82 501 l 1
 82 592 l 1
 101 592 l 2
 149.090279139 592 142 595.990914337 142 612 c 0
 142 622.862631887 135.570871359 625 130 625 c 2
 122 625 l 1
 110 625 l 1
 104.672250369 625 l 2
 97.0218648033 624.17035236 95.6567125827 622.748796736 92.6030883019 617.862997887 c 2
 82.5695077557 602.812627068 l 1
EndSplineSet
EndChar

StartChar: uni00B9
Encoding: 185 185 220
GlifName: uni00B_9
Width: 186
VWidth: 0
GlyphClass: 2
Flags: W
LayerCount: 2
Back
SplineSet
93 610 m 257xa0
 60 584 l 257
 60 673 l 257xc0
 95 700 l 257
 161 700 l 257
 161 391 l 257
 93 391 l 257
 93 610 l 257xa0
EndSplineSet
Fore
SplineSet
78 579.085498602 m 1
 45 553.085498602 l 1
 45 680.373173805 l 1
 89.8866265497 715 l 1
 176 715 l 1
 176 376 l 1
 78 376 l 1
 78 579.085498602 l 1
EndSplineSet
EndChar

StartChar: v
Encoding: 118 118 221
GlifName: v
Width: 460
VWidth: 0
GlyphClass: 2
Flags: HW
LayerCount: 2
Back
SplineSet
174 0 m 257xa0
 16 515 l 257
 151 516 l 257
 286 120 l 257
 243 0 l 257
 174 0 l 257xa0
269 516 m 257
 400 515 l 257
 308 208 l 257
 296 208 l 257
 232 394 l 257
 269 516 l 257
EndSplineSet
Fore
SplineSet
303.8046875 -0 m 1
 213.158203125 0 l 1
 16 514.850585938 l 1
 189.188475509 516.080078125 l 1
 382.135742188 127.466796875 l 1
 303.8046875 -0 l 1
252.878651826 378.708984375 m 1
 301.540232301 516.084960938 l 1
 470.354492188 514.846679688 l 1
 399.41015625 178 l 1
 357.347975378 178 l 1
 252.878651826 378.708984375 l 1
EndSplineSet
EndChar

StartChar: w
Encoding: 119 119 222
GlifName: w
Width: 637
VWidth: 0
GlyphClass: 2
Flags: HW
LayerCount: 2
Back
SplineSet
160 0 m 257xa0
 8 515 l 257
 144 516 l 257
 261 120 l 257
 222 0 l 257
 160 0 l 257xa0
348 0 m 257
 190 515 l 257
 328 516 l 257
 449 120 l 257
 412 0 l 257
 348 0 l 257
443 516 m 257
 569 515 l 257
 471 208 l 257
 463 208 l 257
 407 394 l 257
 443 516 l 257
EndSplineSet
Fore
SplineSet
252.920898438 0 m 1
 168.810546875 0 l 1
 8 514.853515625 l 1
 175.208007812 516.083007812 l 1
 309.362290403 127.383789062 l 1
 252.920898438 0 l 1
473.095703125 -0 m 1
 386.935546875 0 l 1
 189.776367188 514.853515625 l 1
 389.100585938 516.081054688 l 1
 514.713867188 127.564453125 l 1
 473.095703125 -0 l 1
441.37109375 378.95703125 m 1
 481.836914062 516.088867188 l 1
 639.505859375 514.837890625 l 1
 531.981445312 178 l 1
 501.875 178 l 1
 441.37109375 378.95703125 l 1
EndSplineSet
EndChar

StartChar: x
Encoding: 120 120 223
GlifName: x
Width: 441
VWidth: 0
GlyphClass: 2
Flags: HW
LayerCount: 2
Back
SplineSet
132 262 m 257xa0
 22 516 l 257
 147 516 l 257
 200 399 l 257
 252 515 l 257
 378 515 l 257
 269 262 l 257
 382 0 l 257
 257 0 l 257
 200 126 l 257
 143 0 l 257
 18 0 l 257
 132 262 l 257xa0
EndSplineSet
Fore
SplineSet
18 0 m 1
 138.533203125 261.793945312 l 1
 22.04296875 516 l 1
 180.823971556 516 l 1
 237.790879674 420.509765625 l 1
 293.574567594 515 l 1
 453.680664062 515 l 1
 338.219726562 261.754882812 l 1
 457.690429688 0 l 1
 300.20703125 0 l 1
 237.884765625 104.607421875 l 1
 175.5625 0 l 1
 18 0 l 1
EndSplineSet
EndChar

StartChar: y
Encoding: 121 121 224
GlifName: y
Width: 443
VWidth: 0
GlyphClass: 2
Flags: W
HStem: -182 21G<28.8115 204.583> 495.085 20G<0 176.148 275.939 452.828>
LayerCount: 2
Back
SplineSet
118 113 m 257
 0 514 l 257
 131 515 l 257
 188 327 l 257
 188 328 189 328 189 329 c 257
 252 111 l 257
 155 -182 l 257
 29 -182 l 257
 118 113 l 257
251 515 m 257
 382 514 l 257
 279 208 l 257
 267 208 l 257
 213 393 l 257
 251 515 l 257
EndSplineSet
Fore
SplineSet
28.8115234375 -182 m 1
 122.353515625 115.23828125 l 1
 0 513.84765625 l 1
 168.751295392 515.084960938 l 1
 206.055309643 414.213867188 l 1
 206.055309643 423.859375 l 1
 315.631925821 113.002929688 l 1
 196.506898097 -182 l 1
 28.8115234375 -182 l 1
233.341542997 378.140625 m 1
 283.223742247 515.084960938 l 1
 452.828125 513.841796875 l 1
 339.783203125 178 l 1
 301.659336984 178 l 1
 233.341542997 378.140625 l 1
EndSplineSet
EndChar

StartChar: yen
Encoding: 165 165 227
GlifName: yen
Width: 542
VWidth: 0
GlyphClass: 2
Flags: W
LayerCount: 2
Back
SplineSet
73 698 m 257xbc
 210 698 l 257
 273 485 l 257
 333 698 l 257
 470 698 l 257
 382 408 l 257
 492 408 l 257
 492 350 l 257
 365 350 l 257
 351 295 l 257
 492 295 l 257
 492 236 l 257
 340 236 l 257
 340 0 l 257
 203 0 l 257
 203 238 l 257
 50 238 l 257
 50 295 l 257
 193 295 l 257
 177 351 l 257
 50 351 l 257
 50 409 l 257
 162 409 l 257
 73 698 l 257xbc
EndSplineSet
Fore
SplineSet
52.6854437887 713 m 1
 221.205745657 713 l 1
 272.648495874 539.07451117 l 1
 321.641591319 713 l 1
 490.227125014 713 l 1
 402.227125014 423 l 1
 507 423 l 1
 507 335 l 1
 376.660142135 335 l 1
 370.296505771 310 l 1
 507 310 l 1
 507 221 l 1
 355 221 l 1
 355 -15 l 1
 188 -15 l 1
 188 223 l 1
 35 223 l 1
 35 310 l 1
 173.114050237 310 l 1
 165.685478809 336 l 1
 35 336 l 1
 35 424 l 1
 141.685443789 424 l 1
 52.6854437887 713 l 1
EndSplineSet
EndChar

StartChar: z
Encoding: 122 122 228
GlifName: z
Width: 378
VWidth: 0
GlyphClass: 2
Flags: W
HStem: 0 139.684<209.115 352> 364 150<26 172.302>
VStem: 26 326<0 124.668 388.517 514>
LayerCount: 2
Back
SplineSet
322 400 m 257
 169 118 l 257
 322 117 l 257
 322 0 l 257
 26 0 l 257
 26 116 l 257
 183 394 l 257
 26 394 l 257
 26 514 l 257
 322 514 l 257
 322 400 l 257
EndSplineSet
Fore
SplineSet
352 514 m 1
 352 388.516601562 l 1
 209.115234375 139.68359375 l 1
 352 138.80078125 l 1
 352 0 l 1
 26 0 l 1
 26 124.66796875 l 1
 172.301757812 364 l 1
 26 364 l 1
 26 514 l 1
 352 514 l 1
EndSplineSet
EndChar

StartChar: zero
Encoding: 48 48 230
GlifName: zero
Width: 1100
VWidth: 0
GlyphClass: 2
Flags: HW
LayerCount: 2
Back
SplineSet
404 698 m 257
 404 573 l 257
 351 560 346 461 346 398 c 256
 346 371 346 360 346 339 c 256
 346 248 348 137 403 124 c 257
 403 0 l 257
 337 3 221 60 221 353 c 256
 221 602 315 693 404 698 c 257
464 698 m 257
 553 693 647 602 647 353 c 256
 647 60 531 3 465 0 c 257
 465 124 l 257
 520 137 522 248 522 339 c 256
 522 360 522 371 522 398 c 256
 522 461 517 560 464 573 c 257
 464 698 l 257
EndSplineSet
Fore
SplineSet
430.457896839 697.9765625 m 0
 449 698.866210938 l 1
 449 552.510742188 l 1
 435.625499379 549.823242188 l 0
 392.580433239 541.173828125 381.113636364 460.620117188 381.113636364 395.98828125 c 0
 381.113636364 339.415039062 l 0
 388.619298654 246.526367188 399.58350169 155.8046875 451.450195312 147.252929688 c 0
 463 144.635742188 l 1
 463 -0.697265625 l 1
 447.319335938 0.015625 l 0
 340.993164062 3.341796875 221 68.2265625 221 352.834960938 c 0
 221 594.0234375 317.206054688 692.5390625 430.457896839 697.9765625 c 0
484.113636364 698.866210938 m 1
 502.655739524 697.9765625 l 2
 610.79296875 692.5390625 707 594.0234375 707 352.834960938 c 0
 767 68.2265625 647.006835938 3.341796875 540.680664062 0.015625 c 0
 525 -0.697265625 l 1
 525 144.635742188 l 1
 536.549804688 147.252929688 l 0
 598.6787192 155.8046875 612 246.526367188 552 339.415039062 c 0
 552 395.98828125 l 0
 552 460.620117188 540.533203125 541.173828125 497.488136985 549.823242188 c 0
 484.113636364 552.510742188 l 1
 484.113636364 698.866210938 l 1
EndSplineSet
EndChar
